<?xml version="1.0" encoding="utf-8" standalone="no"?>
<!DOCTYPE svg PUBLIC "-//W3C//DTD SVG 1.1//EN"
  "http://www.w3.org/Graphics/SVG/1.1/DTD/svg11.dtd">
<svg xmlns:xlink="http://www.w3.org/1999/xlink" width="576pt" height="432pt" viewBox="0 0 576 432" xmlns="http://www.w3.org/2000/svg" version="1.1">
 <metadata>
  <rdf:RDF xmlns:dc="http://purl.org/dc/elements/1.1/" xmlns:cc="http://creativecommons.org/ns#" xmlns:rdf="http://www.w3.org/1999/02/22-rdf-syntax-ns#">
   <cc:Work>
    <dc:type rdf:resource="http://purl.org/dc/dcmitype/StillImage"/>
    <dc:date>2025-11-12T14:21:30.371129</dc:date>
    <dc:format>image/svg+xml</dc:format>
    <dc:creator>
     <cc:Agent>
      <dc:title>Matplotlib v3.10.6, https://matplotlib.org/</dc:title>
     </cc:Agent>
    </dc:creator>
   </cc:Work>
  </rdf:RDF>
 </metadata>
 <defs>
  <style type="text/css">*{stroke-linejoin: round; stroke-linecap: butt}</style>
 </defs>
 <g id="figure_1">
  <g id="patch_1">
   <path d="M 0 432 
L 576 432 
L 576 0 
L 0 0 
z
" style="fill: #ffffff"/>
  </g>
  <g id="axes_1">
   <g id="patch_2">
    <path d="M 62.714 125.693333 
L 565.2 125.693333 
L 565.2 10.8 
L 62.714 10.8 
z
" style="fill: #ffffff"/>
   </g>
   <g id="patch_3">
    <path d="M 85.554273 125.693333 
L 85.554273 116.737066 
L 94.876833 116.737066 
L 94.876833 56.379612 
L 104.199393 56.379612 
L 104.199393 18.218126 
L 113.521954 18.218126 
L 113.521954 16.271111 
L 122.844514 16.271111 
L 122.844514 64.167671 
L 132.167074 64.167671 
L 132.167074 101.939755 
L 141.489635 101.939755 
L 141.489635 118.684081 
L 150.812195 118.684081 
L 150.812195 123.746319 
L 160.134755 123.746319 
L 160.134755 125.693333 
L 169.457315 125.693333 
L 169.457315 125.693333 
L 178.779876 125.693333 
L 178.779876 125.693333 
L 188.102436 125.693333 
L 188.102436 125.693333 
L 197.424996 125.693333 
L 197.424996 125.693333 
L 206.747557 125.693333 
L 206.747557 125.693333 
L 216.070117 125.693333 
L 216.070117 125.693333 
L 225.392677 125.693333 
L 225.392677 125.693333 
L 234.715237 125.693333 
L 234.715237 125.693333 
L 244.037798 125.693333 
L 244.037798 125.693333 
L 253.360358 125.693333 
L 253.360358 125.693333 
L 262.682918 125.693333 
L 262.682918 125.693333 
L 272.005479 125.693333 
L 272.005479 125.693333 
L 281.328039 125.693333 
L 281.328039 125.693333 
L 290.650599 125.693333 
L 290.650599 125.693333 
L 299.97316 125.693333 
L 299.97316 125.693333 
L 309.29572 125.693333 
L 309.29572 125.693333 
L 318.61828 125.693333 
L 318.61828 125.693333 
L 327.94084 125.693333 
L 327.94084 125.693333 
L 337.263401 125.693333 
L 337.263401 125.693333 
L 346.585961 125.693333 
L 346.585961 125.693333 
L 355.908521 125.693333 
L 355.908521 125.693333 
L 365.231082 125.693333 
L 365.231082 125.693333 
L 374.553642 125.693333 
L 374.553642 125.693333 
L 383.876202 125.693333 
L 383.876202 125.693333 
L 393.198763 125.693333 
L 393.198763 125.693333 
L 402.521323 125.693333 
L 402.521323 125.693333 
L 411.843883 125.693333 
L 411.843883 125.693333 
L 421.166443 125.693333 
L 421.166443 125.693333 
L 430.489004 125.693333 
L 430.489004 125.693333 
L 439.811564 125.693333 
L 439.811564 125.693333 
L 449.134124 125.693333 
L 449.134124 125.693333 
L 458.456685 125.693333 
L 458.456685 125.693333 
L 467.779245 125.693333 
L 467.779245 125.693333 
L 477.101805 125.693333 
L 477.101805 125.693333 
L 486.424365 125.693333 
L 486.424365 125.693333 
L 495.746926 125.693333 
L 495.746926 125.693333 
L 505.069486 125.693333 
L 505.069486 125.693333 
L 514.392046 125.693333 
L 514.392046 125.693333 
L 523.714607 125.693333 
L 523.714607 125.693333 
L 533.037167 125.693333 
L 533.037167 125.693333 
L 542.359727 125.693333 
L 542.359727 125.693333 
L 533.037167 125.693333 
L 533.037167 125.693333 
L 523.714607 125.693333 
L 523.714607 125.693333 
L 514.392046 125.693333 
L 514.392046 125.693333 
L 505.069486 125.693333 
L 505.069486 125.693333 
L 495.746926 125.693333 
L 495.746926 125.693333 
L 486.424365 125.693333 
L 486.424365 125.693333 
L 477.101805 125.693333 
L 477.101805 125.693333 
L 467.779245 125.693333 
L 467.779245 125.693333 
L 458.456685 125.693333 
L 458.456685 125.693333 
L 449.134124 125.693333 
L 449.134124 125.693333 
L 439.811564 125.693333 
L 439.811564 125.693333 
L 430.489004 125.693333 
L 430.489004 125.693333 
L 421.166443 125.693333 
L 421.166443 125.693333 
L 411.843883 125.693333 
L 411.843883 125.693333 
L 402.521323 125.693333 
L 402.521323 125.693333 
L 393.198763 125.693333 
L 393.198763 125.693333 
L 383.876202 125.693333 
L 383.876202 125.693333 
L 374.553642 125.693333 
L 374.553642 125.693333 
L 365.231082 125.693333 
L 365.231082 125.693333 
L 355.908521 125.693333 
L 355.908521 125.693333 
L 346.585961 125.693333 
L 346.585961 125.693333 
L 337.263401 125.693333 
L 337.263401 125.693333 
L 327.94084 125.693333 
L 327.94084 125.693333 
L 318.61828 125.693333 
L 318.61828 125.693333 
L 309.29572 125.693333 
L 309.29572 125.693333 
L 299.97316 125.693333 
L 299.97316 125.693333 
L 290.650599 125.693333 
L 290.650599 125.693333 
L 281.328039 125.693333 
L 281.328039 125.693333 
L 272.005479 125.693333 
L 272.005479 125.693333 
L 262.682918 125.693333 
L 262.682918 125.693333 
L 253.360358 125.693333 
L 253.360358 125.693333 
L 244.037798 125.693333 
L 244.037798 125.693333 
L 234.715237 125.693333 
L 234.715237 125.693333 
L 225.392677 125.693333 
L 225.392677 125.693333 
L 216.070117 125.693333 
L 216.070117 125.693333 
L 206.747557 125.693333 
L 206.747557 125.693333 
L 197.424996 125.693333 
L 197.424996 125.693333 
L 188.102436 125.693333 
L 188.102436 125.693333 
L 178.779876 125.693333 
L 178.779876 125.693333 
L 169.457315 125.693333 
L 169.457315 125.693333 
L 160.134755 125.693333 
L 160.134755 125.693333 
L 150.812195 125.693333 
L 150.812195 125.693333 
L 141.489635 125.693333 
L 141.489635 125.693333 
L 132.167074 125.693333 
L 132.167074 125.693333 
L 122.844514 125.693333 
L 122.844514 125.693333 
L 113.521954 125.693333 
L 113.521954 125.693333 
L 104.199393 125.693333 
L 104.199393 125.693333 
L 94.876833 125.693333 
L 94.876833 125.693333 
z
" clip-path="url(#p6852cf62fe)" style="fill: #2e86ab; opacity: 0.3; stroke: #2e86ab; stroke-width: 1.5; stroke-linejoin: miter"/>
   </g>
   <g id="matplotlib.axis_1">
    <g id="xtick_1">
     <g id="line2d_1">
      <path d="M 85.554273 125.693333 
L 85.554273 10.8 
" clip-path="url(#p6852cf62fe)" style="fill: none; stroke: #b0b0b0; stroke-opacity: 0; stroke-width: 0.8; stroke-linecap: square"/>
     </g>
     <g id="line2d_2">
      <defs>
       <path id="m12aeeaea65" d="M 0 0 
L 0 3.5 
" style="stroke: #000000; stroke-width: 0.8"/>
      </defs>
      <g>
       <use xlink:href="#m12aeeaea65" x="85.554273" y="125.693333" style="stroke: #000000; stroke-width: 0.8"/>
      </g>
     </g>
    </g>
    <g id="xtick_2">
     <g id="line2d_3">
      <path d="M 178.779876 125.693333 
L 178.779876 10.8 
" clip-path="url(#p6852cf62fe)" style="fill: none; stroke: #b0b0b0; stroke-opacity: 0; stroke-width: 0.8; stroke-linecap: square"/>
     </g>
     <g id="line2d_4">
      <g>
       <use xlink:href="#m12aeeaea65" x="178.779876" y="125.693333" style="stroke: #000000; stroke-width: 0.8"/>
      </g>
     </g>
    </g>
    <g id="xtick_3">
     <g id="line2d_5">
      <path d="M 272.005479 125.693333 
L 272.005479 10.8 
" clip-path="url(#p6852cf62fe)" style="fill: none; stroke: #b0b0b0; stroke-opacity: 0; stroke-width: 0.8; stroke-linecap: square"/>
     </g>
     <g id="line2d_6">
      <g>
       <use xlink:href="#m12aeeaea65" x="272.005479" y="125.693333" style="stroke: #000000; stroke-width: 0.8"/>
      </g>
     </g>
    </g>
    <g id="xtick_4">
     <g id="line2d_7">
      <path d="M 365.231082 125.693333 
L 365.231082 10.8 
" clip-path="url(#p6852cf62fe)" style="fill: none; stroke: #b0b0b0; stroke-opacity: 0; stroke-width: 0.8; stroke-linecap: square"/>
     </g>
     <g id="line2d_8">
      <g>
       <use xlink:href="#m12aeeaea65" x="365.231082" y="125.693333" style="stroke: #000000; stroke-width: 0.8"/>
      </g>
     </g>
    </g>
    <g id="xtick_5">
     <g id="line2d_9">
      <path d="M 458.456685 125.693333 
L 458.456685 10.8 
" clip-path="url(#p6852cf62fe)" style="fill: none; stroke: #b0b0b0; stroke-opacity: 0; stroke-width: 0.8; stroke-linecap: square"/>
     </g>
     <g id="line2d_10">
      <g>
       <use xlink:href="#m12aeeaea65" x="458.456685" y="125.693333" style="stroke: #000000; stroke-width: 0.8"/>
      </g>
     </g>
    </g>
    <g id="xtick_6">
     <g id="line2d_11">
      <path d="M 551.682288 125.693333 
L 551.682288 10.8 
" clip-path="url(#p6852cf62fe)" style="fill: none; stroke: #b0b0b0; stroke-opacity: 0; stroke-width: 0.8; stroke-linecap: square"/>
     </g>
     <g id="line2d_12">
      <g>
       <use xlink:href="#m12aeeaea65" x="551.682288" y="125.693333" style="stroke: #000000; stroke-width: 0.8"/>
      </g>
     </g>
    </g>
   </g>
   <g id="matplotlib.axis_2">
    <g id="ytick_1">
     <g id="line2d_13">
      <path d="M 62.714 125.693333 
L 565.2 125.693333 
" clip-path="url(#p6852cf62fe)" style="fill: none; stroke: #b0b0b0; stroke-opacity: 0.3; stroke-width: 0.5; stroke-linecap: square"/>
     </g>
     <g id="line2d_14">
      <defs>
       <path id="md3e79db62c" d="M 0 0 
L -3.5 0 
" style="stroke: #000000; stroke-width: 0.8"/>
      </defs>
      <g>
       <use xlink:href="#md3e79db62c" x="62.714" y="125.693333" style="stroke: #000000; stroke-width: 0.8"/>
      </g>
     </g>
     <g id="text_1">
      <!-- 0 -->
      <g transform="translate(49.3515 129.492552) scale(0.1 -0.1)">
       <defs>
        <path id="DejaVuSans-30" d="M 2034 4250 
Q 1547 4250 1301 3770 
Q 1056 3291 1056 2328 
Q 1056 1369 1301 889 
Q 1547 409 2034 409 
Q 2525 409 2770 889 
Q 3016 1369 3016 2328 
Q 3016 3291 2770 3770 
Q 2525 4250 2034 4250 
z
M 2034 4750 
Q 2819 4750 3233 4129 
Q 3647 3509 3647 2328 
Q 3647 1150 3233 529 
Q 2819 -91 2034 -91 
Q 1250 -91 836 529 
Q 422 1150 422 2328 
Q 422 3509 836 4129 
Q 1250 4750 2034 4750 
z
" transform="scale(0.015625)"/>
       </defs>
       <use xlink:href="#DejaVuSans-30"/>
      </g>
     </g>
    </g>
    <g id="ytick_2">
     <g id="line2d_15">
      <path d="M 62.714 86.753041 
L 565.2 86.753041 
" clip-path="url(#p6852cf62fe)" style="fill: none; stroke: #b0b0b0; stroke-opacity: 0.3; stroke-width: 0.5; stroke-linecap: square"/>
     </g>
     <g id="line2d_16">
      <g>
       <use xlink:href="#md3e79db62c" x="62.714" y="86.753041" style="stroke: #000000; stroke-width: 0.8"/>
      </g>
     </g>
     <g id="text_2">
      <!-- 100 -->
      <g transform="translate(36.6265 90.552259) scale(0.1 -0.1)">
       <defs>
        <path id="DejaVuSans-31" d="M 794 531 
L 1825 531 
L 1825 4091 
L 703 3866 
L 703 4441 
L 1819 4666 
L 2450 4666 
L 2450 531 
L 3481 531 
L 3481 0 
L 794 0 
L 794 531 
z
" transform="scale(0.015625)"/>
       </defs>
       <use xlink:href="#DejaVuSans-31"/>
       <use xlink:href="#DejaVuSans-30" transform="translate(63.623047 0)"/>
       <use xlink:href="#DejaVuSans-30" transform="translate(127.246094 0)"/>
      </g>
     </g>
    </g>
    <g id="ytick_3">
     <g id="line2d_17">
      <path d="M 62.714 47.812748 
L 565.2 47.812748 
" clip-path="url(#p6852cf62fe)" style="fill: none; stroke: #b0b0b0; stroke-opacity: 0.3; stroke-width: 0.5; stroke-linecap: square"/>
     </g>
     <g id="line2d_18">
      <g>
       <use xlink:href="#md3e79db62c" x="62.714" y="47.812748" style="stroke: #000000; stroke-width: 0.8"/>
      </g>
     </g>
     <g id="text_3">
      <!-- 200 -->
      <g transform="translate(36.6265 51.611967) scale(0.1 -0.1)">
       <defs>
        <path id="DejaVuSans-32" d="M 1228 531 
L 3431 531 
L 3431 0 
L 469 0 
L 469 531 
Q 828 903 1448 1529 
Q 2069 2156 2228 2338 
Q 2531 2678 2651 2914 
Q 2772 3150 2772 3378 
Q 2772 3750 2511 3984 
Q 2250 4219 1831 4219 
Q 1534 4219 1204 4116 
Q 875 4013 500 3803 
L 500 4441 
Q 881 4594 1212 4672 
Q 1544 4750 1819 4750 
Q 2544 4750 2975 4387 
Q 3406 4025 3406 3419 
Q 3406 3131 3298 2873 
Q 3191 2616 2906 2266 
Q 2828 2175 2409 1742 
Q 1991 1309 1228 531 
z
" transform="scale(0.015625)"/>
       </defs>
       <use xlink:href="#DejaVuSans-32"/>
       <use xlink:href="#DejaVuSans-30" transform="translate(63.623047 0)"/>
       <use xlink:href="#DejaVuSans-30" transform="translate(127.246094 0)"/>
      </g>
     </g>
    </g>
    <g id="text_4">
     <!-- Number of -->
     <g transform="translate(19.349 94.741198) rotate(-90) scale(0.1 -0.1)">
      <defs>
       <path id="DejaVuSans-4e" d="M 628 4666 
L 1478 4666 
L 3547 763 
L 3547 4666 
L 4159 4666 
L 4159 0 
L 3309 0 
L 1241 3903 
L 1241 0 
L 628 0 
L 628 4666 
z
" transform="scale(0.015625)"/>
       <path id="DejaVuSans-75" d="M 544 1381 
L 544 3500 
L 1119 3500 
L 1119 1403 
Q 1119 906 1312 657 
Q 1506 409 1894 409 
Q 2359 409 2629 706 
Q 2900 1003 2900 1516 
L 2900 3500 
L 3475 3500 
L 3475 0 
L 2900 0 
L 2900 538 
Q 2691 219 2414 64 
Q 2138 -91 1772 -91 
Q 1169 -91 856 284 
Q 544 659 544 1381 
z
M 1991 3584 
L 1991 3584 
z
" transform="scale(0.015625)"/>
       <path id="DejaVuSans-6d" d="M 3328 2828 
Q 3544 3216 3844 3400 
Q 4144 3584 4550 3584 
Q 5097 3584 5394 3201 
Q 5691 2819 5691 2113 
L 5691 0 
L 5113 0 
L 5113 2094 
Q 5113 2597 4934 2840 
Q 4756 3084 4391 3084 
Q 3944 3084 3684 2787 
Q 3425 2491 3425 1978 
L 3425 0 
L 2847 0 
L 2847 2094 
Q 2847 2600 2669 2842 
Q 2491 3084 2119 3084 
Q 1678 3084 1418 2786 
Q 1159 2488 1159 1978 
L 1159 0 
L 581 0 
L 581 3500 
L 1159 3500 
L 1159 2956 
Q 1356 3278 1631 3431 
Q 1906 3584 2284 3584 
Q 2666 3584 2933 3390 
Q 3200 3197 3328 2828 
z
" transform="scale(0.015625)"/>
       <path id="DejaVuSans-62" d="M 3116 1747 
Q 3116 2381 2855 2742 
Q 2594 3103 2138 3103 
Q 1681 3103 1420 2742 
Q 1159 2381 1159 1747 
Q 1159 1113 1420 752 
Q 1681 391 2138 391 
Q 2594 391 2855 752 
Q 3116 1113 3116 1747 
z
M 1159 2969 
Q 1341 3281 1617 3432 
Q 1894 3584 2278 3584 
Q 2916 3584 3314 3078 
Q 3713 2572 3713 1747 
Q 3713 922 3314 415 
Q 2916 -91 2278 -91 
Q 1894 -91 1617 61 
Q 1341 213 1159 525 
L 1159 0 
L 581 0 
L 581 4863 
L 1159 4863 
L 1159 2969 
z
" transform="scale(0.015625)"/>
       <path id="DejaVuSans-65" d="M 3597 1894 
L 3597 1613 
L 953 1613 
Q 991 1019 1311 708 
Q 1631 397 2203 397 
Q 2534 397 2845 478 
Q 3156 559 3463 722 
L 3463 178 
Q 3153 47 2828 -22 
Q 2503 -91 2169 -91 
Q 1331 -91 842 396 
Q 353 884 353 1716 
Q 353 2575 817 3079 
Q 1281 3584 2069 3584 
Q 2775 3584 3186 3129 
Q 3597 2675 3597 1894 
z
M 3022 2063 
Q 3016 2534 2758 2815 
Q 2500 3097 2075 3097 
Q 1594 3097 1305 2825 
Q 1016 2553 972 2059 
L 3022 2063 
z
" transform="scale(0.015625)"/>
       <path id="DejaVuSans-72" d="M 2631 2963 
Q 2534 3019 2420 3045 
Q 2306 3072 2169 3072 
Q 1681 3072 1420 2755 
Q 1159 2438 1159 1844 
L 1159 0 
L 581 0 
L 581 3500 
L 1159 3500 
L 1159 2956 
Q 1341 3275 1631 3429 
Q 1922 3584 2338 3584 
Q 2397 3584 2469 3576 
Q 2541 3569 2628 3553 
L 2631 2963 
z
" transform="scale(0.015625)"/>
       <path id="DejaVuSans-20" transform="scale(0.015625)"/>
       <path id="DejaVuSans-6f" d="M 1959 3097 
Q 1497 3097 1228 2736 
Q 959 2375 959 1747 
Q 959 1119 1226 758 
Q 1494 397 1959 397 
Q 2419 397 2687 759 
Q 2956 1122 2956 1747 
Q 2956 2369 2687 2733 
Q 2419 3097 1959 3097 
z
M 1959 3584 
Q 2709 3584 3137 3096 
Q 3566 2609 3566 1747 
Q 3566 888 3137 398 
Q 2709 -91 1959 -91 
Q 1206 -91 779 398 
Q 353 888 353 1747 
Q 353 2609 779 3096 
Q 1206 3584 1959 3584 
z
" transform="scale(0.015625)"/>
       <path id="DejaVuSans-66" d="M 2375 4863 
L 2375 4384 
L 1825 4384 
Q 1516 4384 1395 4259 
Q 1275 4134 1275 3809 
L 1275 3500 
L 2222 3500 
L 2222 3053 
L 1275 3053 
L 1275 0 
L 697 0 
L 697 3053 
L 147 3053 
L 147 3500 
L 697 3500 
L 697 3744 
Q 697 4328 969 4595 
Q 1241 4863 1831 4863 
L 2375 4863 
z
" transform="scale(0.015625)"/>
      </defs>
      <use xlink:href="#DejaVuSans-4e"/>
      <use xlink:href="#DejaVuSans-75" transform="translate(74.804688 0)"/>
      <use xlink:href="#DejaVuSans-6d" transform="translate(138.183594 0)"/>
      <use xlink:href="#DejaVuSans-62" transform="translate(235.595703 0)"/>
      <use xlink:href="#DejaVuSans-65" transform="translate(299.072266 0)"/>
      <use xlink:href="#DejaVuSans-72" transform="translate(360.595703 0)"/>
      <use xlink:href="#DejaVuSans-20" transform="translate(401.708984 0)"/>
      <use xlink:href="#DejaVuSans-6f" transform="translate(433.496094 0)"/>
      <use xlink:href="#DejaVuSans-66" transform="translate(494.677734 0)"/>
     </g>
     <!-- Particles -->
     <g transform="translate(30.546813 89.324792) rotate(-90) scale(0.1 -0.1)">
      <defs>
       <path id="DejaVuSans-50" d="M 1259 4147 
L 1259 2394 
L 2053 2394 
Q 2494 2394 2734 2622 
Q 2975 2850 2975 3272 
Q 2975 3691 2734 3919 
Q 2494 4147 2053 4147 
L 1259 4147 
z
M 628 4666 
L 2053 4666 
Q 2838 4666 3239 4311 
Q 3641 3956 3641 3272 
Q 3641 2581 3239 2228 
Q 2838 1875 2053 1875 
L 1259 1875 
L 1259 0 
L 628 0 
L 628 4666 
z
" transform="scale(0.015625)"/>
       <path id="DejaVuSans-61" d="M 2194 1759 
Q 1497 1759 1228 1600 
Q 959 1441 959 1056 
Q 959 750 1161 570 
Q 1363 391 1709 391 
Q 2188 391 2477 730 
Q 2766 1069 2766 1631 
L 2766 1759 
L 2194 1759 
z
M 3341 1997 
L 3341 0 
L 2766 0 
L 2766 531 
Q 2569 213 2275 61 
Q 1981 -91 1556 -91 
Q 1019 -91 701 211 
Q 384 513 384 1019 
Q 384 1609 779 1909 
Q 1175 2209 1959 2209 
L 2766 2209 
L 2766 2266 
Q 2766 2663 2505 2880 
Q 2244 3097 1772 3097 
Q 1472 3097 1187 3025 
Q 903 2953 641 2809 
L 641 3341 
Q 956 3463 1253 3523 
Q 1550 3584 1831 3584 
Q 2591 3584 2966 3190 
Q 3341 2797 3341 1997 
z
" transform="scale(0.015625)"/>
       <path id="DejaVuSans-74" d="M 1172 4494 
L 1172 3500 
L 2356 3500 
L 2356 3053 
L 1172 3053 
L 1172 1153 
Q 1172 725 1289 603 
Q 1406 481 1766 481 
L 2356 481 
L 2356 0 
L 1766 0 
Q 1100 0 847 248 
Q 594 497 594 1153 
L 594 3053 
L 172 3053 
L 172 3500 
L 594 3500 
L 594 4494 
L 1172 4494 
z
" transform="scale(0.015625)"/>
       <path id="DejaVuSans-69" d="M 603 3500 
L 1178 3500 
L 1178 0 
L 603 0 
L 603 3500 
z
M 603 4863 
L 1178 4863 
L 1178 4134 
L 603 4134 
L 603 4863 
z
" transform="scale(0.015625)"/>
       <path id="DejaVuSans-63" d="M 3122 3366 
L 3122 2828 
Q 2878 2963 2633 3030 
Q 2388 3097 2138 3097 
Q 1578 3097 1268 2742 
Q 959 2388 959 1747 
Q 959 1106 1268 751 
Q 1578 397 2138 397 
Q 2388 397 2633 464 
Q 2878 531 3122 666 
L 3122 134 
Q 2881 22 2623 -34 
Q 2366 -91 2075 -91 
Q 1284 -91 818 406 
Q 353 903 353 1747 
Q 353 2603 823 3093 
Q 1294 3584 2113 3584 
Q 2378 3584 2631 3529 
Q 2884 3475 3122 3366 
z
" transform="scale(0.015625)"/>
       <path id="DejaVuSans-6c" d="M 603 4863 
L 1178 4863 
L 1178 0 
L 603 0 
L 603 4863 
z
" transform="scale(0.015625)"/>
       <path id="DejaVuSans-73" d="M 2834 3397 
L 2834 2853 
Q 2591 2978 2328 3040 
Q 2066 3103 1784 3103 
Q 1356 3103 1142 2972 
Q 928 2841 928 2578 
Q 928 2378 1081 2264 
Q 1234 2150 1697 2047 
L 1894 2003 
Q 2506 1872 2764 1633 
Q 3022 1394 3022 966 
Q 3022 478 2636 193 
Q 2250 -91 1575 -91 
Q 1294 -91 989 -36 
Q 684 19 347 128 
L 347 722 
Q 666 556 975 473 
Q 1284 391 1588 391 
Q 1994 391 2212 530 
Q 2431 669 2431 922 
Q 2431 1156 2273 1281 
Q 2116 1406 1581 1522 
L 1381 1569 
Q 847 1681 609 1914 
Q 372 2147 372 2553 
Q 372 3047 722 3315 
Q 1072 3584 1716 3584 
Q 2034 3584 2315 3537 
Q 2597 3491 2834 3397 
z
" transform="scale(0.015625)"/>
      </defs>
      <use xlink:href="#DejaVuSans-50"/>
      <use xlink:href="#DejaVuSans-61" transform="translate(55.802734 0)"/>
      <use xlink:href="#DejaVuSans-72" transform="translate(117.082031 0)"/>
      <use xlink:href="#DejaVuSans-74" transform="translate(158.195312 0)"/>
      <use xlink:href="#DejaVuSans-69" transform="translate(197.404297 0)"/>
      <use xlink:href="#DejaVuSans-63" transform="translate(225.1875 0)"/>
      <use xlink:href="#DejaVuSans-6c" transform="translate(280.167969 0)"/>
      <use xlink:href="#DejaVuSans-65" transform="translate(307.951172 0)"/>
      <use xlink:href="#DejaVuSans-73" transform="translate(369.474609 0)"/>
     </g>
    </g>
   </g>
   <g id="line2d_19">
    <path d="M 114.92724 125.693333 
L 114.92724 10.8 
" clip-path="url(#p6852cf62fe)" style="fill: none; stroke-dasharray: 5.55,2.4; stroke-dashoffset: 0; stroke: #2e86ab; stroke-opacity: 0.8; stroke-width: 1.5"/>
   </g>
   <g id="patch_4">
    <path d="M 62.714 125.693333 
L 62.714 10.8 
" style="fill: none; stroke: #000000; stroke-width: 0.8; stroke-linejoin: miter; stroke-linecap: square"/>
   </g>
   <g id="patch_5">
    <path d="M 62.714 125.693333 
L 565.2 125.693333 
" style="fill: none; stroke: #000000; stroke-width: 0.8; stroke-linejoin: miter; stroke-linecap: square"/>
   </g>
   <g id="text_5">
    <g id="patch_6">
     <path d="M 89.199896 42.144312 
L 140.654583 42.144312 
Q 146.054583 42.144312 146.054583 36.744312 
L 146.054583 28.034 
Q 146.054583 22.634 140.654583 22.634 
L 89.199896 22.634 
Q 83.799896 22.634 83.799896 28.034 
L 83.799896 36.744312 
Q 83.799896 42.144312 89.199896 42.144312 
z
" style="fill: #ffffff; opacity: 0.9; stroke: #2e86ab; stroke-linejoin: miter"/>
    </g>
    <!-- mean: 0.32 -->
    <g transform="translate(89.199896 34.872594) scale(0.09 -0.09)">
     <defs>
      <path id="DejaVuSans-6e" d="M 3513 2113 
L 3513 0 
L 2938 0 
L 2938 2094 
Q 2938 2591 2744 2837 
Q 2550 3084 2163 3084 
Q 1697 3084 1428 2787 
Q 1159 2491 1159 1978 
L 1159 0 
L 581 0 
L 581 3500 
L 1159 3500 
L 1159 2956 
Q 1366 3272 1645 3428 
Q 1925 3584 2291 3584 
Q 2894 3584 3203 3211 
Q 3513 2838 3513 2113 
z
" transform="scale(0.015625)"/>
      <path id="DejaVuSans-3a" d="M 750 794 
L 1409 794 
L 1409 0 
L 750 0 
L 750 794 
z
M 750 3309 
L 1409 3309 
L 1409 2516 
L 750 2516 
L 750 3309 
z
" transform="scale(0.015625)"/>
      <path id="DejaVuSans-2e" d="M 684 794 
L 1344 794 
L 1344 0 
L 684 0 
L 684 794 
z
" transform="scale(0.015625)"/>
      <path id="DejaVuSans-33" d="M 2597 2516 
Q 3050 2419 3304 2112 
Q 3559 1806 3559 1356 
Q 3559 666 3084 287 
Q 2609 -91 1734 -91 
Q 1441 -91 1130 -33 
Q 819 25 488 141 
L 488 750 
Q 750 597 1062 519 
Q 1375 441 1716 441 
Q 2309 441 2620 675 
Q 2931 909 2931 1356 
Q 2931 1769 2642 2001 
Q 2353 2234 1838 2234 
L 1294 2234 
L 1294 2753 
L 1863 2753 
Q 2328 2753 2575 2939 
Q 2822 3125 2822 3475 
Q 2822 3834 2567 4026 
Q 2313 4219 1838 4219 
Q 1578 4219 1281 4162 
Q 984 4106 628 3988 
L 628 4550 
Q 988 4650 1302 4700 
Q 1616 4750 1894 4750 
Q 2613 4750 3031 4423 
Q 3450 4097 3450 3541 
Q 3450 3153 3228 2886 
Q 3006 2619 2597 2516 
z
" transform="scale(0.015625)"/>
     </defs>
     <use xlink:href="#DejaVuSans-6d"/>
     <use xlink:href="#DejaVuSans-65" transform="translate(97.412109 0)"/>
     <use xlink:href="#DejaVuSans-61" transform="translate(158.935547 0)"/>
     <use xlink:href="#DejaVuSans-6e" transform="translate(220.214844 0)"/>
     <use xlink:href="#DejaVuSans-3a" transform="translate(283.59375 0)"/>
     <use xlink:href="#DejaVuSans-20" transform="translate(317.285156 0)"/>
     <use xlink:href="#DejaVuSans-30" transform="translate(349.072266 0)"/>
     <use xlink:href="#DejaVuSans-2e" transform="translate(412.695312 0)"/>
     <use xlink:href="#DejaVuSans-33" transform="translate(444.482422 0)"/>
     <use xlink:href="#DejaVuSans-32" transform="translate(508.105469 0)"/>
    </g>
   </g>
   <g id="text_6">
    <g id="patch_7">
     <path d="M 506.933092 31.222792 
L 555.15028 31.222792 
Q 560.15028 31.222792 560.15028 26.222792 
L 560.15028 16.544667 
Q 560.15028 11.544667 555.15028 11.544667 
L 506.933092 11.544667 
Q 501.933092 11.544667 501.933092 16.544667 
L 501.933092 26.222792 
Q 501.933092 31.222792 506.933092 31.222792 
z
" style="fill: #ffffff; opacity: 0.8; stroke: #2e86ab; stroke-width: 1.5; stroke-linejoin: miter"/>
    </g>
    <!-- scale: 0.2 -->
    <g transform="translate(506.933092 24.143104) scale(0.1 -0.1)">
     <use xlink:href="#DejaVuSans-73"/>
     <use xlink:href="#DejaVuSans-63" transform="translate(52.099609 0)"/>
     <use xlink:href="#DejaVuSans-61" transform="translate(107.080078 0)"/>
     <use xlink:href="#DejaVuSans-6c" transform="translate(168.359375 0)"/>
     <use xlink:href="#DejaVuSans-65" transform="translate(196.142578 0)"/>
     <use xlink:href="#DejaVuSans-3a" transform="translate(257.666016 0)"/>
     <use xlink:href="#DejaVuSans-20" transform="translate(291.357422 0)"/>
     <use xlink:href="#DejaVuSans-30" transform="translate(323.144531 0)"/>
     <use xlink:href="#DejaVuSans-2e" transform="translate(386.767578 0)"/>
     <use xlink:href="#DejaVuSans-32" transform="translate(418.554688 0)"/>
    </g>
   </g>
  </g>
  <g id="axes_2">
   <g id="patch_8">
    <path d="M 62.714 257.506667 
L 565.2 257.506667 
L 565.2 142.613333 
L 62.714 142.613333 
z
" style="fill: #ffffff"/>
   </g>
   <g id="patch_9">
    <path d="M 85.554273 257.506667 
L 85.554273 256.727861 
L 94.876833 256.727861 
L 94.876833 254.391443 
L 104.199393 254.391443 
L 104.199393 246.603385 
L 113.521954 246.603385 
L 113.521954 241.541147 
L 122.844514 241.541147 
L 122.844514 236.089506 
L 132.167074 236.089506 
L 132.167074 228.69085 
L 141.489635 228.69085 
L 141.489635 224.407418 
L 150.812195 224.407418 
L 150.812195 218.955777 
L 160.134755 218.955777 
L 160.134755 217.008762 
L 169.457315 217.008762 
L 169.457315 222.071 
L 178.779876 222.071 
L 178.779876 226.354433 
L 188.102436 226.354433 
L 188.102436 225.96503 
L 197.424996 225.96503 
L 197.424996 235.700103 
L 206.747557 235.700103 
L 206.747557 236.868312 
L 216.070117 236.868312 
L 216.070117 238.815326 
L 225.392677 238.815326 
L 225.392677 245.435176 
L 234.715237 245.435176 
L 234.715237 249.718608 
L 244.037798 249.718608 
L 244.037798 250.108011 
L 253.360358 250.108011 
L 253.360358 252.055026 
L 262.682918 252.055026 
L 262.682918 255.949055 
L 272.005479 255.949055 
L 272.005479 256.727861 
L 281.328039 256.727861 
L 281.328039 257.506667 
L 290.650599 257.506667 
L 290.650599 257.506667 
L 299.97316 257.506667 
L 299.97316 256.727861 
L 309.29572 256.727861 
L 309.29572 257.117264 
L 318.61828 257.117264 
L 318.61828 257.506667 
L 327.94084 257.506667 
L 327.94084 257.117264 
L 337.263401 257.117264 
L 337.263401 257.506667 
L 346.585961 257.506667 
L 346.585961 257.506667 
L 355.908521 257.506667 
L 355.908521 257.117264 
L 365.231082 257.117264 
L 365.231082 257.506667 
L 374.553642 257.506667 
L 374.553642 257.506667 
L 383.876202 257.506667 
L 383.876202 257.506667 
L 393.198763 257.506667 
L 393.198763 257.506667 
L 402.521323 257.506667 
L 402.521323 257.506667 
L 411.843883 257.506667 
L 411.843883 257.506667 
L 421.166443 257.506667 
L 421.166443 257.506667 
L 430.489004 257.506667 
L 430.489004 257.506667 
L 439.811564 257.506667 
L 439.811564 257.506667 
L 449.134124 257.506667 
L 449.134124 257.506667 
L 458.456685 257.506667 
L 458.456685 257.506667 
L 467.779245 257.506667 
L 467.779245 257.506667 
L 477.101805 257.506667 
L 477.101805 257.506667 
L 486.424365 257.506667 
L 486.424365 257.506667 
L 495.746926 257.506667 
L 495.746926 257.506667 
L 505.069486 257.506667 
L 505.069486 257.506667 
L 514.392046 257.506667 
L 514.392046 257.506667 
L 523.714607 257.506667 
L 523.714607 257.506667 
L 533.037167 257.506667 
L 533.037167 257.506667 
L 542.359727 257.506667 
L 542.359727 257.506667 
L 533.037167 257.506667 
L 533.037167 257.506667 
L 523.714607 257.506667 
L 523.714607 257.506667 
L 514.392046 257.506667 
L 514.392046 257.506667 
L 505.069486 257.506667 
L 505.069486 257.506667 
L 495.746926 257.506667 
L 495.746926 257.506667 
L 486.424365 257.506667 
L 486.424365 257.506667 
L 477.101805 257.506667 
L 477.101805 257.506667 
L 467.779245 257.506667 
L 467.779245 257.506667 
L 458.456685 257.506667 
L 458.456685 257.506667 
L 449.134124 257.506667 
L 449.134124 257.506667 
L 439.811564 257.506667 
L 439.811564 257.506667 
L 430.489004 257.506667 
L 430.489004 257.506667 
L 421.166443 257.506667 
L 421.166443 257.506667 
L 411.843883 257.506667 
L 411.843883 257.506667 
L 402.521323 257.506667 
L 402.521323 257.506667 
L 393.198763 257.506667 
L 393.198763 257.506667 
L 383.876202 257.506667 
L 383.876202 257.506667 
L 374.553642 257.506667 
L 374.553642 257.506667 
L 365.231082 257.506667 
L 365.231082 257.506667 
L 355.908521 257.506667 
L 355.908521 257.506667 
L 346.585961 257.506667 
L 346.585961 257.506667 
L 337.263401 257.506667 
L 337.263401 257.506667 
L 327.94084 257.506667 
L 327.94084 257.506667 
L 318.61828 257.506667 
L 318.61828 257.506667 
L 309.29572 257.506667 
L 309.29572 257.506667 
L 299.97316 257.506667 
L 299.97316 257.506667 
L 290.650599 257.506667 
L 290.650599 257.506667 
L 281.328039 257.506667 
L 281.328039 257.506667 
L 272.005479 257.506667 
L 272.005479 257.506667 
L 262.682918 257.506667 
L 262.682918 257.506667 
L 253.360358 257.506667 
L 253.360358 257.506667 
L 244.037798 257.506667 
L 244.037798 257.506667 
L 234.715237 257.506667 
L 234.715237 257.506667 
L 225.392677 257.506667 
L 225.392677 257.506667 
L 216.070117 257.506667 
L 216.070117 257.506667 
L 206.747557 257.506667 
L 206.747557 257.506667 
L 197.424996 257.506667 
L 197.424996 257.506667 
L 188.102436 257.506667 
L 188.102436 257.506667 
L 178.779876 257.506667 
L 178.779876 257.506667 
L 169.457315 257.506667 
L 169.457315 257.506667 
L 160.134755 257.506667 
L 160.134755 257.506667 
L 150.812195 257.506667 
L 150.812195 257.506667 
L 141.489635 257.506667 
L 141.489635 257.506667 
L 132.167074 257.506667 
L 132.167074 257.506667 
L 122.844514 257.506667 
L 122.844514 257.506667 
L 113.521954 257.506667 
L 113.521954 257.506667 
L 104.199393 257.506667 
L 104.199393 257.506667 
L 94.876833 257.506667 
L 94.876833 257.506667 
z
" clip-path="url(#p69c17b7b7d)" style="fill: #a23b72; opacity: 0.3; stroke: #a23b72; stroke-width: 1.5; stroke-linejoin: miter"/>
   </g>
   <g id="matplotlib.axis_3">
    <g id="xtick_7">
     <g id="line2d_20">
      <path d="M 85.554273 257.506667 
L 85.554273 142.613333 
" clip-path="url(#p69c17b7b7d)" style="fill: none; stroke: #b0b0b0; stroke-opacity: 0; stroke-width: 0.8; stroke-linecap: square"/>
     </g>
     <g id="line2d_21">
      <g>
       <use xlink:href="#m12aeeaea65" x="85.554273" y="257.506667" style="stroke: #000000; stroke-width: 0.8"/>
      </g>
     </g>
    </g>
    <g id="xtick_8">
     <g id="line2d_22">
      <path d="M 178.779876 257.506667 
L 178.779876 142.613333 
" clip-path="url(#p69c17b7b7d)" style="fill: none; stroke: #b0b0b0; stroke-opacity: 0; stroke-width: 0.8; stroke-linecap: square"/>
     </g>
     <g id="line2d_23">
      <g>
       <use xlink:href="#m12aeeaea65" x="178.779876" y="257.506667" style="stroke: #000000; stroke-width: 0.8"/>
      </g>
     </g>
    </g>
    <g id="xtick_9">
     <g id="line2d_24">
      <path d="M 272.005479 257.506667 
L 272.005479 142.613333 
" clip-path="url(#p69c17b7b7d)" style="fill: none; stroke: #b0b0b0; stroke-opacity: 0; stroke-width: 0.8; stroke-linecap: square"/>
     </g>
     <g id="line2d_25">
      <g>
       <use xlink:href="#m12aeeaea65" x="272.005479" y="257.506667" style="stroke: #000000; stroke-width: 0.8"/>
      </g>
     </g>
    </g>
    <g id="xtick_10">
     <g id="line2d_26">
      <path d="M 365.231082 257.506667 
L 365.231082 142.613333 
" clip-path="url(#p69c17b7b7d)" style="fill: none; stroke: #b0b0b0; stroke-opacity: 0; stroke-width: 0.8; stroke-linecap: square"/>
     </g>
     <g id="line2d_27">
      <g>
       <use xlink:href="#m12aeeaea65" x="365.231082" y="257.506667" style="stroke: #000000; stroke-width: 0.8"/>
      </g>
     </g>
    </g>
    <g id="xtick_11">
     <g id="line2d_28">
      <path d="M 458.456685 257.506667 
L 458.456685 142.613333 
" clip-path="url(#p69c17b7b7d)" style="fill: none; stroke: #b0b0b0; stroke-opacity: 0; stroke-width: 0.8; stroke-linecap: square"/>
     </g>
     <g id="line2d_29">
      <g>
       <use xlink:href="#m12aeeaea65" x="458.456685" y="257.506667" style="stroke: #000000; stroke-width: 0.8"/>
      </g>
     </g>
    </g>
    <g id="xtick_12">
     <g id="line2d_30">
      <path d="M 551.682288 257.506667 
L 551.682288 142.613333 
" clip-path="url(#p69c17b7b7d)" style="fill: none; stroke: #b0b0b0; stroke-opacity: 0; stroke-width: 0.8; stroke-linecap: square"/>
     </g>
     <g id="line2d_31">
      <g>
       <use xlink:href="#m12aeeaea65" x="551.682288" y="257.506667" style="stroke: #000000; stroke-width: 0.8"/>
      </g>
     </g>
    </g>
   </g>
   <g id="matplotlib.axis_4">
    <g id="ytick_4">
     <g id="line2d_32">
      <path d="M 62.714 257.506667 
L 565.2 257.506667 
" clip-path="url(#p69c17b7b7d)" style="fill: none; stroke: #b0b0b0; stroke-opacity: 0.3; stroke-width: 0.5; stroke-linecap: square"/>
     </g>
     <g id="line2d_33">
      <g>
       <use xlink:href="#md3e79db62c" x="62.714" y="257.506667" style="stroke: #000000; stroke-width: 0.8"/>
      </g>
     </g>
     <g id="text_7">
      <!-- 0 -->
      <g transform="translate(49.3515 261.305885) scale(0.1 -0.1)">
       <use xlink:href="#DejaVuSans-30"/>
      </g>
     </g>
    </g>
    <g id="ytick_5">
     <g id="line2d_34">
      <path d="M 62.714 218.566374 
L 565.2 218.566374 
" clip-path="url(#p69c17b7b7d)" style="fill: none; stroke: #b0b0b0; stroke-opacity: 0.3; stroke-width: 0.5; stroke-linecap: square"/>
     </g>
     <g id="line2d_35">
      <g>
       <use xlink:href="#md3e79db62c" x="62.714" y="218.566374" style="stroke: #000000; stroke-width: 0.8"/>
      </g>
     </g>
     <g id="text_8">
      <!-- 100 -->
      <g transform="translate(36.6265 222.365593) scale(0.1 -0.1)">
       <use xlink:href="#DejaVuSans-31"/>
       <use xlink:href="#DejaVuSans-30" transform="translate(63.623047 0)"/>
       <use xlink:href="#DejaVuSans-30" transform="translate(127.246094 0)"/>
      </g>
     </g>
    </g>
    <g id="ytick_6">
     <g id="line2d_36">
      <path d="M 62.714 179.626081 
L 565.2 179.626081 
" clip-path="url(#p69c17b7b7d)" style="fill: none; stroke: #b0b0b0; stroke-opacity: 0.3; stroke-width: 0.5; stroke-linecap: square"/>
     </g>
     <g id="line2d_37">
      <g>
       <use xlink:href="#md3e79db62c" x="62.714" y="179.626081" style="stroke: #000000; stroke-width: 0.8"/>
      </g>
     </g>
     <g id="text_9">
      <!-- 200 -->
      <g transform="translate(36.6265 183.4253) scale(0.1 -0.1)">
       <use xlink:href="#DejaVuSans-32"/>
       <use xlink:href="#DejaVuSans-30" transform="translate(63.623047 0)"/>
       <use xlink:href="#DejaVuSans-30" transform="translate(127.246094 0)"/>
      </g>
     </g>
    </g>
    <g id="text_10">
     <!-- Number of -->
     <g transform="translate(19.349 226.554531) rotate(-90) scale(0.1 -0.1)">
      <use xlink:href="#DejaVuSans-4e"/>
      <use xlink:href="#DejaVuSans-75" transform="translate(74.804688 0)"/>
      <use xlink:href="#DejaVuSans-6d" transform="translate(138.183594 0)"/>
      <use xlink:href="#DejaVuSans-62" transform="translate(235.595703 0)"/>
      <use xlink:href="#DejaVuSans-65" transform="translate(299.072266 0)"/>
      <use xlink:href="#DejaVuSans-72" transform="translate(360.595703 0)"/>
      <use xlink:href="#DejaVuSans-20" transform="translate(401.708984 0)"/>
      <use xlink:href="#DejaVuSans-6f" transform="translate(433.496094 0)"/>
      <use xlink:href="#DejaVuSans-66" transform="translate(494.677734 0)"/>
     </g>
     <!-- Particles -->
     <g transform="translate(30.546813 221.138125) rotate(-90) scale(0.1 -0.1)">
      <use xlink:href="#DejaVuSans-50"/>
      <use xlink:href="#DejaVuSans-61" transform="translate(55.802734 0)"/>
      <use xlink:href="#DejaVuSans-72" transform="translate(117.082031 0)"/>
      <use xlink:href="#DejaVuSans-74" transform="translate(158.195312 0)"/>
      <use xlink:href="#DejaVuSans-69" transform="translate(197.404297 0)"/>
      <use xlink:href="#DejaVuSans-63" transform="translate(225.1875 0)"/>
      <use xlink:href="#DejaVuSans-6c" transform="translate(280.167969 0)"/>
      <use xlink:href="#DejaVuSans-65" transform="translate(307.951172 0)"/>
      <use xlink:href="#DejaVuSans-73" transform="translate(369.474609 0)"/>
     </g>
    </g>
   </g>
   <g id="line2d_38">
    <path d="M 173.720705 257.506667 
L 173.720705 142.613333 
" clip-path="url(#p69c17b7b7d)" style="fill: none; stroke-dasharray: 5.55,2.4; stroke-dashoffset: 0; stroke: #a23b72; stroke-opacity: 0.8; stroke-width: 1.5"/>
   </g>
   <g id="patch_10">
    <path d="M 62.714 257.506667 
L 62.714 142.613333 
" style="fill: none; stroke: #000000; stroke-width: 0.8; stroke-linejoin: miter; stroke-linecap: square"/>
   </g>
   <g id="patch_11">
    <path d="M 62.714 257.506667 
L 565.2 257.506667 
" style="fill: none; stroke: #000000; stroke-width: 0.8; stroke-linejoin: miter; stroke-linecap: square"/>
   </g>
   <g id="text_11">
    <g id="patch_12">
     <path d="M 147.993361 173.957646 
L 199.448049 173.957646 
Q 204.848049 173.957646 204.848049 168.557646 
L 204.848049 159.847333 
Q 204.848049 154.447333 199.448049 154.447333 
L 147.993361 154.447333 
Q 142.593361 154.447333 142.593361 159.847333 
L 142.593361 168.557646 
Q 142.593361 173.957646 147.993361 173.957646 
z
" style="fill: #ffffff; opacity: 0.9; stroke: #a23b72; stroke-linejoin: miter"/>
    </g>
    <!-- mean: 0.95 -->
    <g transform="translate(147.993361 166.685927) scale(0.09 -0.09)">
     <defs>
      <path id="DejaVuSans-39" d="M 703 97 
L 703 672 
Q 941 559 1184 500 
Q 1428 441 1663 441 
Q 2288 441 2617 861 
Q 2947 1281 2994 2138 
Q 2813 1869 2534 1725 
Q 2256 1581 1919 1581 
Q 1219 1581 811 2004 
Q 403 2428 403 3163 
Q 403 3881 828 4315 
Q 1253 4750 1959 4750 
Q 2769 4750 3195 4129 
Q 3622 3509 3622 2328 
Q 3622 1225 3098 567 
Q 2575 -91 1691 -91 
Q 1453 -91 1209 -44 
Q 966 3 703 97 
z
M 1959 2075 
Q 2384 2075 2632 2365 
Q 2881 2656 2881 3163 
Q 2881 3666 2632 3958 
Q 2384 4250 1959 4250 
Q 1534 4250 1286 3958 
Q 1038 3666 1038 3163 
Q 1038 2656 1286 2365 
Q 1534 2075 1959 2075 
z
" transform="scale(0.015625)"/>
      <path id="DejaVuSans-35" d="M 691 4666 
L 3169 4666 
L 3169 4134 
L 1269 4134 
L 1269 2991 
Q 1406 3038 1543 3061 
Q 1681 3084 1819 3084 
Q 2600 3084 3056 2656 
Q 3513 2228 3513 1497 
Q 3513 744 3044 326 
Q 2575 -91 1722 -91 
Q 1428 -91 1123 -41 
Q 819 9 494 109 
L 494 744 
Q 775 591 1075 516 
Q 1375 441 1709 441 
Q 2250 441 2565 725 
Q 2881 1009 2881 1497 
Q 2881 1984 2565 2268 
Q 2250 2553 1709 2553 
Q 1456 2553 1204 2497 
Q 953 2441 691 2322 
L 691 4666 
z
" transform="scale(0.015625)"/>
     </defs>
     <use xlink:href="#DejaVuSans-6d"/>
     <use xlink:href="#DejaVuSans-65" transform="translate(97.412109 0)"/>
     <use xlink:href="#DejaVuSans-61" transform="translate(158.935547 0)"/>
     <use xlink:href="#DejaVuSans-6e" transform="translate(220.214844 0)"/>
     <use xlink:href="#DejaVuSans-3a" transform="translate(283.59375 0)"/>
     <use xlink:href="#DejaVuSans-20" transform="translate(317.285156 0)"/>
     <use xlink:href="#DejaVuSans-30" transform="translate(349.072266 0)"/>
     <use xlink:href="#DejaVuSans-2e" transform="translate(412.695312 0)"/>
     <use xlink:href="#DejaVuSans-39" transform="translate(444.482422 0)"/>
     <use xlink:href="#DejaVuSans-35" transform="translate(508.105469 0)"/>
    </g>
   </g>
   <g id="text_12">
    <g id="patch_13">
     <path d="M 506.933092 163.036125 
L 555.15028 163.036125 
Q 560.15028 163.036125 560.15028 158.036125 
L 560.15028 148.358 
Q 560.15028 143.358 555.15028 143.358 
L 506.933092 143.358 
Q 501.933092 143.358 501.933092 148.358 
L 501.933092 158.036125 
Q 501.933092 163.036125 506.933092 163.036125 
z
" style="fill: #ffffff; opacity: 0.8; stroke: #a23b72; stroke-width: 1.5; stroke-linejoin: miter"/>
    </g>
    <!-- scale: 0.6 -->
    <g transform="translate(506.933092 155.956437) scale(0.1 -0.1)">
     <defs>
      <path id="DejaVuSans-36" d="M 2113 2584 
Q 1688 2584 1439 2293 
Q 1191 2003 1191 1497 
Q 1191 994 1439 701 
Q 1688 409 2113 409 
Q 2538 409 2786 701 
Q 3034 994 3034 1497 
Q 3034 2003 2786 2293 
Q 2538 2584 2113 2584 
z
M 3366 4563 
L 3366 3988 
Q 3128 4100 2886 4159 
Q 2644 4219 2406 4219 
Q 1781 4219 1451 3797 
Q 1122 3375 1075 2522 
Q 1259 2794 1537 2939 
Q 1816 3084 2150 3084 
Q 2853 3084 3261 2657 
Q 3669 2231 3669 1497 
Q 3669 778 3244 343 
Q 2819 -91 2113 -91 
Q 1303 -91 875 529 
Q 447 1150 447 2328 
Q 447 3434 972 4092 
Q 1497 4750 2381 4750 
Q 2619 4750 2861 4703 
Q 3103 4656 3366 4563 
z
" transform="scale(0.015625)"/>
     </defs>
     <use xlink:href="#DejaVuSans-73"/>
     <use xlink:href="#DejaVuSans-63" transform="translate(52.099609 0)"/>
     <use xlink:href="#DejaVuSans-61" transform="translate(107.080078 0)"/>
     <use xlink:href="#DejaVuSans-6c" transform="translate(168.359375 0)"/>
     <use xlink:href="#DejaVuSans-65" transform="translate(196.142578 0)"/>
     <use xlink:href="#DejaVuSans-3a" transform="translate(257.666016 0)"/>
     <use xlink:href="#DejaVuSans-20" transform="translate(291.357422 0)"/>
     <use xlink:href="#DejaVuSans-30" transform="translate(323.144531 0)"/>
     <use xlink:href="#DejaVuSans-2e" transform="translate(386.767578 0)"/>
     <use xlink:href="#DejaVuSans-36" transform="translate(418.554688 0)"/>
    </g>
   </g>
  </g>
  <g id="axes_3">
   <g id="patch_14">
    <path d="M 62.714 389.32 
L 565.2 389.32 
L 565.2 274.426667 
L 62.714 274.426667 
z
" style="fill: #ffffff"/>
   </g>
   <g id="patch_15">
    <path d="M 85.554273 389.32 
L 85.554273 389.32 
L 94.876833 389.32 
L 94.876833 389.32 
L 104.199393 389.32 
L 104.199393 387.762388 
L 113.521954 387.762388 
L 113.521954 386.983582 
L 122.844514 386.983582 
L 122.844514 382.310747 
L 132.167074 382.310747 
L 132.167074 382.70015 
L 141.489635 382.70015 
L 141.489635 381.142539 
L 150.812195 381.142539 
L 150.812195 376.469703 
L 160.134755 376.469703 
L 160.134755 374.133286 
L 169.457315 374.133286 
L 169.457315 373.35448 
L 178.779876 373.35448 
L 178.779876 362.451198 
L 188.102436 362.451198 
L 188.102436 366.73463 
L 197.424996 366.73463 
L 197.424996 367.513436 
L 206.747557 367.513436 
L 206.747557 364.00881 
L 216.070117 364.00881 
L 216.070117 361.672392 
L 225.392677 361.672392 
L 225.392677 369.460451 
L 234.715237 369.460451 
L 234.715237 367.902839 
L 244.037798 367.902839 
L 244.037798 370.239257 
L 253.360358 370.239257 
L 253.360358 375.301495 
L 262.682918 375.301495 
L 262.682918 372.575674 
L 272.005479 372.575674 
L 272.005479 378.416718 
L 281.328039 378.416718 
L 281.328039 371.018062 
L 290.650599 371.018062 
L 290.650599 376.859106 
L 299.97316 376.859106 
L 299.97316 379.195524 
L 309.29572 379.195524 
L 309.29572 381.531941 
L 318.61828 381.531941 
L 318.61828 382.310747 
L 327.94084 382.310747 
L 327.94084 381.531941 
L 337.263401 381.531941 
L 337.263401 384.647165 
L 346.585961 384.647165 
L 346.585961 384.257762 
L 355.908521 384.257762 
L 355.908521 384.257762 
L 365.231082 384.257762 
L 365.231082 387.372985 
L 374.553642 387.372985 
L 374.553642 386.983582 
L 383.876202 386.983582 
L 383.876202 383.868359 
L 393.198763 383.868359 
L 393.198763 387.762388 
L 402.521323 387.762388 
L 402.521323 387.762388 
L 411.843883 387.762388 
L 411.843883 387.762388 
L 421.166443 387.762388 
L 421.166443 388.930597 
L 430.489004 388.930597 
L 430.489004 389.32 
L 439.811564 389.32 
L 439.811564 388.930597 
L 449.134124 388.930597 
L 449.134124 389.32 
L 458.456685 389.32 
L 458.456685 389.32 
L 467.779245 389.32 
L 467.779245 389.32 
L 477.101805 389.32 
L 477.101805 389.32 
L 486.424365 389.32 
L 486.424365 389.32 
L 495.746926 389.32 
L 495.746926 389.32 
L 505.069486 389.32 
L 505.069486 389.32 
L 514.392046 389.32 
L 514.392046 389.32 
L 523.714607 389.32 
L 523.714607 389.32 
L 533.037167 389.32 
L 533.037167 389.32 
L 542.359727 389.32 
L 542.359727 389.32 
L 533.037167 389.32 
L 533.037167 389.32 
L 523.714607 389.32 
L 523.714607 389.32 
L 514.392046 389.32 
L 514.392046 389.32 
L 505.069486 389.32 
L 505.069486 389.32 
L 495.746926 389.32 
L 495.746926 389.32 
L 486.424365 389.32 
L 486.424365 389.32 
L 477.101805 389.32 
L 477.101805 389.32 
L 467.779245 389.32 
L 467.779245 389.32 
L 458.456685 389.32 
L 458.456685 389.32 
L 449.134124 389.32 
L 449.134124 389.32 
L 439.811564 389.32 
L 439.811564 389.32 
L 430.489004 389.32 
L 430.489004 389.32 
L 421.166443 389.32 
L 421.166443 389.32 
L 411.843883 389.32 
L 411.843883 389.32 
L 402.521323 389.32 
L 402.521323 389.32 
L 393.198763 389.32 
L 393.198763 389.32 
L 383.876202 389.32 
L 383.876202 389.32 
L 374.553642 389.32 
L 374.553642 389.32 
L 365.231082 389.32 
L 365.231082 389.32 
L 355.908521 389.32 
L 355.908521 389.32 
L 346.585961 389.32 
L 346.585961 389.32 
L 337.263401 389.32 
L 337.263401 389.32 
L 327.94084 389.32 
L 327.94084 389.32 
L 318.61828 389.32 
L 318.61828 389.32 
L 309.29572 389.32 
L 309.29572 389.32 
L 299.97316 389.32 
L 299.97316 389.32 
L 290.650599 389.32 
L 290.650599 389.32 
L 281.328039 389.32 
L 281.328039 389.32 
L 272.005479 389.32 
L 272.005479 389.32 
L 262.682918 389.32 
L 262.682918 389.32 
L 253.360358 389.32 
L 253.360358 389.32 
L 244.037798 389.32 
L 244.037798 389.32 
L 234.715237 389.32 
L 234.715237 389.32 
L 225.392677 389.32 
L 225.392677 389.32 
L 216.070117 389.32 
L 216.070117 389.32 
L 206.747557 389.32 
L 206.747557 389.32 
L 197.424996 389.32 
L 197.424996 389.32 
L 188.102436 389.32 
L 188.102436 389.32 
L 178.779876 389.32 
L 178.779876 389.32 
L 169.457315 389.32 
L 169.457315 389.32 
L 160.134755 389.32 
L 160.134755 389.32 
L 150.812195 389.32 
L 150.812195 389.32 
L 141.489635 389.32 
L 141.489635 389.32 
L 132.167074 389.32 
L 132.167074 389.32 
L 122.844514 389.32 
L 122.844514 389.32 
L 113.521954 389.32 
L 113.521954 389.32 
L 104.199393 389.32 
L 104.199393 389.32 
L 94.876833 389.32 
L 94.876833 389.32 
z
" clip-path="url(#pf48012cbe9)" style="fill: #f18f01; opacity: 0.3; stroke: #f18f01; stroke-width: 1.5; stroke-linejoin: miter"/>
   </g>
   <g id="matplotlib.axis_5">
    <g id="xtick_13">
     <g id="line2d_39">
      <path d="M 85.554273 389.32 
L 85.554273 274.426667 
" clip-path="url(#pf48012cbe9)" style="fill: none; stroke: #b0b0b0; stroke-opacity: 0; stroke-width: 0.8; stroke-linecap: square"/>
     </g>
     <g id="line2d_40">
      <g>
       <use xlink:href="#m12aeeaea65" x="85.554273" y="389.32" style="stroke: #000000; stroke-width: 0.8"/>
      </g>
     </g>
     <g id="text_13">
      <!-- 0 -->
      <g transform="translate(82.373023 403.918437) scale(0.1 -0.1)">
       <use xlink:href="#DejaVuSans-30"/>
      </g>
     </g>
    </g>
    <g id="xtick_14">
     <g id="line2d_41">
      <path d="M 178.779876 389.32 
L 178.779876 274.426667 
" clip-path="url(#pf48012cbe9)" style="fill: none; stroke: #b0b0b0; stroke-opacity: 0; stroke-width: 0.8; stroke-linecap: square"/>
     </g>
     <g id="line2d_42">
      <g>
       <use xlink:href="#m12aeeaea65" x="178.779876" y="389.32" style="stroke: #000000; stroke-width: 0.8"/>
      </g>
     </g>
     <g id="text_14">
      <!-- 1 -->
      <g transform="translate(175.598626 403.918437) scale(0.1 -0.1)">
       <use xlink:href="#DejaVuSans-31"/>
      </g>
     </g>
    </g>
    <g id="xtick_15">
     <g id="line2d_43">
      <path d="M 272.005479 389.32 
L 272.005479 274.426667 
" clip-path="url(#pf48012cbe9)" style="fill: none; stroke: #b0b0b0; stroke-opacity: 0; stroke-width: 0.8; stroke-linecap: square"/>
     </g>
     <g id="line2d_44">
      <g>
       <use xlink:href="#m12aeeaea65" x="272.005479" y="389.32" style="stroke: #000000; stroke-width: 0.8"/>
      </g>
     </g>
     <g id="text_15">
      <!-- 2 -->
      <g transform="translate(268.824229 403.918437) scale(0.1 -0.1)">
       <use xlink:href="#DejaVuSans-32"/>
      </g>
     </g>
    </g>
    <g id="xtick_16">
     <g id="line2d_45">
      <path d="M 365.231082 389.32 
L 365.231082 274.426667 
" clip-path="url(#pf48012cbe9)" style="fill: none; stroke: #b0b0b0; stroke-opacity: 0; stroke-width: 0.8; stroke-linecap: square"/>
     </g>
     <g id="line2d_46">
      <g>
       <use xlink:href="#m12aeeaea65" x="365.231082" y="389.32" style="stroke: #000000; stroke-width: 0.8"/>
      </g>
     </g>
     <g id="text_16">
      <!-- 3 -->
      <g transform="translate(362.049832 403.918437) scale(0.1 -0.1)">
       <use xlink:href="#DejaVuSans-33"/>
      </g>
     </g>
    </g>
    <g id="xtick_17">
     <g id="line2d_47">
      <path d="M 458.456685 389.32 
L 458.456685 274.426667 
" clip-path="url(#pf48012cbe9)" style="fill: none; stroke: #b0b0b0; stroke-opacity: 0; stroke-width: 0.8; stroke-linecap: square"/>
     </g>
     <g id="line2d_48">
      <g>
       <use xlink:href="#m12aeeaea65" x="458.456685" y="389.32" style="stroke: #000000; stroke-width: 0.8"/>
      </g>
     </g>
     <g id="text_17">
      <!-- 4 -->
      <g transform="translate(455.275435 403.918437) scale(0.1 -0.1)">
       <defs>
        <path id="DejaVuSans-34" d="M 2419 4116 
L 825 1625 
L 2419 1625 
L 2419 4116 
z
M 2253 4666 
L 3047 4666 
L 3047 1625 
L 3713 1625 
L 3713 1100 
L 3047 1100 
L 3047 0 
L 2419 0 
L 2419 1100 
L 313 1100 
L 313 1709 
L 2253 4666 
z
" transform="scale(0.015625)"/>
       </defs>
       <use xlink:href="#DejaVuSans-34"/>
      </g>
     </g>
    </g>
    <g id="xtick_18">
     <g id="line2d_49">
      <path d="M 551.682288 389.32 
L 551.682288 274.426667 
" clip-path="url(#pf48012cbe9)" style="fill: none; stroke: #b0b0b0; stroke-opacity: 0; stroke-width: 0.8; stroke-linecap: square"/>
     </g>
     <g id="line2d_50">
      <g>
       <use xlink:href="#m12aeeaea65" x="551.682288" y="389.32" style="stroke: #000000; stroke-width: 0.8"/>
      </g>
     </g>
     <g id="text_18">
      <!-- 5 -->
      <g transform="translate(548.501038 403.918437) scale(0.1 -0.1)">
       <use xlink:href="#DejaVuSans-35"/>
      </g>
     </g>
    </g>
    <g id="text_19">
     <!-- Particle Velocity (Maxwell Distribution) -->
     <g transform="translate(208.128406 418.356406) scale(0.11 -0.11)">
      <defs>
       <path id="DejaVuSans-56" d="M 1831 0 
L 50 4666 
L 709 4666 
L 2188 738 
L 3669 4666 
L 4325 4666 
L 2547 0 
L 1831 0 
z
" transform="scale(0.015625)"/>
       <path id="DejaVuSans-79" d="M 2059 -325 
Q 1816 -950 1584 -1140 
Q 1353 -1331 966 -1331 
L 506 -1331 
L 506 -850 
L 844 -850 
Q 1081 -850 1212 -737 
Q 1344 -625 1503 -206 
L 1606 56 
L 191 3500 
L 800 3500 
L 1894 763 
L 2988 3500 
L 3597 3500 
L 2059 -325 
z
" transform="scale(0.015625)"/>
       <path id="DejaVuSans-28" d="M 1984 4856 
Q 1566 4138 1362 3434 
Q 1159 2731 1159 2009 
Q 1159 1288 1364 580 
Q 1569 -128 1984 -844 
L 1484 -844 
Q 1016 -109 783 600 
Q 550 1309 550 2009 
Q 550 2706 781 3412 
Q 1013 4119 1484 4856 
L 1984 4856 
z
" transform="scale(0.015625)"/>
       <path id="DejaVuSans-4d" d="M 628 4666 
L 1569 4666 
L 2759 1491 
L 3956 4666 
L 4897 4666 
L 4897 0 
L 4281 0 
L 4281 4097 
L 3078 897 
L 2444 897 
L 1241 4097 
L 1241 0 
L 628 0 
L 628 4666 
z
" transform="scale(0.015625)"/>
       <path id="DejaVuSans-78" d="M 3513 3500 
L 2247 1797 
L 3578 0 
L 2900 0 
L 1881 1375 
L 863 0 
L 184 0 
L 1544 1831 
L 300 3500 
L 978 3500 
L 1906 2253 
L 2834 3500 
L 3513 3500 
z
" transform="scale(0.015625)"/>
       <path id="DejaVuSans-77" d="M 269 3500 
L 844 3500 
L 1563 769 
L 2278 3500 
L 2956 3500 
L 3675 769 
L 4391 3500 
L 4966 3500 
L 4050 0 
L 3372 0 
L 2619 2869 
L 1863 0 
L 1184 0 
L 269 3500 
z
" transform="scale(0.015625)"/>
       <path id="DejaVuSans-44" d="M 1259 4147 
L 1259 519 
L 2022 519 
Q 2988 519 3436 956 
Q 3884 1394 3884 2338 
Q 3884 3275 3436 3711 
Q 2988 4147 2022 4147 
L 1259 4147 
z
M 628 4666 
L 1925 4666 
Q 3281 4666 3915 4102 
Q 4550 3538 4550 2338 
Q 4550 1131 3912 565 
Q 3275 0 1925 0 
L 628 0 
L 628 4666 
z
" transform="scale(0.015625)"/>
       <path id="DejaVuSans-29" d="M 513 4856 
L 1013 4856 
Q 1481 4119 1714 3412 
Q 1947 2706 1947 2009 
Q 1947 1309 1714 600 
Q 1481 -109 1013 -844 
L 513 -844 
Q 928 -128 1133 580 
Q 1338 1288 1338 2009 
Q 1338 2731 1133 3434 
Q 928 4138 513 4856 
z
" transform="scale(0.015625)"/>
      </defs>
      <use xlink:href="#DejaVuSans-50"/>
      <use xlink:href="#DejaVuSans-61" transform="translate(55.802734 0)"/>
      <use xlink:href="#DejaVuSans-72" transform="translate(117.082031 0)"/>
      <use xlink:href="#DejaVuSans-74" transform="translate(158.195312 0)"/>
      <use xlink:href="#DejaVuSans-69" transform="translate(197.404297 0)"/>
      <use xlink:href="#DejaVuSans-63" transform="translate(225.1875 0)"/>
      <use xlink:href="#DejaVuSans-6c" transform="translate(280.167969 0)"/>
      <use xlink:href="#DejaVuSans-65" transform="translate(307.951172 0)"/>
      <use xlink:href="#DejaVuSans-20" transform="translate(369.474609 0)"/>
      <use xlink:href="#DejaVuSans-56" transform="translate(401.261719 0)"/>
      <use xlink:href="#DejaVuSans-65" transform="translate(461.919922 0)"/>
      <use xlink:href="#DejaVuSans-6c" transform="translate(523.443359 0)"/>
      <use xlink:href="#DejaVuSans-6f" transform="translate(551.226562 0)"/>
      <use xlink:href="#DejaVuSans-63" transform="translate(612.408203 0)"/>
      <use xlink:href="#DejaVuSans-69" transform="translate(667.388672 0)"/>
      <use xlink:href="#DejaVuSans-74" transform="translate(695.171875 0)"/>
      <use xlink:href="#DejaVuSans-79" transform="translate(734.380859 0)"/>
      <use xlink:href="#DejaVuSans-20" transform="translate(793.560547 0)"/>
      <use xlink:href="#DejaVuSans-28" transform="translate(825.347656 0)"/>
      <use xlink:href="#DejaVuSans-4d" transform="translate(864.361328 0)"/>
      <use xlink:href="#DejaVuSans-61" transform="translate(950.640625 0)"/>
      <use xlink:href="#DejaVuSans-78" transform="translate(1011.919922 0)"/>
      <use xlink:href="#DejaVuSans-77" transform="translate(1071.099609 0)"/>
      <use xlink:href="#DejaVuSans-65" transform="translate(1152.886719 0)"/>
      <use xlink:href="#DejaVuSans-6c" transform="translate(1214.410156 0)"/>
      <use xlink:href="#DejaVuSans-6c" transform="translate(1242.193359 0)"/>
      <use xlink:href="#DejaVuSans-20" transform="translate(1269.976562 0)"/>
      <use xlink:href="#DejaVuSans-44" transform="translate(1301.763672 0)"/>
      <use xlink:href="#DejaVuSans-69" transform="translate(1378.765625 0)"/>
      <use xlink:href="#DejaVuSans-73" transform="translate(1406.548828 0)"/>
      <use xlink:href="#DejaVuSans-74" transform="translate(1458.648438 0)"/>
      <use xlink:href="#DejaVuSans-72" transform="translate(1497.857422 0)"/>
      <use xlink:href="#DejaVuSans-69" transform="translate(1538.970703 0)"/>
      <use xlink:href="#DejaVuSans-62" transform="translate(1566.753906 0)"/>
      <use xlink:href="#DejaVuSans-75" transform="translate(1630.230469 0)"/>
      <use xlink:href="#DejaVuSans-74" transform="translate(1693.609375 0)"/>
      <use xlink:href="#DejaVuSans-69" transform="translate(1732.818359 0)"/>
      <use xlink:href="#DejaVuSans-6f" transform="translate(1760.601562 0)"/>
      <use xlink:href="#DejaVuSans-6e" transform="translate(1821.783203 0)"/>
      <use xlink:href="#DejaVuSans-29" transform="translate(1885.162109 0)"/>
     </g>
    </g>
   </g>
   <g id="matplotlib.axis_6">
    <g id="ytick_7">
     <g id="line2d_51">
      <path d="M 62.714 389.32 
L 565.2 389.32 
" clip-path="url(#pf48012cbe9)" style="fill: none; stroke: #b0b0b0; stroke-opacity: 0.3; stroke-width: 0.5; stroke-linecap: square"/>
     </g>
     <g id="line2d_52">
      <g>
       <use xlink:href="#md3e79db62c" x="62.714" y="389.32" style="stroke: #000000; stroke-width: 0.8"/>
      </g>
     </g>
     <g id="text_20">
      <!-- 0 -->
      <g transform="translate(49.3515 393.119219) scale(0.1 -0.1)">
       <use xlink:href="#DejaVuSans-30"/>
      </g>
     </g>
    </g>
    <g id="ytick_8">
     <g id="line2d_53">
      <path d="M 62.714 350.379707 
L 565.2 350.379707 
" clip-path="url(#pf48012cbe9)" style="fill: none; stroke: #b0b0b0; stroke-opacity: 0.3; stroke-width: 0.5; stroke-linecap: square"/>
     </g>
     <g id="line2d_54">
      <g>
       <use xlink:href="#md3e79db62c" x="62.714" y="350.379707" style="stroke: #000000; stroke-width: 0.8"/>
      </g>
     </g>
     <g id="text_21">
      <!-- 100 -->
      <g transform="translate(36.6265 354.178926) scale(0.1 -0.1)">
       <use xlink:href="#DejaVuSans-31"/>
       <use xlink:href="#DejaVuSans-30" transform="translate(63.623047 0)"/>
       <use xlink:href="#DejaVuSans-30" transform="translate(127.246094 0)"/>
      </g>
     </g>
    </g>
    <g id="ytick_9">
     <g id="line2d_55">
      <path d="M 62.714 311.439415 
L 565.2 311.439415 
" clip-path="url(#pf48012cbe9)" style="fill: none; stroke: #b0b0b0; stroke-opacity: 0.3; stroke-width: 0.5; stroke-linecap: square"/>
     </g>
     <g id="line2d_56">
      <g>
       <use xlink:href="#md3e79db62c" x="62.714" y="311.439415" style="stroke: #000000; stroke-width: 0.8"/>
      </g>
     </g>
     <g id="text_22">
      <!-- 200 -->
      <g transform="translate(36.6265 315.238634) scale(0.1 -0.1)">
       <use xlink:href="#DejaVuSans-32"/>
       <use xlink:href="#DejaVuSans-30" transform="translate(63.623047 0)"/>
       <use xlink:href="#DejaVuSans-30" transform="translate(127.246094 0)"/>
      </g>
     </g>
    </g>
    <g id="text_23">
     <!-- Number of -->
     <g transform="translate(19.349 358.367865) rotate(-90) scale(0.1 -0.1)">
      <use xlink:href="#DejaVuSans-4e"/>
      <use xlink:href="#DejaVuSans-75" transform="translate(74.804688 0)"/>
      <use xlink:href="#DejaVuSans-6d" transform="translate(138.183594 0)"/>
      <use xlink:href="#DejaVuSans-62" transform="translate(235.595703 0)"/>
      <use xlink:href="#DejaVuSans-65" transform="translate(299.072266 0)"/>
      <use xlink:href="#DejaVuSans-72" transform="translate(360.595703 0)"/>
      <use xlink:href="#DejaVuSans-20" transform="translate(401.708984 0)"/>
      <use xlink:href="#DejaVuSans-6f" transform="translate(433.496094 0)"/>
      <use xlink:href="#DejaVuSans-66" transform="translate(494.677734 0)"/>
     </g>
     <!-- Particles -->
     <g transform="translate(30.546813 352.951458) rotate(-90) scale(0.1 -0.1)">
      <use xlink:href="#DejaVuSans-50"/>
      <use xlink:href="#DejaVuSans-61" transform="translate(55.802734 0)"/>
      <use xlink:href="#DejaVuSans-72" transform="translate(117.082031 0)"/>
      <use xlink:href="#DejaVuSans-74" transform="translate(158.195312 0)"/>
      <use xlink:href="#DejaVuSans-69" transform="translate(197.404297 0)"/>
      <use xlink:href="#DejaVuSans-63" transform="translate(225.1875 0)"/>
      <use xlink:href="#DejaVuSans-6c" transform="translate(280.167969 0)"/>
      <use xlink:href="#DejaVuSans-65" transform="translate(307.951172 0)"/>
      <use xlink:href="#DejaVuSans-73" transform="translate(369.474609 0)"/>
     </g>
    </g>
   </g>
   <g id="line2d_57">
    <path d="M 236.081763 389.32 
L 236.081763 274.426667 
" clip-path="url(#pf48012cbe9)" style="fill: none; stroke-dasharray: 5.55,2.4; stroke-dashoffset: 0; stroke: #f18f01; stroke-opacity: 0.8; stroke-width: 1.5"/>
   </g>
   <g id="patch_16">
    <path d="M 62.714 389.32 
L 62.714 274.426667 
" style="fill: none; stroke: #000000; stroke-width: 0.8; stroke-linejoin: miter; stroke-linecap: square"/>
   </g>
   <g id="patch_17">
    <path d="M 62.714 389.32 
L 565.2 389.32 
" style="fill: none; stroke: #000000; stroke-width: 0.8; stroke-linejoin: miter; stroke-linecap: square"/>
   </g>
   <g id="text_24">
    <g id="patch_18">
     <path d="M 210.354419 305.770979 
L 261.809106 305.770979 
Q 267.209106 305.770979 267.209106 300.370979 
L 267.209106 291.660667 
Q 267.209106 286.260667 261.809106 286.260667 
L 210.354419 286.260667 
Q 204.954419 286.260667 204.954419 291.660667 
L 204.954419 300.370979 
Q 204.954419 305.770979 210.354419 305.770979 
z
" style="fill: #ffffff; opacity: 0.9; stroke: #f18f01; stroke-linejoin: miter"/>
    </g>
    <!-- mean: 1.61 -->
    <g transform="translate(210.354419 298.49926) scale(0.09 -0.09)">
     <use xlink:href="#DejaVuSans-6d"/>
     <use xlink:href="#DejaVuSans-65" transform="translate(97.412109 0)"/>
     <use xlink:href="#DejaVuSans-61" transform="translate(158.935547 0)"/>
     <use xlink:href="#DejaVuSans-6e" transform="translate(220.214844 0)"/>
     <use xlink:href="#DejaVuSans-3a" transform="translate(283.59375 0)"/>
     <use xlink:href="#DejaVuSans-20" transform="translate(317.285156 0)"/>
     <use xlink:href="#DejaVuSans-31" transform="translate(349.072266 0)"/>
     <use xlink:href="#DejaVuSans-2e" transform="translate(412.695312 0)"/>
     <use xlink:href="#DejaVuSans-36" transform="translate(444.482422 0)"/>
     <use xlink:href="#DejaVuSans-31" transform="translate(508.105469 0)"/>
    </g>
   </g>
   <g id="text_25">
    <g id="patch_19">
     <path d="M 506.933092 294.849458 
L 555.15028 294.849458 
Q 560.15028 294.849458 560.15028 289.849458 
L 560.15028 280.171333 
Q 560.15028 275.171333 555.15028 275.171333 
L 506.933092 275.171333 
Q 501.933092 275.171333 501.933092 280.171333 
L 501.933092 289.849458 
Q 501.933092 294.849458 506.933092 294.849458 
z
" style="fill: #ffffff; opacity: 0.8; stroke: #f18f01; stroke-width: 1.5; stroke-linejoin: miter"/>
    </g>
    <!-- scale: 1.0 -->
    <g transform="translate(506.933092 287.769771) scale(0.1 -0.1)">
     <use xlink:href="#DejaVuSans-73"/>
     <use xlink:href="#DejaVuSans-63" transform="translate(52.099609 0)"/>
     <use xlink:href="#DejaVuSans-61" transform="translate(107.080078 0)"/>
     <use xlink:href="#DejaVuSans-6c" transform="translate(168.359375 0)"/>
     <use xlink:href="#DejaVuSans-65" transform="translate(196.142578 0)"/>
     <use xlink:href="#DejaVuSans-3a" transform="translate(257.666016 0)"/>
     <use xlink:href="#DejaVuSans-20" transform="translate(291.357422 0)"/>
     <use xlink:href="#DejaVuSans-31" transform="translate(323.144531 0)"/>
     <use xlink:href="#DejaVuSans-2e" transform="translate(386.767578 0)"/>
     <use xlink:href="#DejaVuSans-30" transform="translate(418.554688 0)"/>
    </g>
   </g>
  </g>
 </g>
 <defs>
  <clipPath id="p6852cf62fe">
   <rect x="62.714" y="10.8" width="502.486" height="114.893333"/>
  </clipPath>
  <clipPath id="p69c17b7b7d">
   <rect x="62.714" y="142.613333" width="502.486" height="114.893333"/>
  </clipPath>
  <clipPath id="pf48012cbe9">
   <rect x="62.714" y="274.426667" width="502.486" height="114.893333"/>
  </clipPath>
 </defs>
</svg>
