<?xml version="1.0" encoding="utf-8" standalone="no"?>
<!DOCTYPE svg PUBLIC "-//W3C//DTD SVG 1.1//EN"
  "http://www.w3.org/Graphics/SVG/1.1/DTD/svg11.dtd">
<svg xmlns:xlink="http://www.w3.org/1999/xlink" width="576pt" height="432pt" viewBox="0 0 576 432" xmlns="http://www.w3.org/2000/svg" version="1.1">
 <metadata>
  <rdf:RDF xmlns:dc="http://purl.org/dc/elements/1.1/" xmlns:cc="http://creativecommons.org/ns#" xmlns:rdf="http://www.w3.org/1999/02/22-rdf-syntax-ns#">
   <cc:Work>
    <dc:type rdf:resource="http://purl.org/dc/dcmitype/StillImage"/>
    <dc:date>2025-11-12T15:57:06.157139</dc:date>
    <dc:format>image/svg+xml</dc:format>
    <dc:creator>
     <cc:Agent>
      <dc:title>Matplotlib v3.10.6, https://matplotlib.org/</dc:title>
     </cc:Agent>
    </dc:creator>
   </cc:Work>
  </rdf:RDF>
 </metadata>
 <defs>
  <style type="text/css">*{stroke-linejoin: round; stroke-linecap: butt}</style>
 </defs>
 <g id="figure_1">
  <g id="patch_1">
   <path d="M 0 432 
L 576 432 
L 576 0 
L 0 0 
z
" style="fill: #ffffff"/>
  </g>
  <g id="axes_1">
   <g id="patch_2">
    <path d="M 72 149.675294 
L 518.4 149.675294 
L 518.4 51.84 
L 72 51.84 
z
" style="fill: #ffffff"/>
   </g>
   <g id="patch_3">
    <path d="M 92.290909 149.675294 
L 92.290909 142.04875 
L 100.572913 142.04875 
L 100.572913 90.652476 
L 108.854917 90.652476 
L 108.854917 58.156768 
L 117.13692 58.156768 
L 117.13692 56.498824 
L 125.418924 56.498824 
L 125.418924 97.284254 
L 133.700928 97.284254 
L 133.700928 129.448373 
L 141.982931 129.448373 
L 141.982931 143.706695 
L 150.264935 143.706695 
L 150.264935 148.01735 
L 158.546939 148.01735 
L 158.546939 149.675294 
L 166.828942 149.675294 
L 166.828942 149.675294 
L 175.110946 149.675294 
L 175.110946 149.675294 
L 183.39295 149.675294 
L 183.39295 149.675294 
L 191.674954 149.675294 
L 191.674954 149.675294 
L 199.956957 149.675294 
L 199.956957 149.675294 
L 208.238961 149.675294 
L 208.238961 149.675294 
L 216.520965 149.675294 
L 216.520965 149.675294 
L 224.802968 149.675294 
L 224.802968 149.675294 
L 233.084972 149.675294 
L 233.084972 149.675294 
L 241.366976 149.675294 
L 241.366976 149.675294 
L 249.64898 149.675294 
L 249.64898 149.675294 
L 257.930983 149.675294 
L 257.930983 149.675294 
L 266.212987 149.675294 
L 266.212987 149.675294 
L 274.494991 149.675294 
L 274.494991 149.675294 
L 282.776994 149.675294 
L 282.776994 149.675294 
L 291.058998 149.675294 
L 291.058998 149.675294 
L 299.341002 149.675294 
L 299.341002 149.675294 
L 307.623006 149.675294 
L 307.623006 149.675294 
L 315.905009 149.675294 
L 315.905009 149.675294 
L 324.187013 149.675294 
L 324.187013 149.675294 
L 332.469017 149.675294 
L 332.469017 149.675294 
L 340.75102 149.675294 
L 340.75102 149.675294 
L 349.033024 149.675294 
L 349.033024 149.675294 
L 357.315028 149.675294 
L 357.315028 149.675294 
L 365.597032 149.675294 
L 365.597032 149.675294 
L 373.879035 149.675294 
L 373.879035 149.675294 
L 382.161039 149.675294 
L 382.161039 149.675294 
L 390.443043 149.675294 
L 390.443043 149.675294 
L 398.725046 149.675294 
L 398.725046 149.675294 
L 407.00705 149.675294 
L 407.00705 149.675294 
L 415.289054 149.675294 
L 415.289054 149.675294 
L 423.571058 149.675294 
L 423.571058 149.675294 
L 431.853061 149.675294 
L 431.853061 149.675294 
L 440.135065 149.675294 
L 440.135065 149.675294 
L 448.417069 149.675294 
L 448.417069 149.675294 
L 456.699072 149.675294 
L 456.699072 149.675294 
L 464.981076 149.675294 
L 464.981076 149.675294 
L 473.26308 149.675294 
L 473.26308 149.675294 
L 481.545083 149.675294 
L 481.545083 149.675294 
L 489.827087 149.675294 
L 489.827087 149.675294 
L 498.109091 149.675294 
L 498.109091 149.675294 
L 489.827087 149.675294 
L 489.827087 149.675294 
L 481.545083 149.675294 
L 481.545083 149.675294 
L 473.26308 149.675294 
L 473.26308 149.675294 
L 464.981076 149.675294 
L 464.981076 149.675294 
L 456.699072 149.675294 
L 456.699072 149.675294 
L 448.417069 149.675294 
L 448.417069 149.675294 
L 440.135065 149.675294 
L 440.135065 149.675294 
L 431.853061 149.675294 
L 431.853061 149.675294 
L 423.571058 149.675294 
L 423.571058 149.675294 
L 415.289054 149.675294 
L 415.289054 149.675294 
L 407.00705 149.675294 
L 407.00705 149.675294 
L 398.725046 149.675294 
L 398.725046 149.675294 
L 390.443043 149.675294 
L 390.443043 149.675294 
L 382.161039 149.675294 
L 382.161039 149.675294 
L 373.879035 149.675294 
L 373.879035 149.675294 
L 365.597032 149.675294 
L 365.597032 149.675294 
L 357.315028 149.675294 
L 357.315028 149.675294 
L 349.033024 149.675294 
L 349.033024 149.675294 
L 340.75102 149.675294 
L 340.75102 149.675294 
L 332.469017 149.675294 
L 332.469017 149.675294 
L 324.187013 149.675294 
L 324.187013 149.675294 
L 315.905009 149.675294 
L 315.905009 149.675294 
L 307.623006 149.675294 
L 307.623006 149.675294 
L 299.341002 149.675294 
L 299.341002 149.675294 
L 291.058998 149.675294 
L 291.058998 149.675294 
L 282.776994 149.675294 
L 282.776994 149.675294 
L 274.494991 149.675294 
L 274.494991 149.675294 
L 266.212987 149.675294 
L 266.212987 149.675294 
L 257.930983 149.675294 
L 257.930983 149.675294 
L 249.64898 149.675294 
L 249.64898 149.675294 
L 241.366976 149.675294 
L 241.366976 149.675294 
L 233.084972 149.675294 
L 233.084972 149.675294 
L 224.802968 149.675294 
L 224.802968 149.675294 
L 216.520965 149.675294 
L 216.520965 149.675294 
L 208.238961 149.675294 
L 208.238961 149.675294 
L 199.956957 149.675294 
L 199.956957 149.675294 
L 191.674954 149.675294 
L 191.674954 149.675294 
L 183.39295 149.675294 
L 183.39295 149.675294 
L 175.110946 149.675294 
L 175.110946 149.675294 
L 166.828942 149.675294 
L 166.828942 149.675294 
L 158.546939 149.675294 
L 158.546939 149.675294 
L 150.264935 149.675294 
L 150.264935 149.675294 
L 141.982931 149.675294 
L 141.982931 149.675294 
L 133.700928 149.675294 
L 133.700928 149.675294 
L 125.418924 149.675294 
L 125.418924 149.675294 
L 117.13692 149.675294 
L 117.13692 149.675294 
L 108.854917 149.675294 
L 108.854917 149.675294 
L 100.572913 149.675294 
L 100.572913 149.675294 
z
" clip-path="url(#pafcbc25a17)" style="fill: #ff0000; opacity: 0.3; stroke: #ff0000; stroke-width: 1.5; stroke-linejoin: miter"/>
   </g>
   <g id="matplotlib.axis_1">
    <g id="xtick_1">
     <g id="line2d_1">
      <path d="M 92.290909 149.675294 
L 92.290909 51.84 
" clip-path="url(#pafcbc25a17)" style="fill: none; stroke: #b0b0b0; stroke-opacity: 0; stroke-width: 0.8; stroke-linecap: square"/>
     </g>
     <g id="line2d_2">
      <defs>
       <path id="mb8451a199c" d="M 0 0 
L 0 3.5 
" style="stroke: #000000; stroke-width: 0.8"/>
      </defs>
      <g>
       <use xlink:href="#mb8451a199c" x="92.290909" y="149.675294" style="stroke: #000000; stroke-width: 0.8"/>
      </g>
     </g>
    </g>
    <g id="xtick_2">
     <g id="line2d_3">
      <path d="M 175.110946 149.675294 
L 175.110946 51.84 
" clip-path="url(#pafcbc25a17)" style="fill: none; stroke: #b0b0b0; stroke-opacity: 0; stroke-width: 0.8; stroke-linecap: square"/>
     </g>
     <g id="line2d_4">
      <g>
       <use xlink:href="#mb8451a199c" x="175.110946" y="149.675294" style="stroke: #000000; stroke-width: 0.8"/>
      </g>
     </g>
    </g>
    <g id="xtick_3">
     <g id="line2d_5">
      <path d="M 257.930983 149.675294 
L 257.930983 51.84 
" clip-path="url(#pafcbc25a17)" style="fill: none; stroke: #b0b0b0; stroke-opacity: 0; stroke-width: 0.8; stroke-linecap: square"/>
     </g>
     <g id="line2d_6">
      <g>
       <use xlink:href="#mb8451a199c" x="257.930983" y="149.675294" style="stroke: #000000; stroke-width: 0.8"/>
      </g>
     </g>
    </g>
    <g id="xtick_4">
     <g id="line2d_7">
      <path d="M 340.75102 149.675294 
L 340.75102 51.84 
" clip-path="url(#pafcbc25a17)" style="fill: none; stroke: #b0b0b0; stroke-opacity: 0; stroke-width: 0.8; stroke-linecap: square"/>
     </g>
     <g id="line2d_8">
      <g>
       <use xlink:href="#mb8451a199c" x="340.75102" y="149.675294" style="stroke: #000000; stroke-width: 0.8"/>
      </g>
     </g>
    </g>
    <g id="xtick_5">
     <g id="line2d_9">
      <path d="M 423.571058 149.675294 
L 423.571058 51.84 
" clip-path="url(#pafcbc25a17)" style="fill: none; stroke: #b0b0b0; stroke-opacity: 0; stroke-width: 0.8; stroke-linecap: square"/>
     </g>
     <g id="line2d_10">
      <g>
       <use xlink:href="#mb8451a199c" x="423.571058" y="149.675294" style="stroke: #000000; stroke-width: 0.8"/>
      </g>
     </g>
    </g>
    <g id="xtick_6">
     <g id="line2d_11">
      <path d="M 506.391095 149.675294 
L 506.391095 51.84 
" clip-path="url(#pafcbc25a17)" style="fill: none; stroke: #b0b0b0; stroke-opacity: 0; stroke-width: 0.8; stroke-linecap: square"/>
     </g>
     <g id="line2d_12">
      <g>
       <use xlink:href="#mb8451a199c" x="506.391095" y="149.675294" style="stroke: #000000; stroke-width: 0.8"/>
      </g>
     </g>
    </g>
   </g>
   <g id="matplotlib.axis_2">
    <g id="ytick_1">
     <g id="line2d_13">
      <path d="M 72 149.675294 
L 518.4 149.675294 
" clip-path="url(#pafcbc25a17)" style="fill: none; stroke: #b0b0b0; stroke-opacity: 0.5; stroke-width: 0.5; stroke-linecap: square"/>
     </g>
     <g id="line2d_14">
      <defs>
       <path id="m98e31cf676" d="M 0 0 
L -3.5 0 
" style="stroke: #000000; stroke-width: 0.8"/>
      </defs>
      <g>
       <use xlink:href="#m98e31cf676" x="72" y="149.675294" style="stroke: #000000; stroke-width: 0.8"/>
      </g>
     </g>
     <g id="text_1">
      <!-- 0 -->
      <g transform="translate(58.6375 153.474513) scale(0.1 -0.1)">
       <defs>
        <path id="DejaVuSans-30" d="M 2034 4250 
Q 1547 4250 1301 3770 
Q 1056 3291 1056 2328 
Q 1056 1369 1301 889 
Q 1547 409 2034 409 
Q 2525 409 2770 889 
Q 3016 1369 3016 2328 
Q 3016 3291 2770 3770 
Q 2525 4250 2034 4250 
z
M 2034 4750 
Q 2819 4750 3233 4129 
Q 3647 3509 3647 2328 
Q 3647 1150 3233 529 
Q 2819 -91 2034 -91 
Q 1250 -91 836 529 
Q 422 1150 422 2328 
Q 422 3509 836 4129 
Q 1250 4750 2034 4750 
z
" transform="scale(0.015625)"/>
       </defs>
       <use xlink:href="#DejaVuSans-30"/>
      </g>
     </g>
    </g>
    <g id="ytick_2">
     <g id="line2d_15">
      <path d="M 72 116.516408 
L 518.4 116.516408 
" clip-path="url(#pafcbc25a17)" style="fill: none; stroke: #b0b0b0; stroke-opacity: 0.5; stroke-width: 0.5; stroke-linecap: square"/>
     </g>
     <g id="line2d_16">
      <g>
       <use xlink:href="#m98e31cf676" x="72" y="116.516408" style="stroke: #000000; stroke-width: 0.8"/>
      </g>
     </g>
     <g id="text_2">
      <!-- 100 -->
      <g transform="translate(45.9125 120.315627) scale(0.1 -0.1)">
       <defs>
        <path id="DejaVuSans-31" d="M 794 531 
L 1825 531 
L 1825 4091 
L 703 3866 
L 703 4441 
L 1819 4666 
L 2450 4666 
L 2450 531 
L 3481 531 
L 3481 0 
L 794 0 
L 794 531 
z
" transform="scale(0.015625)"/>
       </defs>
       <use xlink:href="#DejaVuSans-31"/>
       <use xlink:href="#DejaVuSans-30" transform="translate(63.623047 0)"/>
       <use xlink:href="#DejaVuSans-30" transform="translate(127.246094 0)"/>
      </g>
     </g>
    </g>
    <g id="ytick_3">
     <g id="line2d_17">
      <path d="M 72 83.357521 
L 518.4 83.357521 
" clip-path="url(#pafcbc25a17)" style="fill: none; stroke: #b0b0b0; stroke-opacity: 0.5; stroke-width: 0.5; stroke-linecap: square"/>
     </g>
     <g id="line2d_18">
      <g>
       <use xlink:href="#m98e31cf676" x="72" y="83.357521" style="stroke: #000000; stroke-width: 0.8"/>
      </g>
     </g>
     <g id="text_3">
      <!-- 200 -->
      <g transform="translate(45.9125 87.15674) scale(0.1 -0.1)">
       <defs>
        <path id="DejaVuSans-32" d="M 1228 531 
L 3431 531 
L 3431 0 
L 469 0 
L 469 531 
Q 828 903 1448 1529 
Q 2069 2156 2228 2338 
Q 2531 2678 2651 2914 
Q 2772 3150 2772 3378 
Q 2772 3750 2511 3984 
Q 2250 4219 1831 4219 
Q 1534 4219 1204 4116 
Q 875 4013 500 3803 
L 500 4441 
Q 881 4594 1212 4672 
Q 1544 4750 1819 4750 
Q 2544 4750 2975 4387 
Q 3406 4025 3406 3419 
Q 3406 3131 3298 2873 
Q 3191 2616 2906 2266 
Q 2828 2175 2409 1742 
Q 1991 1309 1228 531 
z
" transform="scale(0.015625)"/>
       </defs>
       <use xlink:href="#DejaVuSans-32"/>
       <use xlink:href="#DejaVuSans-30" transform="translate(63.623047 0)"/>
       <use xlink:href="#DejaVuSans-30" transform="translate(127.246094 0)"/>
      </g>
     </g>
    </g>
    <g id="text_4">
     <!-- Particle Number -->
     <g transform="translate(39.832812 140.906085) rotate(-90) scale(0.1 -0.1)">
      <defs>
       <path id="DejaVuSans-50" d="M 1259 4147 
L 1259 2394 
L 2053 2394 
Q 2494 2394 2734 2622 
Q 2975 2850 2975 3272 
Q 2975 3691 2734 3919 
Q 2494 4147 2053 4147 
L 1259 4147 
z
M 628 4666 
L 2053 4666 
Q 2838 4666 3239 4311 
Q 3641 3956 3641 3272 
Q 3641 2581 3239 2228 
Q 2838 1875 2053 1875 
L 1259 1875 
L 1259 0 
L 628 0 
L 628 4666 
z
" transform="scale(0.015625)"/>
       <path id="DejaVuSans-61" d="M 2194 1759 
Q 1497 1759 1228 1600 
Q 959 1441 959 1056 
Q 959 750 1161 570 
Q 1363 391 1709 391 
Q 2188 391 2477 730 
Q 2766 1069 2766 1631 
L 2766 1759 
L 2194 1759 
z
M 3341 1997 
L 3341 0 
L 2766 0 
L 2766 531 
Q 2569 213 2275 61 
Q 1981 -91 1556 -91 
Q 1019 -91 701 211 
Q 384 513 384 1019 
Q 384 1609 779 1909 
Q 1175 2209 1959 2209 
L 2766 2209 
L 2766 2266 
Q 2766 2663 2505 2880 
Q 2244 3097 1772 3097 
Q 1472 3097 1187 3025 
Q 903 2953 641 2809 
L 641 3341 
Q 956 3463 1253 3523 
Q 1550 3584 1831 3584 
Q 2591 3584 2966 3190 
Q 3341 2797 3341 1997 
z
" transform="scale(0.015625)"/>
       <path id="DejaVuSans-72" d="M 2631 2963 
Q 2534 3019 2420 3045 
Q 2306 3072 2169 3072 
Q 1681 3072 1420 2755 
Q 1159 2438 1159 1844 
L 1159 0 
L 581 0 
L 581 3500 
L 1159 3500 
L 1159 2956 
Q 1341 3275 1631 3429 
Q 1922 3584 2338 3584 
Q 2397 3584 2469 3576 
Q 2541 3569 2628 3553 
L 2631 2963 
z
" transform="scale(0.015625)"/>
       <path id="DejaVuSans-74" d="M 1172 4494 
L 1172 3500 
L 2356 3500 
L 2356 3053 
L 1172 3053 
L 1172 1153 
Q 1172 725 1289 603 
Q 1406 481 1766 481 
L 2356 481 
L 2356 0 
L 1766 0 
Q 1100 0 847 248 
Q 594 497 594 1153 
L 594 3053 
L 172 3053 
L 172 3500 
L 594 3500 
L 594 4494 
L 1172 4494 
z
" transform="scale(0.015625)"/>
       <path id="DejaVuSans-69" d="M 603 3500 
L 1178 3500 
L 1178 0 
L 603 0 
L 603 3500 
z
M 603 4863 
L 1178 4863 
L 1178 4134 
L 603 4134 
L 603 4863 
z
" transform="scale(0.015625)"/>
       <path id="DejaVuSans-63" d="M 3122 3366 
L 3122 2828 
Q 2878 2963 2633 3030 
Q 2388 3097 2138 3097 
Q 1578 3097 1268 2742 
Q 959 2388 959 1747 
Q 959 1106 1268 751 
Q 1578 397 2138 397 
Q 2388 397 2633 464 
Q 2878 531 3122 666 
L 3122 134 
Q 2881 22 2623 -34 
Q 2366 -91 2075 -91 
Q 1284 -91 818 406 
Q 353 903 353 1747 
Q 353 2603 823 3093 
Q 1294 3584 2113 3584 
Q 2378 3584 2631 3529 
Q 2884 3475 3122 3366 
z
" transform="scale(0.015625)"/>
       <path id="DejaVuSans-6c" d="M 603 4863 
L 1178 4863 
L 1178 0 
L 603 0 
L 603 4863 
z
" transform="scale(0.015625)"/>
       <path id="DejaVuSans-65" d="M 3597 1894 
L 3597 1613 
L 953 1613 
Q 991 1019 1311 708 
Q 1631 397 2203 397 
Q 2534 397 2845 478 
Q 3156 559 3463 722 
L 3463 178 
Q 3153 47 2828 -22 
Q 2503 -91 2169 -91 
Q 1331 -91 842 396 
Q 353 884 353 1716 
Q 353 2575 817 3079 
Q 1281 3584 2069 3584 
Q 2775 3584 3186 3129 
Q 3597 2675 3597 1894 
z
M 3022 2063 
Q 3016 2534 2758 2815 
Q 2500 3097 2075 3097 
Q 1594 3097 1305 2825 
Q 1016 2553 972 2059 
L 3022 2063 
z
" transform="scale(0.015625)"/>
       <path id="DejaVuSans-20" transform="scale(0.015625)"/>
       <path id="DejaVuSans-4e" d="M 628 4666 
L 1478 4666 
L 3547 763 
L 3547 4666 
L 4159 4666 
L 4159 0 
L 3309 0 
L 1241 3903 
L 1241 0 
L 628 0 
L 628 4666 
z
" transform="scale(0.015625)"/>
       <path id="DejaVuSans-75" d="M 544 1381 
L 544 3500 
L 1119 3500 
L 1119 1403 
Q 1119 906 1312 657 
Q 1506 409 1894 409 
Q 2359 409 2629 706 
Q 2900 1003 2900 1516 
L 2900 3500 
L 3475 3500 
L 3475 0 
L 2900 0 
L 2900 538 
Q 2691 219 2414 64 
Q 2138 -91 1772 -91 
Q 1169 -91 856 284 
Q 544 659 544 1381 
z
M 1991 3584 
L 1991 3584 
z
" transform="scale(0.015625)"/>
       <path id="DejaVuSans-6d" d="M 3328 2828 
Q 3544 3216 3844 3400 
Q 4144 3584 4550 3584 
Q 5097 3584 5394 3201 
Q 5691 2819 5691 2113 
L 5691 0 
L 5113 0 
L 5113 2094 
Q 5113 2597 4934 2840 
Q 4756 3084 4391 3084 
Q 3944 3084 3684 2787 
Q 3425 2491 3425 1978 
L 3425 0 
L 2847 0 
L 2847 2094 
Q 2847 2600 2669 2842 
Q 2491 3084 2119 3084 
Q 1678 3084 1418 2786 
Q 1159 2488 1159 1978 
L 1159 0 
L 581 0 
L 581 3500 
L 1159 3500 
L 1159 2956 
Q 1356 3278 1631 3431 
Q 1906 3584 2284 3584 
Q 2666 3584 2933 3390 
Q 3200 3197 3328 2828 
z
" transform="scale(0.015625)"/>
       <path id="DejaVuSans-62" d="M 3116 1747 
Q 3116 2381 2855 2742 
Q 2594 3103 2138 3103 
Q 1681 3103 1420 2742 
Q 1159 2381 1159 1747 
Q 1159 1113 1420 752 
Q 1681 391 2138 391 
Q 2594 391 2855 752 
Q 3116 1113 3116 1747 
z
M 1159 2969 
Q 1341 3281 1617 3432 
Q 1894 3584 2278 3584 
Q 2916 3584 3314 3078 
Q 3713 2572 3713 1747 
Q 3713 922 3314 415 
Q 2916 -91 2278 -91 
Q 1894 -91 1617 61 
Q 1341 213 1159 525 
L 1159 0 
L 581 0 
L 581 4863 
L 1159 4863 
L 1159 2969 
z
" transform="scale(0.015625)"/>
      </defs>
      <use xlink:href="#DejaVuSans-50"/>
      <use xlink:href="#DejaVuSans-61" transform="translate(55.802734 0)"/>
      <use xlink:href="#DejaVuSans-72" transform="translate(117.082031 0)"/>
      <use xlink:href="#DejaVuSans-74" transform="translate(158.195312 0)"/>
      <use xlink:href="#DejaVuSans-69" transform="translate(197.404297 0)"/>
      <use xlink:href="#DejaVuSans-63" transform="translate(225.1875 0)"/>
      <use xlink:href="#DejaVuSans-6c" transform="translate(280.167969 0)"/>
      <use xlink:href="#DejaVuSans-65" transform="translate(307.951172 0)"/>
      <use xlink:href="#DejaVuSans-20" transform="translate(369.474609 0)"/>
      <use xlink:href="#DejaVuSans-4e" transform="translate(401.261719 0)"/>
      <use xlink:href="#DejaVuSans-75" transform="translate(476.066406 0)"/>
      <use xlink:href="#DejaVuSans-6d" transform="translate(539.445312 0)"/>
      <use xlink:href="#DejaVuSans-62" transform="translate(636.857422 0)"/>
      <use xlink:href="#DejaVuSans-65" transform="translate(700.333984 0)"/>
      <use xlink:href="#DejaVuSans-72" transform="translate(761.857422 0)"/>
     </g>
    </g>
   </g>
   <g id="line2d_19">
    <path d="M 118.385352 149.675294 
L 118.385352 51.84 
" clip-path="url(#pafcbc25a17)" style="fill: none; stroke-dasharray: 5.55,2.4; stroke-dashoffset: 0; stroke: #ff0000; stroke-opacity: 0.8; stroke-width: 1.5"/>
   </g>
   <g id="patch_4">
    <path d="M 72 149.675294 
L 72 51.84 
" style="fill: none; stroke: #000000; stroke-width: 0.8; stroke-linejoin: miter; stroke-linecap: square"/>
   </g>
   <g id="patch_5">
    <path d="M 72 149.675294 
L 518.4 149.675294 
" style="fill: none; stroke: #000000; stroke-width: 0.8; stroke-linejoin: miter; stroke-linecap: square"/>
   </g>
   <g id="text_5">
    <g id="patch_6">
     <path d="M 89.799415 82.193419 
L 146.97129 82.193419 
Q 152.97129 82.193419 152.97129 76.193419 
L 152.97129 66.515294 
Q 152.97129 60.515294 146.97129 60.515294 
L 89.799415 60.515294 
Q 83.799415 60.515294 83.799415 66.515294 
L 83.799415 76.193419 
Q 83.799415 82.193419 89.799415 82.193419 
z
" style="fill: #ffffff; opacity: 0.8; stroke: #ff0000; stroke-linejoin: miter"/>
    </g>
    <!-- mean: 0.32 -->
    <g transform="translate(89.799415 74.113732) scale(0.1 -0.1)">
     <defs>
      <path id="DejaVuSans-6e" d="M 3513 2113 
L 3513 0 
L 2938 0 
L 2938 2094 
Q 2938 2591 2744 2837 
Q 2550 3084 2163 3084 
Q 1697 3084 1428 2787 
Q 1159 2491 1159 1978 
L 1159 0 
L 581 0 
L 581 3500 
L 1159 3500 
L 1159 2956 
Q 1366 3272 1645 3428 
Q 1925 3584 2291 3584 
Q 2894 3584 3203 3211 
Q 3513 2838 3513 2113 
z
" transform="scale(0.015625)"/>
      <path id="DejaVuSans-3a" d="M 750 794 
L 1409 794 
L 1409 0 
L 750 0 
L 750 794 
z
M 750 3309 
L 1409 3309 
L 1409 2516 
L 750 2516 
L 750 3309 
z
" transform="scale(0.015625)"/>
      <path id="DejaVuSans-2e" d="M 684 794 
L 1344 794 
L 1344 0 
L 684 0 
L 684 794 
z
" transform="scale(0.015625)"/>
      <path id="DejaVuSans-33" d="M 2597 2516 
Q 3050 2419 3304 2112 
Q 3559 1806 3559 1356 
Q 3559 666 3084 287 
Q 2609 -91 1734 -91 
Q 1441 -91 1130 -33 
Q 819 25 488 141 
L 488 750 
Q 750 597 1062 519 
Q 1375 441 1716 441 
Q 2309 441 2620 675 
Q 2931 909 2931 1356 
Q 2931 1769 2642 2001 
Q 2353 2234 1838 2234 
L 1294 2234 
L 1294 2753 
L 1863 2753 
Q 2328 2753 2575 2939 
Q 2822 3125 2822 3475 
Q 2822 3834 2567 4026 
Q 2313 4219 1838 4219 
Q 1578 4219 1281 4162 
Q 984 4106 628 3988 
L 628 4550 
Q 988 4650 1302 4700 
Q 1616 4750 1894 4750 
Q 2613 4750 3031 4423 
Q 3450 4097 3450 3541 
Q 3450 3153 3228 2886 
Q 3006 2619 2597 2516 
z
" transform="scale(0.015625)"/>
     </defs>
     <use xlink:href="#DejaVuSans-6d"/>
     <use xlink:href="#DejaVuSans-65" transform="translate(97.412109 0)"/>
     <use xlink:href="#DejaVuSans-61" transform="translate(158.935547 0)"/>
     <use xlink:href="#DejaVuSans-6e" transform="translate(220.214844 0)"/>
     <use xlink:href="#DejaVuSans-3a" transform="translate(283.59375 0)"/>
     <use xlink:href="#DejaVuSans-20" transform="translate(317.285156 0)"/>
     <use xlink:href="#DejaVuSans-30" transform="translate(349.072266 0)"/>
     <use xlink:href="#DejaVuSans-2e" transform="translate(412.695312 0)"/>
     <use xlink:href="#DejaVuSans-33" transform="translate(444.482422 0)"/>
     <use xlink:href="#DejaVuSans-32" transform="translate(508.105469 0)"/>
    </g>
   </g>
   <g id="text_6">
    <g id="patch_7">
     <path d="M 447.862812 71.40989 
L 496.08 71.40989 
Q 501.08 71.40989 501.08 66.40989 
L 501.08 56.731765 
Q 501.08 51.731765 496.08 51.731765 
L 447.862812 51.731765 
Q 442.862812 51.731765 442.862812 56.731765 
L 442.862812 66.40989 
Q 442.862812 71.40989 447.862812 71.40989 
z
" style="fill: #ffffff; opacity: 0.8; stroke: #ff0000; stroke-linejoin: miter"/>
    </g>
    <!-- scale: 0.2 -->
    <g transform="translate(447.862812 64.330202) scale(0.1 -0.1)">
     <defs>
      <path id="DejaVuSans-73" d="M 2834 3397 
L 2834 2853 
Q 2591 2978 2328 3040 
Q 2066 3103 1784 3103 
Q 1356 3103 1142 2972 
Q 928 2841 928 2578 
Q 928 2378 1081 2264 
Q 1234 2150 1697 2047 
L 1894 2003 
Q 2506 1872 2764 1633 
Q 3022 1394 3022 966 
Q 3022 478 2636 193 
Q 2250 -91 1575 -91 
Q 1294 -91 989 -36 
Q 684 19 347 128 
L 347 722 
Q 666 556 975 473 
Q 1284 391 1588 391 
Q 1994 391 2212 530 
Q 2431 669 2431 922 
Q 2431 1156 2273 1281 
Q 2116 1406 1581 1522 
L 1381 1569 
Q 847 1681 609 1914 
Q 372 2147 372 2553 
Q 372 3047 722 3315 
Q 1072 3584 1716 3584 
Q 2034 3584 2315 3537 
Q 2597 3491 2834 3397 
z
" transform="scale(0.015625)"/>
     </defs>
     <use xlink:href="#DejaVuSans-73"/>
     <use xlink:href="#DejaVuSans-63" transform="translate(52.099609 0)"/>
     <use xlink:href="#DejaVuSans-61" transform="translate(107.080078 0)"/>
     <use xlink:href="#DejaVuSans-6c" transform="translate(168.359375 0)"/>
     <use xlink:href="#DejaVuSans-65" transform="translate(196.142578 0)"/>
     <use xlink:href="#DejaVuSans-3a" transform="translate(257.666016 0)"/>
     <use xlink:href="#DejaVuSans-20" transform="translate(291.357422 0)"/>
     <use xlink:href="#DejaVuSans-30" transform="translate(323.144531 0)"/>
     <use xlink:href="#DejaVuSans-2e" transform="translate(386.767578 0)"/>
     <use xlink:href="#DejaVuSans-32" transform="translate(418.554688 0)"/>
    </g>
   </g>
  </g>
  <g id="axes_2">
   <g id="patch_8">
    <path d="M 72 267.077647 
L 518.4 267.077647 
L 518.4 169.242353 
L 72 169.242353 
z
" style="fill: #ffffff"/>
   </g>
   <g id="patch_9">
    <path d="M 92.290909 267.077647 
L 92.290909 266.414469 
L 100.572913 266.414469 
L 100.572913 264.424936 
L 108.854917 264.424936 
L 108.854917 257.793159 
L 117.13692 257.793159 
L 117.13692 253.482504 
L 125.418924 253.482504 
L 125.418924 248.84026 
L 133.700928 248.84026 
L 133.700928 242.540071 
L 141.982931 242.540071 
L 141.982931 238.892594 
L 150.264935 238.892594 
L 150.264935 234.25035 
L 158.546939 234.25035 
L 158.546939 232.592405 
L 166.828942 232.592405 
L 166.828942 236.90306 
L 175.110946 236.90306 
L 175.110946 240.550538 
L 183.39295 240.550538 
L 183.39295 240.218949 
L 191.674954 240.218949 
L 191.674954 248.508671 
L 199.956957 248.508671 
L 199.956957 249.503437 
L 208.238961 249.503437 
L 208.238961 251.161382 
L 216.520965 251.161382 
L 216.520965 256.798392 
L 224.802968 256.798392 
L 224.802968 260.44587 
L 233.084972 260.44587 
L 233.084972 260.777459 
L 241.366976 260.777459 
L 241.366976 262.435403 
L 249.64898 262.435403 
L 249.64898 265.751292 
L 257.930983 265.751292 
L 257.930983 266.414469 
L 266.212987 266.414469 
L 266.212987 267.077647 
L 274.494991 267.077647 
L 274.494991 267.077647 
L 282.776994 267.077647 
L 282.776994 266.414469 
L 291.058998 266.414469 
L 291.058998 266.746058 
L 299.341002 266.746058 
L 299.341002 267.077647 
L 307.623006 267.077647 
L 307.623006 266.746058 
L 315.905009 266.746058 
L 315.905009 267.077647 
L 324.187013 267.077647 
L 324.187013 267.077647 
L 332.469017 267.077647 
L 332.469017 266.746058 
L 340.75102 266.746058 
L 340.75102 267.077647 
L 349.033024 267.077647 
L 349.033024 267.077647 
L 357.315028 267.077647 
L 357.315028 267.077647 
L 365.597032 267.077647 
L 365.597032 267.077647 
L 373.879035 267.077647 
L 373.879035 267.077647 
L 382.161039 267.077647 
L 382.161039 267.077647 
L 390.443043 267.077647 
L 390.443043 267.077647 
L 398.725046 267.077647 
L 398.725046 267.077647 
L 407.00705 267.077647 
L 407.00705 267.077647 
L 415.289054 267.077647 
L 415.289054 267.077647 
L 423.571058 267.077647 
L 423.571058 267.077647 
L 431.853061 267.077647 
L 431.853061 267.077647 
L 440.135065 267.077647 
L 440.135065 267.077647 
L 448.417069 267.077647 
L 448.417069 267.077647 
L 456.699072 267.077647 
L 456.699072 267.077647 
L 464.981076 267.077647 
L 464.981076 267.077647 
L 473.26308 267.077647 
L 473.26308 267.077647 
L 481.545083 267.077647 
L 481.545083 267.077647 
L 489.827087 267.077647 
L 489.827087 267.077647 
L 498.109091 267.077647 
L 498.109091 267.077647 
L 489.827087 267.077647 
L 489.827087 267.077647 
L 481.545083 267.077647 
L 481.545083 267.077647 
L 473.26308 267.077647 
L 473.26308 267.077647 
L 464.981076 267.077647 
L 464.981076 267.077647 
L 456.699072 267.077647 
L 456.699072 267.077647 
L 448.417069 267.077647 
L 448.417069 267.077647 
L 440.135065 267.077647 
L 440.135065 267.077647 
L 431.853061 267.077647 
L 431.853061 267.077647 
L 423.571058 267.077647 
L 423.571058 267.077647 
L 415.289054 267.077647 
L 415.289054 267.077647 
L 407.00705 267.077647 
L 407.00705 267.077647 
L 398.725046 267.077647 
L 398.725046 267.077647 
L 390.443043 267.077647 
L 390.443043 267.077647 
L 382.161039 267.077647 
L 382.161039 267.077647 
L 373.879035 267.077647 
L 373.879035 267.077647 
L 365.597032 267.077647 
L 365.597032 267.077647 
L 357.315028 267.077647 
L 357.315028 267.077647 
L 349.033024 267.077647 
L 349.033024 267.077647 
L 340.75102 267.077647 
L 340.75102 267.077647 
L 332.469017 267.077647 
L 332.469017 267.077647 
L 324.187013 267.077647 
L 324.187013 267.077647 
L 315.905009 267.077647 
L 315.905009 267.077647 
L 307.623006 267.077647 
L 307.623006 267.077647 
L 299.341002 267.077647 
L 299.341002 267.077647 
L 291.058998 267.077647 
L 291.058998 267.077647 
L 282.776994 267.077647 
L 282.776994 267.077647 
L 274.494991 267.077647 
L 274.494991 267.077647 
L 266.212987 267.077647 
L 266.212987 267.077647 
L 257.930983 267.077647 
L 257.930983 267.077647 
L 249.64898 267.077647 
L 249.64898 267.077647 
L 241.366976 267.077647 
L 241.366976 267.077647 
L 233.084972 267.077647 
L 233.084972 267.077647 
L 224.802968 267.077647 
L 224.802968 267.077647 
L 216.520965 267.077647 
L 216.520965 267.077647 
L 208.238961 267.077647 
L 208.238961 267.077647 
L 199.956957 267.077647 
L 199.956957 267.077647 
L 191.674954 267.077647 
L 191.674954 267.077647 
L 183.39295 267.077647 
L 183.39295 267.077647 
L 175.110946 267.077647 
L 175.110946 267.077647 
L 166.828942 267.077647 
L 166.828942 267.077647 
L 158.546939 267.077647 
L 158.546939 267.077647 
L 150.264935 267.077647 
L 150.264935 267.077647 
L 141.982931 267.077647 
L 141.982931 267.077647 
L 133.700928 267.077647 
L 133.700928 267.077647 
L 125.418924 267.077647 
L 125.418924 267.077647 
L 117.13692 267.077647 
L 117.13692 267.077647 
L 108.854917 267.077647 
L 108.854917 267.077647 
L 100.572913 267.077647 
L 100.572913 267.077647 
z
" clip-path="url(#p22eff487ab)" style="fill: #008000; opacity: 0.3; stroke: #008000; stroke-width: 1.5; stroke-linejoin: miter"/>
   </g>
   <g id="matplotlib.axis_3">
    <g id="xtick_7">
     <g id="line2d_20">
      <path d="M 92.290909 267.077647 
L 92.290909 169.242353 
" clip-path="url(#p22eff487ab)" style="fill: none; stroke: #b0b0b0; stroke-opacity: 0; stroke-width: 0.8; stroke-linecap: square"/>
     </g>
     <g id="line2d_21">
      <g>
       <use xlink:href="#mb8451a199c" x="92.290909" y="267.077647" style="stroke: #000000; stroke-width: 0.8"/>
      </g>
     </g>
    </g>
    <g id="xtick_8">
     <g id="line2d_22">
      <path d="M 175.110946 267.077647 
L 175.110946 169.242353 
" clip-path="url(#p22eff487ab)" style="fill: none; stroke: #b0b0b0; stroke-opacity: 0; stroke-width: 0.8; stroke-linecap: square"/>
     </g>
     <g id="line2d_23">
      <g>
       <use xlink:href="#mb8451a199c" x="175.110946" y="267.077647" style="stroke: #000000; stroke-width: 0.8"/>
      </g>
     </g>
    </g>
    <g id="xtick_9">
     <g id="line2d_24">
      <path d="M 257.930983 267.077647 
L 257.930983 169.242353 
" clip-path="url(#p22eff487ab)" style="fill: none; stroke: #b0b0b0; stroke-opacity: 0; stroke-width: 0.8; stroke-linecap: square"/>
     </g>
     <g id="line2d_25">
      <g>
       <use xlink:href="#mb8451a199c" x="257.930983" y="267.077647" style="stroke: #000000; stroke-width: 0.8"/>
      </g>
     </g>
    </g>
    <g id="xtick_10">
     <g id="line2d_26">
      <path d="M 340.75102 267.077647 
L 340.75102 169.242353 
" clip-path="url(#p22eff487ab)" style="fill: none; stroke: #b0b0b0; stroke-opacity: 0; stroke-width: 0.8; stroke-linecap: square"/>
     </g>
     <g id="line2d_27">
      <g>
       <use xlink:href="#mb8451a199c" x="340.75102" y="267.077647" style="stroke: #000000; stroke-width: 0.8"/>
      </g>
     </g>
    </g>
    <g id="xtick_11">
     <g id="line2d_28">
      <path d="M 423.571058 267.077647 
L 423.571058 169.242353 
" clip-path="url(#p22eff487ab)" style="fill: none; stroke: #b0b0b0; stroke-opacity: 0; stroke-width: 0.8; stroke-linecap: square"/>
     </g>
     <g id="line2d_29">
      <g>
       <use xlink:href="#mb8451a199c" x="423.571058" y="267.077647" style="stroke: #000000; stroke-width: 0.8"/>
      </g>
     </g>
    </g>
    <g id="xtick_12">
     <g id="line2d_30">
      <path d="M 506.391095 267.077647 
L 506.391095 169.242353 
" clip-path="url(#p22eff487ab)" style="fill: none; stroke: #b0b0b0; stroke-opacity: 0; stroke-width: 0.8; stroke-linecap: square"/>
     </g>
     <g id="line2d_31">
      <g>
       <use xlink:href="#mb8451a199c" x="506.391095" y="267.077647" style="stroke: #000000; stroke-width: 0.8"/>
      </g>
     </g>
    </g>
   </g>
   <g id="matplotlib.axis_4">
    <g id="ytick_4">
     <g id="line2d_32">
      <path d="M 72 267.077647 
L 518.4 267.077647 
" clip-path="url(#p22eff487ab)" style="fill: none; stroke: #b0b0b0; stroke-opacity: 0.5; stroke-width: 0.5; stroke-linecap: square"/>
     </g>
     <g id="line2d_33">
      <g>
       <use xlink:href="#m98e31cf676" x="72" y="267.077647" style="stroke: #000000; stroke-width: 0.8"/>
      </g>
     </g>
     <g id="text_7">
      <!-- 0 -->
      <g transform="translate(58.6375 270.876866) scale(0.1 -0.1)">
       <use xlink:href="#DejaVuSans-30"/>
      </g>
     </g>
    </g>
    <g id="ytick_5">
     <g id="line2d_34">
      <path d="M 72 233.918761 
L 518.4 233.918761 
" clip-path="url(#p22eff487ab)" style="fill: none; stroke: #b0b0b0; stroke-opacity: 0.5; stroke-width: 0.5; stroke-linecap: square"/>
     </g>
     <g id="line2d_35">
      <g>
       <use xlink:href="#m98e31cf676" x="72" y="233.918761" style="stroke: #000000; stroke-width: 0.8"/>
      </g>
     </g>
     <g id="text_8">
      <!-- 100 -->
      <g transform="translate(45.9125 237.717979) scale(0.1 -0.1)">
       <use xlink:href="#DejaVuSans-31"/>
       <use xlink:href="#DejaVuSans-30" transform="translate(63.623047 0)"/>
       <use xlink:href="#DejaVuSans-30" transform="translate(127.246094 0)"/>
      </g>
     </g>
    </g>
    <g id="ytick_6">
     <g id="line2d_36">
      <path d="M 72 200.759874 
L 518.4 200.759874 
" clip-path="url(#p22eff487ab)" style="fill: none; stroke: #b0b0b0; stroke-opacity: 0.5; stroke-width: 0.5; stroke-linecap: square"/>
     </g>
     <g id="line2d_37">
      <g>
       <use xlink:href="#m98e31cf676" x="72" y="200.759874" style="stroke: #000000; stroke-width: 0.8"/>
      </g>
     </g>
     <g id="text_9">
      <!-- 200 -->
      <g transform="translate(45.9125 204.559093) scale(0.1 -0.1)">
       <use xlink:href="#DejaVuSans-32"/>
       <use xlink:href="#DejaVuSans-30" transform="translate(63.623047 0)"/>
       <use xlink:href="#DejaVuSans-30" transform="translate(127.246094 0)"/>
      </g>
     </g>
    </g>
    <g id="text_10">
     <!-- Particle Number -->
     <g transform="translate(39.832812 258.308438) rotate(-90) scale(0.1 -0.1)">
      <use xlink:href="#DejaVuSans-50"/>
      <use xlink:href="#DejaVuSans-61" transform="translate(55.802734 0)"/>
      <use xlink:href="#DejaVuSans-72" transform="translate(117.082031 0)"/>
      <use xlink:href="#DejaVuSans-74" transform="translate(158.195312 0)"/>
      <use xlink:href="#DejaVuSans-69" transform="translate(197.404297 0)"/>
      <use xlink:href="#DejaVuSans-63" transform="translate(225.1875 0)"/>
      <use xlink:href="#DejaVuSans-6c" transform="translate(280.167969 0)"/>
      <use xlink:href="#DejaVuSans-65" transform="translate(307.951172 0)"/>
      <use xlink:href="#DejaVuSans-20" transform="translate(369.474609 0)"/>
      <use xlink:href="#DejaVuSans-4e" transform="translate(401.261719 0)"/>
      <use xlink:href="#DejaVuSans-75" transform="translate(476.066406 0)"/>
      <use xlink:href="#DejaVuSans-6d" transform="translate(539.445312 0)"/>
      <use xlink:href="#DejaVuSans-62" transform="translate(636.857422 0)"/>
      <use xlink:href="#DejaVuSans-65" transform="translate(700.333984 0)"/>
      <use xlink:href="#DejaVuSans-72" transform="translate(761.857422 0)"/>
     </g>
    </g>
   </g>
   <g id="line2d_38">
    <path d="M 170.616465 267.077647 
L 170.616465 169.242353 
" clip-path="url(#p22eff487ab)" style="fill: none; stroke-dasharray: 5.55,2.4; stroke-dashoffset: 0; stroke: #008000; stroke-opacity: 0.8; stroke-width: 1.5"/>
   </g>
   <g id="patch_10">
    <path d="M 72 267.077647 
L 72 169.242353 
" style="fill: none; stroke: #000000; stroke-width: 0.8; stroke-linejoin: miter; stroke-linecap: square"/>
   </g>
   <g id="patch_11">
    <path d="M 72 267.077647 
L 518.4 267.077647 
" style="fill: none; stroke: #000000; stroke-width: 0.8; stroke-linejoin: miter; stroke-linecap: square"/>
   </g>
   <g id="text_11">
    <g id="patch_12">
     <path d="M 142.030527 199.595772 
L 199.202402 199.595772 
Q 205.202402 199.595772 205.202402 193.595772 
L 205.202402 183.917647 
Q 205.202402 177.917647 199.202402 177.917647 
L 142.030527 177.917647 
Q 136.030527 177.917647 136.030527 183.917647 
L 136.030527 193.595772 
Q 136.030527 199.595772 142.030527 199.595772 
z
" style="fill: #ffffff; opacity: 0.8; stroke: #008000; stroke-linejoin: miter"/>
    </g>
    <!-- mean: 0.95 -->
    <g transform="translate(142.030527 191.516085) scale(0.1 -0.1)">
     <defs>
      <path id="DejaVuSans-39" d="M 703 97 
L 703 672 
Q 941 559 1184 500 
Q 1428 441 1663 441 
Q 2288 441 2617 861 
Q 2947 1281 2994 2138 
Q 2813 1869 2534 1725 
Q 2256 1581 1919 1581 
Q 1219 1581 811 2004 
Q 403 2428 403 3163 
Q 403 3881 828 4315 
Q 1253 4750 1959 4750 
Q 2769 4750 3195 4129 
Q 3622 3509 3622 2328 
Q 3622 1225 3098 567 
Q 2575 -91 1691 -91 
Q 1453 -91 1209 -44 
Q 966 3 703 97 
z
M 1959 2075 
Q 2384 2075 2632 2365 
Q 2881 2656 2881 3163 
Q 2881 3666 2632 3958 
Q 2384 4250 1959 4250 
Q 1534 4250 1286 3958 
Q 1038 3666 1038 3163 
Q 1038 2656 1286 2365 
Q 1534 2075 1959 2075 
z
" transform="scale(0.015625)"/>
      <path id="DejaVuSans-35" d="M 691 4666 
L 3169 4666 
L 3169 4134 
L 1269 4134 
L 1269 2991 
Q 1406 3038 1543 3061 
Q 1681 3084 1819 3084 
Q 2600 3084 3056 2656 
Q 3513 2228 3513 1497 
Q 3513 744 3044 326 
Q 2575 -91 1722 -91 
Q 1428 -91 1123 -41 
Q 819 9 494 109 
L 494 744 
Q 775 591 1075 516 
Q 1375 441 1709 441 
Q 2250 441 2565 725 
Q 2881 1009 2881 1497 
Q 2881 1984 2565 2268 
Q 2250 2553 1709 2553 
Q 1456 2553 1204 2497 
Q 953 2441 691 2322 
L 691 4666 
z
" transform="scale(0.015625)"/>
     </defs>
     <use xlink:href="#DejaVuSans-6d"/>
     <use xlink:href="#DejaVuSans-65" transform="translate(97.412109 0)"/>
     <use xlink:href="#DejaVuSans-61" transform="translate(158.935547 0)"/>
     <use xlink:href="#DejaVuSans-6e" transform="translate(220.214844 0)"/>
     <use xlink:href="#DejaVuSans-3a" transform="translate(283.59375 0)"/>
     <use xlink:href="#DejaVuSans-20" transform="translate(317.285156 0)"/>
     <use xlink:href="#DejaVuSans-30" transform="translate(349.072266 0)"/>
     <use xlink:href="#DejaVuSans-2e" transform="translate(412.695312 0)"/>
     <use xlink:href="#DejaVuSans-39" transform="translate(444.482422 0)"/>
     <use xlink:href="#DejaVuSans-35" transform="translate(508.105469 0)"/>
    </g>
   </g>
   <g id="text_12">
    <g id="patch_13">
     <path d="M 447.862812 188.812243 
L 496.08 188.812243 
Q 501.08 188.812243 501.08 183.812243 
L 501.08 174.134118 
Q 501.08 169.134118 496.08 169.134118 
L 447.862812 169.134118 
Q 442.862812 169.134118 442.862812 174.134118 
L 442.862812 183.812243 
Q 442.862812 188.812243 447.862812 188.812243 
z
" style="fill: #ffffff; opacity: 0.8; stroke: #008000; stroke-linejoin: miter"/>
    </g>
    <!-- scale: 0.6 -->
    <g transform="translate(447.862812 181.732555) scale(0.1 -0.1)">
     <defs>
      <path id="DejaVuSans-36" d="M 2113 2584 
Q 1688 2584 1439 2293 
Q 1191 2003 1191 1497 
Q 1191 994 1439 701 
Q 1688 409 2113 409 
Q 2538 409 2786 701 
Q 3034 994 3034 1497 
Q 3034 2003 2786 2293 
Q 2538 2584 2113 2584 
z
M 3366 4563 
L 3366 3988 
Q 3128 4100 2886 4159 
Q 2644 4219 2406 4219 
Q 1781 4219 1451 3797 
Q 1122 3375 1075 2522 
Q 1259 2794 1537 2939 
Q 1816 3084 2150 3084 
Q 2853 3084 3261 2657 
Q 3669 2231 3669 1497 
Q 3669 778 3244 343 
Q 2819 -91 2113 -91 
Q 1303 -91 875 529 
Q 447 1150 447 2328 
Q 447 3434 972 4092 
Q 1497 4750 2381 4750 
Q 2619 4750 2861 4703 
Q 3103 4656 3366 4563 
z
" transform="scale(0.015625)"/>
     </defs>
     <use xlink:href="#DejaVuSans-73"/>
     <use xlink:href="#DejaVuSans-63" transform="translate(52.099609 0)"/>
     <use xlink:href="#DejaVuSans-61" transform="translate(107.080078 0)"/>
     <use xlink:href="#DejaVuSans-6c" transform="translate(168.359375 0)"/>
     <use xlink:href="#DejaVuSans-65" transform="translate(196.142578 0)"/>
     <use xlink:href="#DejaVuSans-3a" transform="translate(257.666016 0)"/>
     <use xlink:href="#DejaVuSans-20" transform="translate(291.357422 0)"/>
     <use xlink:href="#DejaVuSans-30" transform="translate(323.144531 0)"/>
     <use xlink:href="#DejaVuSans-2e" transform="translate(386.767578 0)"/>
     <use xlink:href="#DejaVuSans-36" transform="translate(418.554688 0)"/>
    </g>
   </g>
  </g>
  <g id="axes_3">
   <g id="patch_14">
    <path d="M 72 384.48 
L 518.4 384.48 
L 518.4 286.644706 
L 72 286.644706 
z
" style="fill: #ffffff"/>
   </g>
   <g id="patch_15">
    <path d="M 92.290909 384.48 
L 92.290909 384.48 
L 100.572913 384.48 
L 100.572913 384.48 
L 108.854917 384.48 
L 108.854917 383.153645 
L 117.13692 383.153645 
L 117.13692 382.490467 
L 125.418924 382.490467 
L 125.418924 378.5114 
L 133.700928 378.5114 
L 133.700928 378.842989 
L 141.982931 378.842989 
L 141.982931 377.516634 
L 150.264935 377.516634 
L 150.264935 373.537568 
L 158.546939 373.537568 
L 158.546939 371.548034 
L 166.828942 371.548034 
L 166.828942 370.884857 
L 175.110946 370.884857 
L 175.110946 361.600368 
L 183.39295 361.600368 
L 183.39295 365.247846 
L 191.674954 365.247846 
L 191.674954 365.911024 
L 199.956957 365.911024 
L 199.956957 362.926724 
L 208.238961 362.926724 
L 208.238961 360.937191 
L 216.520965 360.937191 
L 216.520965 367.568968 
L 224.802968 367.568968 
L 224.802968 366.242613 
L 233.084972 366.242613 
L 233.084972 368.232146 
L 241.366976 368.232146 
L 241.366976 372.542801 
L 249.64898 372.542801 
L 249.64898 370.221679 
L 257.930983 370.221679 
L 257.930983 375.195512 
L 266.212987 375.195512 
L 266.212987 368.895323 
L 274.494991 368.895323 
L 274.494991 373.869156 
L 282.776994 373.869156 
L 282.776994 375.85869 
L 291.058998 375.85869 
L 291.058998 377.848223 
L 299.341002 377.848223 
L 299.341002 378.5114 
L 307.623006 378.5114 
L 307.623006 377.848223 
L 315.905009 377.848223 
L 315.905009 380.500934 
L 324.187013 380.500934 
L 324.187013 380.169345 
L 332.469017 380.169345 
L 332.469017 380.169345 
L 340.75102 380.169345 
L 340.75102 382.822056 
L 349.033024 382.822056 
L 349.033024 382.490467 
L 357.315028 382.490467 
L 357.315028 379.837756 
L 365.597032 379.837756 
L 365.597032 383.153645 
L 373.879035 383.153645 
L 373.879035 383.153645 
L 382.161039 383.153645 
L 382.161039 383.153645 
L 390.443043 383.153645 
L 390.443043 384.148411 
L 398.725046 384.148411 
L 398.725046 384.48 
L 407.00705 384.48 
L 407.00705 384.148411 
L 415.289054 384.148411 
L 415.289054 384.48 
L 423.571058 384.48 
L 423.571058 384.48 
L 431.853061 384.48 
L 431.853061 384.48 
L 440.135065 384.48 
L 440.135065 384.48 
L 448.417069 384.48 
L 448.417069 384.48 
L 456.699072 384.48 
L 456.699072 384.48 
L 464.981076 384.48 
L 464.981076 384.48 
L 473.26308 384.48 
L 473.26308 384.48 
L 481.545083 384.48 
L 481.545083 384.48 
L 489.827087 384.48 
L 489.827087 384.48 
L 498.109091 384.48 
L 498.109091 384.48 
L 489.827087 384.48 
L 489.827087 384.48 
L 481.545083 384.48 
L 481.545083 384.48 
L 473.26308 384.48 
L 473.26308 384.48 
L 464.981076 384.48 
L 464.981076 384.48 
L 456.699072 384.48 
L 456.699072 384.48 
L 448.417069 384.48 
L 448.417069 384.48 
L 440.135065 384.48 
L 440.135065 384.48 
L 431.853061 384.48 
L 431.853061 384.48 
L 423.571058 384.48 
L 423.571058 384.48 
L 415.289054 384.48 
L 415.289054 384.48 
L 407.00705 384.48 
L 407.00705 384.48 
L 398.725046 384.48 
L 398.725046 384.48 
L 390.443043 384.48 
L 390.443043 384.48 
L 382.161039 384.48 
L 382.161039 384.48 
L 373.879035 384.48 
L 373.879035 384.48 
L 365.597032 384.48 
L 365.597032 384.48 
L 357.315028 384.48 
L 357.315028 384.48 
L 349.033024 384.48 
L 349.033024 384.48 
L 340.75102 384.48 
L 340.75102 384.48 
L 332.469017 384.48 
L 332.469017 384.48 
L 324.187013 384.48 
L 324.187013 384.48 
L 315.905009 384.48 
L 315.905009 384.48 
L 307.623006 384.48 
L 307.623006 384.48 
L 299.341002 384.48 
L 299.341002 384.48 
L 291.058998 384.48 
L 291.058998 384.48 
L 282.776994 384.48 
L 282.776994 384.48 
L 274.494991 384.48 
L 274.494991 384.48 
L 266.212987 384.48 
L 266.212987 384.48 
L 257.930983 384.48 
L 257.930983 384.48 
L 249.64898 384.48 
L 249.64898 384.48 
L 241.366976 384.48 
L 241.366976 384.48 
L 233.084972 384.48 
L 233.084972 384.48 
L 224.802968 384.48 
L 224.802968 384.48 
L 216.520965 384.48 
L 216.520965 384.48 
L 208.238961 384.48 
L 208.238961 384.48 
L 199.956957 384.48 
L 199.956957 384.48 
L 191.674954 384.48 
L 191.674954 384.48 
L 183.39295 384.48 
L 183.39295 384.48 
L 175.110946 384.48 
L 175.110946 384.48 
L 166.828942 384.48 
L 166.828942 384.48 
L 158.546939 384.48 
L 158.546939 384.48 
L 150.264935 384.48 
L 150.264935 384.48 
L 141.982931 384.48 
L 141.982931 384.48 
L 133.700928 384.48 
L 133.700928 384.48 
L 125.418924 384.48 
L 125.418924 384.48 
L 117.13692 384.48 
L 117.13692 384.48 
L 108.854917 384.48 
L 108.854917 384.48 
L 100.572913 384.48 
L 100.572913 384.48 
z
" clip-path="url(#pedadbbf51f)" style="fill: #0000ff; opacity: 0.3; stroke: #0000ff; stroke-width: 1.5; stroke-linejoin: miter"/>
   </g>
   <g id="matplotlib.axis_5">
    <g id="xtick_13">
     <g id="line2d_39">
      <path d="M 92.290909 384.48 
L 92.290909 286.644706 
" clip-path="url(#pedadbbf51f)" style="fill: none; stroke: #b0b0b0; stroke-opacity: 0; stroke-width: 0.8; stroke-linecap: square"/>
     </g>
     <g id="line2d_40">
      <g>
       <use xlink:href="#mb8451a199c" x="92.290909" y="384.48" style="stroke: #000000; stroke-width: 0.8"/>
      </g>
     </g>
     <g id="text_13">
      <!-- 0 -->
      <g transform="translate(89.109659 399.078438) scale(0.1 -0.1)">
       <use xlink:href="#DejaVuSans-30"/>
      </g>
     </g>
    </g>
    <g id="xtick_14">
     <g id="line2d_41">
      <path d="M 175.110946 384.48 
L 175.110946 286.644706 
" clip-path="url(#pedadbbf51f)" style="fill: none; stroke: #b0b0b0; stroke-opacity: 0; stroke-width: 0.8; stroke-linecap: square"/>
     </g>
     <g id="line2d_42">
      <g>
       <use xlink:href="#mb8451a199c" x="175.110946" y="384.48" style="stroke: #000000; stroke-width: 0.8"/>
      </g>
     </g>
     <g id="text_14">
      <!-- 1 -->
      <g transform="translate(171.929696 399.078438) scale(0.1 -0.1)">
       <use xlink:href="#DejaVuSans-31"/>
      </g>
     </g>
    </g>
    <g id="xtick_15">
     <g id="line2d_43">
      <path d="M 257.930983 384.48 
L 257.930983 286.644706 
" clip-path="url(#pedadbbf51f)" style="fill: none; stroke: #b0b0b0; stroke-opacity: 0; stroke-width: 0.8; stroke-linecap: square"/>
     </g>
     <g id="line2d_44">
      <g>
       <use xlink:href="#mb8451a199c" x="257.930983" y="384.48" style="stroke: #000000; stroke-width: 0.8"/>
      </g>
     </g>
     <g id="text_15">
      <!-- 2 -->
      <g transform="translate(254.749733 399.078438) scale(0.1 -0.1)">
       <use xlink:href="#DejaVuSans-32"/>
      </g>
     </g>
    </g>
    <g id="xtick_16">
     <g id="line2d_45">
      <path d="M 340.75102 384.48 
L 340.75102 286.644706 
" clip-path="url(#pedadbbf51f)" style="fill: none; stroke: #b0b0b0; stroke-opacity: 0; stroke-width: 0.8; stroke-linecap: square"/>
     </g>
     <g id="line2d_46">
      <g>
       <use xlink:href="#mb8451a199c" x="340.75102" y="384.48" style="stroke: #000000; stroke-width: 0.8"/>
      </g>
     </g>
     <g id="text_16">
      <!-- 3 -->
      <g transform="translate(337.56977 399.078438) scale(0.1 -0.1)">
       <use xlink:href="#DejaVuSans-33"/>
      </g>
     </g>
    </g>
    <g id="xtick_17">
     <g id="line2d_47">
      <path d="M 423.571058 384.48 
L 423.571058 286.644706 
" clip-path="url(#pedadbbf51f)" style="fill: none; stroke: #b0b0b0; stroke-opacity: 0; stroke-width: 0.8; stroke-linecap: square"/>
     </g>
     <g id="line2d_48">
      <g>
       <use xlink:href="#mb8451a199c" x="423.571058" y="384.48" style="stroke: #000000; stroke-width: 0.8"/>
      </g>
     </g>
     <g id="text_17">
      <!-- 4 -->
      <g transform="translate(420.389808 399.078438) scale(0.1 -0.1)">
       <defs>
        <path id="DejaVuSans-34" d="M 2419 4116 
L 825 1625 
L 2419 1625 
L 2419 4116 
z
M 2253 4666 
L 3047 4666 
L 3047 1625 
L 3713 1625 
L 3713 1100 
L 3047 1100 
L 3047 0 
L 2419 0 
L 2419 1100 
L 313 1100 
L 313 1709 
L 2253 4666 
z
" transform="scale(0.015625)"/>
       </defs>
       <use xlink:href="#DejaVuSans-34"/>
      </g>
     </g>
    </g>
    <g id="xtick_18">
     <g id="line2d_49">
      <path d="M 506.391095 384.48 
L 506.391095 286.644706 
" clip-path="url(#pedadbbf51f)" style="fill: none; stroke: #b0b0b0; stroke-opacity: 0; stroke-width: 0.8; stroke-linecap: square"/>
     </g>
     <g id="line2d_50">
      <g>
       <use xlink:href="#mb8451a199c" x="506.391095" y="384.48" style="stroke: #000000; stroke-width: 0.8"/>
      </g>
     </g>
     <g id="text_18">
      <!-- 5 -->
      <g transform="translate(503.209845 399.078438) scale(0.1 -0.1)">
       <use xlink:href="#DejaVuSans-35"/>
      </g>
     </g>
    </g>
    <g id="text_19">
     <!-- Particle Velocity -->
     <g transform="translate(255.521875 412.756563) scale(0.1 -0.1)">
      <defs>
       <path id="DejaVuSans-56" d="M 1831 0 
L 50 4666 
L 709 4666 
L 2188 738 
L 3669 4666 
L 4325 4666 
L 2547 0 
L 1831 0 
z
" transform="scale(0.015625)"/>
       <path id="DejaVuSans-6f" d="M 1959 3097 
Q 1497 3097 1228 2736 
Q 959 2375 959 1747 
Q 959 1119 1226 758 
Q 1494 397 1959 397 
Q 2419 397 2687 759 
Q 2956 1122 2956 1747 
Q 2956 2369 2687 2733 
Q 2419 3097 1959 3097 
z
M 1959 3584 
Q 2709 3584 3137 3096 
Q 3566 2609 3566 1747 
Q 3566 888 3137 398 
Q 2709 -91 1959 -91 
Q 1206 -91 779 398 
Q 353 888 353 1747 
Q 353 2609 779 3096 
Q 1206 3584 1959 3584 
z
" transform="scale(0.015625)"/>
       <path id="DejaVuSans-79" d="M 2059 -325 
Q 1816 -950 1584 -1140 
Q 1353 -1331 966 -1331 
L 506 -1331 
L 506 -850 
L 844 -850 
Q 1081 -850 1212 -737 
Q 1344 -625 1503 -206 
L 1606 56 
L 191 3500 
L 800 3500 
L 1894 763 
L 2988 3500 
L 3597 3500 
L 2059 -325 
z
" transform="scale(0.015625)"/>
      </defs>
      <use xlink:href="#DejaVuSans-50"/>
      <use xlink:href="#DejaVuSans-61" transform="translate(55.802734 0)"/>
      <use xlink:href="#DejaVuSans-72" transform="translate(117.082031 0)"/>
      <use xlink:href="#DejaVuSans-74" transform="translate(158.195312 0)"/>
      <use xlink:href="#DejaVuSans-69" transform="translate(197.404297 0)"/>
      <use xlink:href="#DejaVuSans-63" transform="translate(225.1875 0)"/>
      <use xlink:href="#DejaVuSans-6c" transform="translate(280.167969 0)"/>
      <use xlink:href="#DejaVuSans-65" transform="translate(307.951172 0)"/>
      <use xlink:href="#DejaVuSans-20" transform="translate(369.474609 0)"/>
      <use xlink:href="#DejaVuSans-56" transform="translate(401.261719 0)"/>
      <use xlink:href="#DejaVuSans-65" transform="translate(461.919922 0)"/>
      <use xlink:href="#DejaVuSans-6c" transform="translate(523.443359 0)"/>
      <use xlink:href="#DejaVuSans-6f" transform="translate(551.226562 0)"/>
      <use xlink:href="#DejaVuSans-63" transform="translate(612.408203 0)"/>
      <use xlink:href="#DejaVuSans-69" transform="translate(667.388672 0)"/>
      <use xlink:href="#DejaVuSans-74" transform="translate(695.171875 0)"/>
      <use xlink:href="#DejaVuSans-79" transform="translate(734.380859 0)"/>
     </g>
    </g>
   </g>
   <g id="matplotlib.axis_6">
    <g id="ytick_7">
     <g id="line2d_51">
      <path d="M 72 384.48 
L 518.4 384.48 
" clip-path="url(#pedadbbf51f)" style="fill: none; stroke: #b0b0b0; stroke-opacity: 0.5; stroke-width: 0.5; stroke-linecap: square"/>
     </g>
     <g id="line2d_52">
      <g>
       <use xlink:href="#m98e31cf676" x="72" y="384.48" style="stroke: #000000; stroke-width: 0.8"/>
      </g>
     </g>
     <g id="text_20">
      <!-- 0 -->
      <g transform="translate(58.6375 388.279219) scale(0.1 -0.1)">
       <use xlink:href="#DejaVuSans-30"/>
      </g>
     </g>
    </g>
    <g id="ytick_8">
     <g id="line2d_53">
      <path d="M 72 351.321114 
L 518.4 351.321114 
" clip-path="url(#pedadbbf51f)" style="fill: none; stroke: #b0b0b0; stroke-opacity: 0.5; stroke-width: 0.5; stroke-linecap: square"/>
     </g>
     <g id="line2d_54">
      <g>
       <use xlink:href="#m98e31cf676" x="72" y="351.321114" style="stroke: #000000; stroke-width: 0.8"/>
      </g>
     </g>
     <g id="text_21">
      <!-- 100 -->
      <g transform="translate(45.9125 355.120332) scale(0.1 -0.1)">
       <use xlink:href="#DejaVuSans-31"/>
       <use xlink:href="#DejaVuSans-30" transform="translate(63.623047 0)"/>
       <use xlink:href="#DejaVuSans-30" transform="translate(127.246094 0)"/>
      </g>
     </g>
    </g>
    <g id="ytick_9">
     <g id="line2d_55">
      <path d="M 72 318.162227 
L 518.4 318.162227 
" clip-path="url(#pedadbbf51f)" style="fill: none; stroke: #b0b0b0; stroke-opacity: 0.5; stroke-width: 0.5; stroke-linecap: square"/>
     </g>
     <g id="line2d_56">
      <g>
       <use xlink:href="#m98e31cf676" x="72" y="318.162227" style="stroke: #000000; stroke-width: 0.8"/>
      </g>
     </g>
     <g id="text_22">
      <!-- 200 -->
      <g transform="translate(45.9125 321.961446) scale(0.1 -0.1)">
       <use xlink:href="#DejaVuSans-32"/>
       <use xlink:href="#DejaVuSans-30" transform="translate(63.623047 0)"/>
       <use xlink:href="#DejaVuSans-30" transform="translate(127.246094 0)"/>
      </g>
     </g>
    </g>
    <g id="text_23">
     <!-- Particle Number -->
     <g transform="translate(39.832812 375.71079) rotate(-90) scale(0.1 -0.1)">
      <use xlink:href="#DejaVuSans-50"/>
      <use xlink:href="#DejaVuSans-61" transform="translate(55.802734 0)"/>
      <use xlink:href="#DejaVuSans-72" transform="translate(117.082031 0)"/>
      <use xlink:href="#DejaVuSans-74" transform="translate(158.195312 0)"/>
      <use xlink:href="#DejaVuSans-69" transform="translate(197.404297 0)"/>
      <use xlink:href="#DejaVuSans-63" transform="translate(225.1875 0)"/>
      <use xlink:href="#DejaVuSans-6c" transform="translate(280.167969 0)"/>
      <use xlink:href="#DejaVuSans-65" transform="translate(307.951172 0)"/>
      <use xlink:href="#DejaVuSans-20" transform="translate(369.474609 0)"/>
      <use xlink:href="#DejaVuSans-4e" transform="translate(401.261719 0)"/>
      <use xlink:href="#DejaVuSans-75" transform="translate(476.066406 0)"/>
      <use xlink:href="#DejaVuSans-6d" transform="translate(539.445312 0)"/>
      <use xlink:href="#DejaVuSans-62" transform="translate(636.857422 0)"/>
      <use xlink:href="#DejaVuSans-65" transform="translate(700.333984 0)"/>
      <use xlink:href="#DejaVuSans-72" transform="translate(761.857422 0)"/>
     </g>
    </g>
   </g>
   <g id="line2d_57">
    <path d="M 226.016966 384.48 
L 226.016966 286.644706 
" clip-path="url(#pedadbbf51f)" style="fill: none; stroke-dasharray: 5.55,2.4; stroke-dashoffset: 0; stroke: #0000ff; stroke-opacity: 0.8; stroke-width: 1.5"/>
   </g>
   <g id="patch_16">
    <path d="M 72 384.48 
L 72 286.644706 
" style="fill: none; stroke: #000000; stroke-width: 0.8; stroke-linejoin: miter; stroke-linecap: square"/>
   </g>
   <g id="patch_17">
    <path d="M 72 384.48 
L 518.4 384.48 
" style="fill: none; stroke: #000000; stroke-width: 0.8; stroke-linejoin: miter; stroke-linecap: square"/>
   </g>
   <g id="text_24">
    <g id="patch_18">
     <path d="M 197.431029 316.998125 
L 254.602904 316.998125 
Q 260.602904 316.998125 260.602904 310.998125 
L 260.602904 301.32 
Q 260.602904 295.32 254.602904 295.32 
L 197.431029 295.32 
Q 191.431029 295.32 191.431029 301.32 
L 191.431029 310.998125 
Q 191.431029 316.998125 197.431029 316.998125 
z
" style="fill: #ffffff; opacity: 0.8; stroke: #0000ff; stroke-linejoin: miter"/>
    </g>
    <!-- mean: 1.61 -->
    <g transform="translate(197.431029 308.918437) scale(0.1 -0.1)">
     <use xlink:href="#DejaVuSans-6d"/>
     <use xlink:href="#DejaVuSans-65" transform="translate(97.412109 0)"/>
     <use xlink:href="#DejaVuSans-61" transform="translate(158.935547 0)"/>
     <use xlink:href="#DejaVuSans-6e" transform="translate(220.214844 0)"/>
     <use xlink:href="#DejaVuSans-3a" transform="translate(283.59375 0)"/>
     <use xlink:href="#DejaVuSans-20" transform="translate(317.285156 0)"/>
     <use xlink:href="#DejaVuSans-31" transform="translate(349.072266 0)"/>
     <use xlink:href="#DejaVuSans-2e" transform="translate(412.695312 0)"/>
     <use xlink:href="#DejaVuSans-36" transform="translate(444.482422 0)"/>
     <use xlink:href="#DejaVuSans-31" transform="translate(508.105469 0)"/>
    </g>
   </g>
   <g id="text_25">
    <g id="patch_19">
     <path d="M 447.862812 306.214596 
L 496.08 306.214596 
Q 501.08 306.214596 501.08 301.214596 
L 501.08 291.536471 
Q 501.08 286.536471 496.08 286.536471 
L 447.862812 286.536471 
Q 442.862812 286.536471 442.862812 291.536471 
L 442.862812 301.214596 
Q 442.862812 306.214596 447.862812 306.214596 
z
" style="fill: #ffffff; opacity: 0.8; stroke: #0000ff; stroke-linejoin: miter"/>
    </g>
    <!-- scale: 1.0 -->
    <g transform="translate(447.862812 299.134908) scale(0.1 -0.1)">
     <use xlink:href="#DejaVuSans-73"/>
     <use xlink:href="#DejaVuSans-63" transform="translate(52.099609 0)"/>
     <use xlink:href="#DejaVuSans-61" transform="translate(107.080078 0)"/>
     <use xlink:href="#DejaVuSans-6c" transform="translate(168.359375 0)"/>
     <use xlink:href="#DejaVuSans-65" transform="translate(196.142578 0)"/>
     <use xlink:href="#DejaVuSans-3a" transform="translate(257.666016 0)"/>
     <use xlink:href="#DejaVuSans-20" transform="translate(291.357422 0)"/>
     <use xlink:href="#DejaVuSans-31" transform="translate(323.144531 0)"/>
     <use xlink:href="#DejaVuSans-2e" transform="translate(386.767578 0)"/>
     <use xlink:href="#DejaVuSans-30" transform="translate(418.554688 0)"/>
    </g>
   </g>
  </g>
 </g>
 <defs>
  <clipPath id="pafcbc25a17">
   <rect x="72" y="51.84" width="446.4" height="97.835294"/>
  </clipPath>
  <clipPath id="p22eff487ab">
   <rect x="72" y="169.242353" width="446.4" height="97.835294"/>
  </clipPath>
  <clipPath id="pedadbbf51f">
   <rect x="72" y="286.644706" width="446.4" height="97.835294"/>
  </clipPath>
 </defs>
</svg>
