<?xml version="1.0" encoding="utf-8" standalone="no"?>
<!DOCTYPE svg PUBLIC "-//W3C//DTD SVG 1.1//EN"
  "http://www.w3.org/Graphics/SVG/1.1/DTD/svg11.dtd">
<svg xmlns:xlink="http://www.w3.org/1999/xlink" width="460.8pt" height="345.6pt" viewBox="0 0 460.8 345.6" xmlns="http://www.w3.org/2000/svg" version="1.1">
 <metadata>
  <rdf:RDF xmlns:dc="http://purl.org/dc/elements/1.1/" xmlns:cc="http://creativecommons.org/ns#" xmlns:rdf="http://www.w3.org/1999/02/22-rdf-syntax-ns#">
   <cc:Work>
    <dc:type rdf:resource="http://purl.org/dc/dcmitype/StillImage"/>
    <dc:date>2025-11-12T15:57:57.275522</dc:date>
    <dc:format>image/svg+xml</dc:format>
    <dc:creator>
     <cc:Agent>
      <dc:title>Matplotlib v3.10.6, https://matplotlib.org/</dc:title>
     </cc:Agent>
    </dc:creator>
   </cc:Work>
  </rdf:RDF>
 </metadata>
 <defs>
  <style type="text/css">*{stroke-linejoin: round; stroke-linecap: butt}</style>
 </defs>
 <g id="figure_1">
  <g id="patch_1">
   <path d="M 0 345.6 
L 460.8 345.6 
L 460.8 0 
L 0 0 
z
" style="fill: #ffffff"/>
  </g>
  <g id="axes_1">
   <g id="patch_2">
    <path d="M 57.6 307.584 
L 414.72 307.584 
L 414.72 41.472 
L 57.6 41.472 
z
" style="fill: #ffffff"/>
   </g>
   <g id="patch_3">
    <path d="M 73.832727 307.584 
L 80.45833 307.584 
L 80.45833 304.064 
L 73.832727 304.064 
z
" clip-path="url(#p1cc185a525)" style="fill: #1f77b4; opacity: 0.7"/>
   </g>
   <g id="patch_4">
    <path d="M 80.45833 307.584 
L 87.083933 307.584 
L 87.083933 230.144 
L 80.45833 230.144 
z
" clip-path="url(#p1cc185a525)" style="fill: #1f77b4; opacity: 0.7"/>
   </g>
   <g id="patch_5">
    <path d="M 87.083933 307.584 
L 93.709536 307.584 
L 93.709536 94.624 
L 87.083933 94.624 
z
" clip-path="url(#p1cc185a525)" style="fill: #1f77b4; opacity: 0.7"/>
   </g>
   <g id="patch_6">
    <path d="M 93.709536 307.584 
L 100.335139 307.584 
L 100.335139 54.144 
L 93.709536 54.144 
z
" clip-path="url(#p1cc185a525)" style="fill: #1f77b4; opacity: 0.7"/>
   </g>
   <g id="patch_7">
    <path d="M 100.335139 307.584 
L 106.960742 307.584 
L 106.960742 99.904 
L 100.335139 99.904 
z
" clip-path="url(#p1cc185a525)" style="fill: #1f77b4; opacity: 0.7"/>
   </g>
   <g id="patch_8">
    <path d="M 106.960742 307.584 
L 113.586345 307.584 
L 113.586345 224.864 
L 106.960742 224.864 
z
" clip-path="url(#p1cc185a525)" style="fill: #1f77b4; opacity: 0.7"/>
   </g>
   <g id="patch_9">
    <path d="M 113.586345 307.584 
L 120.211948 307.584 
L 120.211948 275.904 
L 113.586345 275.904 
z
" clip-path="url(#p1cc185a525)" style="fill: #1f77b4; opacity: 0.7"/>
   </g>
   <g id="patch_10">
    <path d="M 120.211948 307.584 
L 126.837551 307.584 
L 126.837551 298.784 
L 120.211948 298.784 
z
" clip-path="url(#p1cc185a525)" style="fill: #1f77b4; opacity: 0.7"/>
   </g>
   <g id="patch_11">
    <path d="M 126.837551 307.584 
L 133.463154 307.584 
L 133.463154 305.824 
L 126.837551 305.824 
z
" clip-path="url(#p1cc185a525)" style="fill: #1f77b4; opacity: 0.7"/>
   </g>
   <g id="patch_12">
    <path d="M 133.463154 307.584 
L 140.088757 307.584 
L 140.088757 307.584 
L 133.463154 307.584 
z
" clip-path="url(#p1cc185a525)" style="fill: #1f77b4; opacity: 0.7"/>
   </g>
   <g id="patch_13">
    <path d="M 140.088757 307.584 
L 146.71436 307.584 
L 146.71436 307.584 
L 140.088757 307.584 
z
" clip-path="url(#p1cc185a525)" style="fill: #1f77b4; opacity: 0.7"/>
   </g>
   <g id="patch_14">
    <path d="M 146.71436 307.584 
L 153.339963 307.584 
L 153.339963 307.584 
L 146.71436 307.584 
z
" clip-path="url(#p1cc185a525)" style="fill: #1f77b4; opacity: 0.7"/>
   </g>
   <g id="patch_15">
    <path d="M 153.339963 307.584 
L 159.965566 307.584 
L 159.965566 307.584 
L 153.339963 307.584 
z
" clip-path="url(#p1cc185a525)" style="fill: #1f77b4; opacity: 0.7"/>
   </g>
   <g id="patch_16">
    <path d="M 159.965566 307.584 
L 166.591169 307.584 
L 166.591169 307.584 
L 159.965566 307.584 
z
" clip-path="url(#p1cc185a525)" style="fill: #1f77b4; opacity: 0.7"/>
   </g>
   <g id="patch_17">
    <path d="M 166.591169 307.584 
L 173.216772 307.584 
L 173.216772 307.584 
L 166.591169 307.584 
z
" clip-path="url(#p1cc185a525)" style="fill: #1f77b4; opacity: 0.7"/>
   </g>
   <g id="patch_18">
    <path d="M 173.216772 307.584 
L 179.842375 307.584 
L 179.842375 307.584 
L 173.216772 307.584 
z
" clip-path="url(#p1cc185a525)" style="fill: #1f77b4; opacity: 0.7"/>
   </g>
   <g id="patch_19">
    <path d="M 179.842375 307.584 
L 186.467978 307.584 
L 186.467978 307.584 
L 179.842375 307.584 
z
" clip-path="url(#p1cc185a525)" style="fill: #1f77b4; opacity: 0.7"/>
   </g>
   <g id="patch_20">
    <path d="M 186.467978 307.584 
L 193.093581 307.584 
L 193.093581 307.584 
L 186.467978 307.584 
z
" clip-path="url(#p1cc185a525)" style="fill: #1f77b4; opacity: 0.7"/>
   </g>
   <g id="patch_21">
    <path d="M 193.093581 307.584 
L 199.719184 307.584 
L 199.719184 307.584 
L 193.093581 307.584 
z
" clip-path="url(#p1cc185a525)" style="fill: #1f77b4; opacity: 0.7"/>
   </g>
   <g id="patch_22">
    <path d="M 199.719184 307.584 
L 206.344787 307.584 
L 206.344787 307.584 
L 199.719184 307.584 
z
" clip-path="url(#p1cc185a525)" style="fill: #1f77b4; opacity: 0.7"/>
   </g>
   <g id="patch_23">
    <path d="M 206.344787 307.584 
L 212.97039 307.584 
L 212.97039 307.584 
L 206.344787 307.584 
z
" clip-path="url(#p1cc185a525)" style="fill: #1f77b4; opacity: 0.7"/>
   </g>
   <g id="patch_24">
    <path d="M 212.97039 307.584 
L 219.595993 307.584 
L 219.595993 307.584 
L 212.97039 307.584 
z
" clip-path="url(#p1cc185a525)" style="fill: #1f77b4; opacity: 0.7"/>
   </g>
   <g id="patch_25">
    <path d="M 219.595993 307.584 
L 226.221596 307.584 
L 226.221596 307.584 
L 219.595993 307.584 
z
" clip-path="url(#p1cc185a525)" style="fill: #1f77b4; opacity: 0.7"/>
   </g>
   <g id="patch_26">
    <path d="M 226.221596 307.584 
L 232.847199 307.584 
L 232.847199 307.584 
L 226.221596 307.584 
z
" clip-path="url(#p1cc185a525)" style="fill: #1f77b4; opacity: 0.7"/>
   </g>
   <g id="patch_27">
    <path d="M 232.847199 307.584 
L 239.472801 307.584 
L 239.472801 307.584 
L 232.847199 307.584 
z
" clip-path="url(#p1cc185a525)" style="fill: #1f77b4; opacity: 0.7"/>
   </g>
   <g id="patch_28">
    <path d="M 239.472801 307.584 
L 246.098404 307.584 
L 246.098404 307.584 
L 239.472801 307.584 
z
" clip-path="url(#p1cc185a525)" style="fill: #1f77b4; opacity: 0.7"/>
   </g>
   <g id="patch_29">
    <path d="M 246.098404 307.584 
L 252.724007 307.584 
L 252.724007 307.584 
L 246.098404 307.584 
z
" clip-path="url(#p1cc185a525)" style="fill: #1f77b4; opacity: 0.7"/>
   </g>
   <g id="patch_30">
    <path d="M 252.724007 307.584 
L 259.34961 307.584 
L 259.34961 307.584 
L 252.724007 307.584 
z
" clip-path="url(#p1cc185a525)" style="fill: #1f77b4; opacity: 0.7"/>
   </g>
   <g id="patch_31">
    <path d="M 259.34961 307.584 
L 265.975213 307.584 
L 265.975213 307.584 
L 259.34961 307.584 
z
" clip-path="url(#p1cc185a525)" style="fill: #1f77b4; opacity: 0.7"/>
   </g>
   <g id="patch_32">
    <path d="M 265.975213 307.584 
L 272.600816 307.584 
L 272.600816 307.584 
L 265.975213 307.584 
z
" clip-path="url(#p1cc185a525)" style="fill: #1f77b4; opacity: 0.7"/>
   </g>
   <g id="patch_33">
    <path d="M 272.600816 307.584 
L 279.226419 307.584 
L 279.226419 307.584 
L 272.600816 307.584 
z
" clip-path="url(#p1cc185a525)" style="fill: #1f77b4; opacity: 0.7"/>
   </g>
   <g id="patch_34">
    <path d="M 279.226419 307.584 
L 285.852022 307.584 
L 285.852022 307.584 
L 279.226419 307.584 
z
" clip-path="url(#p1cc185a525)" style="fill: #1f77b4; opacity: 0.7"/>
   </g>
   <g id="patch_35">
    <path d="M 285.852022 307.584 
L 292.477625 307.584 
L 292.477625 307.584 
L 285.852022 307.584 
z
" clip-path="url(#p1cc185a525)" style="fill: #1f77b4; opacity: 0.7"/>
   </g>
   <g id="patch_36">
    <path d="M 292.477625 307.584 
L 299.103228 307.584 
L 299.103228 307.584 
L 292.477625 307.584 
z
" clip-path="url(#p1cc185a525)" style="fill: #1f77b4; opacity: 0.7"/>
   </g>
   <g id="patch_37">
    <path d="M 299.103228 307.584 
L 305.728831 307.584 
L 305.728831 307.584 
L 299.103228 307.584 
z
" clip-path="url(#p1cc185a525)" style="fill: #1f77b4; opacity: 0.7"/>
   </g>
   <g id="patch_38">
    <path d="M 305.728831 307.584 
L 312.354434 307.584 
L 312.354434 307.584 
L 305.728831 307.584 
z
" clip-path="url(#p1cc185a525)" style="fill: #1f77b4; opacity: 0.7"/>
   </g>
   <g id="patch_39">
    <path d="M 312.354434 307.584 
L 318.980037 307.584 
L 318.980037 307.584 
L 312.354434 307.584 
z
" clip-path="url(#p1cc185a525)" style="fill: #1f77b4; opacity: 0.7"/>
   </g>
   <g id="patch_40">
    <path d="M 318.980037 307.584 
L 325.60564 307.584 
L 325.60564 307.584 
L 318.980037 307.584 
z
" clip-path="url(#p1cc185a525)" style="fill: #1f77b4; opacity: 0.7"/>
   </g>
   <g id="patch_41">
    <path d="M 325.60564 307.584 
L 332.231243 307.584 
L 332.231243 307.584 
L 325.60564 307.584 
z
" clip-path="url(#p1cc185a525)" style="fill: #1f77b4; opacity: 0.7"/>
   </g>
   <g id="patch_42">
    <path d="M 332.231243 307.584 
L 338.856846 307.584 
L 338.856846 307.584 
L 332.231243 307.584 
z
" clip-path="url(#p1cc185a525)" style="fill: #1f77b4; opacity: 0.7"/>
   </g>
   <g id="patch_43">
    <path d="M 338.856846 307.584 
L 345.482449 307.584 
L 345.482449 307.584 
L 338.856846 307.584 
z
" clip-path="url(#p1cc185a525)" style="fill: #1f77b4; opacity: 0.7"/>
   </g>
   <g id="patch_44">
    <path d="M 345.482449 307.584 
L 352.108052 307.584 
L 352.108052 307.584 
L 345.482449 307.584 
z
" clip-path="url(#p1cc185a525)" style="fill: #1f77b4; opacity: 0.7"/>
   </g>
   <g id="patch_45">
    <path d="M 352.108052 307.584 
L 358.733655 307.584 
L 358.733655 307.584 
L 352.108052 307.584 
z
" clip-path="url(#p1cc185a525)" style="fill: #1f77b4; opacity: 0.7"/>
   </g>
   <g id="patch_46">
    <path d="M 358.733655 307.584 
L 365.359258 307.584 
L 365.359258 307.584 
L 358.733655 307.584 
z
" clip-path="url(#p1cc185a525)" style="fill: #1f77b4; opacity: 0.7"/>
   </g>
   <g id="patch_47">
    <path d="M 365.359258 307.584 
L 371.984861 307.584 
L 371.984861 307.584 
L 365.359258 307.584 
z
" clip-path="url(#p1cc185a525)" style="fill: #1f77b4; opacity: 0.7"/>
   </g>
   <g id="patch_48">
    <path d="M 371.984861 307.584 
L 378.610464 307.584 
L 378.610464 307.584 
L 371.984861 307.584 
z
" clip-path="url(#p1cc185a525)" style="fill: #1f77b4; opacity: 0.7"/>
   </g>
   <g id="patch_49">
    <path d="M 378.610464 307.584 
L 385.236067 307.584 
L 385.236067 307.584 
L 378.610464 307.584 
z
" clip-path="url(#p1cc185a525)" style="fill: #1f77b4; opacity: 0.7"/>
   </g>
   <g id="patch_50">
    <path d="M 385.236067 307.584 
L 391.86167 307.584 
L 391.86167 307.584 
L 385.236067 307.584 
z
" clip-path="url(#p1cc185a525)" style="fill: #1f77b4; opacity: 0.7"/>
   </g>
   <g id="patch_51">
    <path d="M 391.86167 307.584 
L 398.487273 307.584 
L 398.487273 307.584 
L 391.86167 307.584 
z
" clip-path="url(#p1cc185a525)" style="fill: #1f77b4; opacity: 0.7"/>
   </g>
   <g id="patch_52">
    <path d="M 73.832727 307.584 
L 80.45833 307.584 
L 80.45833 306.704 
L 73.832727 306.704 
z
" clip-path="url(#p1cc185a525)" style="fill: #ff7f0e; opacity: 0.7"/>
   </g>
   <g id="patch_53">
    <path d="M 80.45833 307.584 
L 87.083933 307.584 
L 87.083933 304.944 
L 80.45833 304.944 
z
" clip-path="url(#p1cc185a525)" style="fill: #ff7f0e; opacity: 0.7"/>
   </g>
   <g id="patch_54">
    <path d="M 87.083933 307.584 
L 93.709536 307.584 
L 93.709536 295.264 
L 87.083933 295.264 
z
" clip-path="url(#p1cc185a525)" style="fill: #ff7f0e; opacity: 0.7"/>
   </g>
   <g id="patch_55">
    <path d="M 93.709536 307.584 
L 100.335139 307.584 
L 100.335139 274.144 
L 93.709536 274.144 
z
" clip-path="url(#p1cc185a525)" style="fill: #ff7f0e; opacity: 0.7"/>
   </g>
   <g id="patch_56">
    <path d="M 100.335139 307.584 
L 106.960742 307.584 
L 106.960742 267.984 
L 100.335139 267.984 
z
" clip-path="url(#p1cc185a525)" style="fill: #ff7f0e; opacity: 0.7"/>
   </g>
   <g id="patch_57">
    <path d="M 106.960742 307.584 
L 113.586345 307.584 
L 113.586345 249.504 
L 106.960742 249.504 
z
" clip-path="url(#p1cc185a525)" style="fill: #ff7f0e; opacity: 0.7"/>
   </g>
   <g id="patch_58">
    <path d="M 113.586345 307.584 
L 120.211948 307.584 
L 120.211948 233.664 
L 113.586345 233.664 
z
" clip-path="url(#p1cc185a525)" style="fill: #ff7f0e; opacity: 0.7"/>
   </g>
   <g id="patch_59">
    <path d="M 120.211948 307.584 
L 126.837551 307.584 
L 126.837551 225.744 
L 120.211948 225.744 
z
" clip-path="url(#p1cc185a525)" style="fill: #ff7f0e; opacity: 0.7"/>
   </g>
   <g id="patch_60">
    <path d="M 126.837551 307.584 
L 133.463154 307.584 
L 133.463154 218.704 
L 126.837551 218.704 
z
" clip-path="url(#p1cc185a525)" style="fill: #ff7f0e; opacity: 0.7"/>
   </g>
   <g id="patch_61">
    <path d="M 133.463154 307.584 
L 140.088757 307.584 
L 140.088757 219.584 
L 133.463154 219.584 
z
" clip-path="url(#p1cc185a525)" style="fill: #ff7f0e; opacity: 0.7"/>
   </g>
   <g id="patch_62">
    <path d="M 140.088757 307.584 
L 146.71436 307.584 
L 146.71436 234.544 
L 140.088757 234.544 
z
" clip-path="url(#p1cc185a525)" style="fill: #ff7f0e; opacity: 0.7"/>
   </g>
   <g id="patch_63">
    <path d="M 146.71436 307.584 
L 153.339963 307.584 
L 153.339963 236.304 
L 146.71436 236.304 
z
" clip-path="url(#p1cc185a525)" style="fill: #ff7f0e; opacity: 0.7"/>
   </g>
   <g id="patch_64">
    <path d="M 153.339963 307.584 
L 159.965566 307.584 
L 159.965566 243.344 
L 153.339963 243.344 
z
" clip-path="url(#p1cc185a525)" style="fill: #ff7f0e; opacity: 0.7"/>
   </g>
   <g id="patch_65">
    <path d="M 159.965566 307.584 
L 166.591169 307.584 
L 166.591169 260.064 
L 159.965566 260.064 
z
" clip-path="url(#p1cc185a525)" style="fill: #ff7f0e; opacity: 0.7"/>
   </g>
   <g id="patch_66">
    <path d="M 166.591169 307.584 
L 173.216772 307.584 
L 173.216772 267.984 
L 166.591169 267.984 
z
" clip-path="url(#p1cc185a525)" style="fill: #ff7f0e; opacity: 0.7"/>
   </g>
   <g id="patch_67">
    <path d="M 173.216772 307.584 
L 179.842375 307.584 
L 179.842375 273.264 
L 173.216772 273.264 
z
" clip-path="url(#p1cc185a525)" style="fill: #ff7f0e; opacity: 0.7"/>
   </g>
   <g id="patch_68">
    <path d="M 179.842375 307.584 
L 186.467978 307.584 
L 186.467978 289.104 
L 179.842375 289.104 
z
" clip-path="url(#p1cc185a525)" style="fill: #ff7f0e; opacity: 0.7"/>
   </g>
   <g id="patch_69">
    <path d="M 186.467978 307.584 
L 193.093581 307.584 
L 193.093581 284.704 
L 186.467978 284.704 
z
" clip-path="url(#p1cc185a525)" style="fill: #ff7f0e; opacity: 0.7"/>
   </g>
   <g id="patch_70">
    <path d="M 193.093581 307.584 
L 199.719184 307.584 
L 199.719184 295.264 
L 193.093581 295.264 
z
" clip-path="url(#p1cc185a525)" style="fill: #ff7f0e; opacity: 0.7"/>
   </g>
   <g id="patch_71">
    <path d="M 199.719184 307.584 
L 206.344787 307.584 
L 206.344787 298.784 
L 199.719184 298.784 
z
" clip-path="url(#p1cc185a525)" style="fill: #ff7f0e; opacity: 0.7"/>
   </g>
   <g id="patch_72">
    <path d="M 206.344787 307.584 
L 212.97039 307.584 
L 212.97039 304.064 
L 206.344787 304.064 
z
" clip-path="url(#p1cc185a525)" style="fill: #ff7f0e; opacity: 0.7"/>
   </g>
   <g id="patch_73">
    <path d="M 212.97039 307.584 
L 219.595993 307.584 
L 219.595993 307.584 
L 212.97039 307.584 
z
" clip-path="url(#p1cc185a525)" style="fill: #ff7f0e; opacity: 0.7"/>
   </g>
   <g id="patch_74">
    <path d="M 219.595993 307.584 
L 226.221596 307.584 
L 226.221596 307.584 
L 219.595993 307.584 
z
" clip-path="url(#p1cc185a525)" style="fill: #ff7f0e; opacity: 0.7"/>
   </g>
   <g id="patch_75">
    <path d="M 226.221596 307.584 
L 232.847199 307.584 
L 232.847199 306.704 
L 226.221596 306.704 
z
" clip-path="url(#p1cc185a525)" style="fill: #ff7f0e; opacity: 0.7"/>
   </g>
   <g id="patch_76">
    <path d="M 232.847199 307.584 
L 239.472801 307.584 
L 239.472801 305.824 
L 232.847199 305.824 
z
" clip-path="url(#p1cc185a525)" style="fill: #ff7f0e; opacity: 0.7"/>
   </g>
   <g id="patch_77">
    <path d="M 239.472801 307.584 
L 246.098404 307.584 
L 246.098404 307.584 
L 239.472801 307.584 
z
" clip-path="url(#p1cc185a525)" style="fill: #ff7f0e; opacity: 0.7"/>
   </g>
   <g id="patch_78">
    <path d="M 246.098404 307.584 
L 252.724007 307.584 
L 252.724007 306.704 
L 246.098404 306.704 
z
" clip-path="url(#p1cc185a525)" style="fill: #ff7f0e; opacity: 0.7"/>
   </g>
   <g id="patch_79">
    <path d="M 252.724007 307.584 
L 259.34961 307.584 
L 259.34961 307.584 
L 252.724007 307.584 
z
" clip-path="url(#p1cc185a525)" style="fill: #ff7f0e; opacity: 0.7"/>
   </g>
   <g id="patch_80">
    <path d="M 259.34961 307.584 
L 265.975213 307.584 
L 265.975213 307.584 
L 259.34961 307.584 
z
" clip-path="url(#p1cc185a525)" style="fill: #ff7f0e; opacity: 0.7"/>
   </g>
   <g id="patch_81">
    <path d="M 265.975213 307.584 
L 272.600816 307.584 
L 272.600816 306.704 
L 265.975213 306.704 
z
" clip-path="url(#p1cc185a525)" style="fill: #ff7f0e; opacity: 0.7"/>
   </g>
   <g id="patch_82">
    <path d="M 272.600816 307.584 
L 279.226419 307.584 
L 279.226419 307.584 
L 272.600816 307.584 
z
" clip-path="url(#p1cc185a525)" style="fill: #ff7f0e; opacity: 0.7"/>
   </g>
   <g id="patch_83">
    <path d="M 279.226419 307.584 
L 285.852022 307.584 
L 285.852022 307.584 
L 279.226419 307.584 
z
" clip-path="url(#p1cc185a525)" style="fill: #ff7f0e; opacity: 0.7"/>
   </g>
   <g id="patch_84">
    <path d="M 285.852022 307.584 
L 292.477625 307.584 
L 292.477625 307.584 
L 285.852022 307.584 
z
" clip-path="url(#p1cc185a525)" style="fill: #ff7f0e; opacity: 0.7"/>
   </g>
   <g id="patch_85">
    <path d="M 292.477625 307.584 
L 299.103228 307.584 
L 299.103228 307.584 
L 292.477625 307.584 
z
" clip-path="url(#p1cc185a525)" style="fill: #ff7f0e; opacity: 0.7"/>
   </g>
   <g id="patch_86">
    <path d="M 299.103228 307.584 
L 305.728831 307.584 
L 305.728831 307.584 
L 299.103228 307.584 
z
" clip-path="url(#p1cc185a525)" style="fill: #ff7f0e; opacity: 0.7"/>
   </g>
   <g id="patch_87">
    <path d="M 305.728831 307.584 
L 312.354434 307.584 
L 312.354434 307.584 
L 305.728831 307.584 
z
" clip-path="url(#p1cc185a525)" style="fill: #ff7f0e; opacity: 0.7"/>
   </g>
   <g id="patch_88">
    <path d="M 312.354434 307.584 
L 318.980037 307.584 
L 318.980037 307.584 
L 312.354434 307.584 
z
" clip-path="url(#p1cc185a525)" style="fill: #ff7f0e; opacity: 0.7"/>
   </g>
   <g id="patch_89">
    <path d="M 318.980037 307.584 
L 325.60564 307.584 
L 325.60564 307.584 
L 318.980037 307.584 
z
" clip-path="url(#p1cc185a525)" style="fill: #ff7f0e; opacity: 0.7"/>
   </g>
   <g id="patch_90">
    <path d="M 325.60564 307.584 
L 332.231243 307.584 
L 332.231243 307.584 
L 325.60564 307.584 
z
" clip-path="url(#p1cc185a525)" style="fill: #ff7f0e; opacity: 0.7"/>
   </g>
   <g id="patch_91">
    <path d="M 332.231243 307.584 
L 338.856846 307.584 
L 338.856846 307.584 
L 332.231243 307.584 
z
" clip-path="url(#p1cc185a525)" style="fill: #ff7f0e; opacity: 0.7"/>
   </g>
   <g id="patch_92">
    <path d="M 338.856846 307.584 
L 345.482449 307.584 
L 345.482449 307.584 
L 338.856846 307.584 
z
" clip-path="url(#p1cc185a525)" style="fill: #ff7f0e; opacity: 0.7"/>
   </g>
   <g id="patch_93">
    <path d="M 345.482449 307.584 
L 352.108052 307.584 
L 352.108052 307.584 
L 345.482449 307.584 
z
" clip-path="url(#p1cc185a525)" style="fill: #ff7f0e; opacity: 0.7"/>
   </g>
   <g id="patch_94">
    <path d="M 352.108052 307.584 
L 358.733655 307.584 
L 358.733655 307.584 
L 352.108052 307.584 
z
" clip-path="url(#p1cc185a525)" style="fill: #ff7f0e; opacity: 0.7"/>
   </g>
   <g id="patch_95">
    <path d="M 358.733655 307.584 
L 365.359258 307.584 
L 365.359258 307.584 
L 358.733655 307.584 
z
" clip-path="url(#p1cc185a525)" style="fill: #ff7f0e; opacity: 0.7"/>
   </g>
   <g id="patch_96">
    <path d="M 365.359258 307.584 
L 371.984861 307.584 
L 371.984861 307.584 
L 365.359258 307.584 
z
" clip-path="url(#p1cc185a525)" style="fill: #ff7f0e; opacity: 0.7"/>
   </g>
   <g id="patch_97">
    <path d="M 371.984861 307.584 
L 378.610464 307.584 
L 378.610464 307.584 
L 371.984861 307.584 
z
" clip-path="url(#p1cc185a525)" style="fill: #ff7f0e; opacity: 0.7"/>
   </g>
   <g id="patch_98">
    <path d="M 378.610464 307.584 
L 385.236067 307.584 
L 385.236067 307.584 
L 378.610464 307.584 
z
" clip-path="url(#p1cc185a525)" style="fill: #ff7f0e; opacity: 0.7"/>
   </g>
   <g id="patch_99">
    <path d="M 385.236067 307.584 
L 391.86167 307.584 
L 391.86167 307.584 
L 385.236067 307.584 
z
" clip-path="url(#p1cc185a525)" style="fill: #ff7f0e; opacity: 0.7"/>
   </g>
   <g id="patch_100">
    <path d="M 391.86167 307.584 
L 398.487273 307.584 
L 398.487273 307.584 
L 391.86167 307.584 
z
" clip-path="url(#p1cc185a525)" style="fill: #ff7f0e; opacity: 0.7"/>
   </g>
   <g id="patch_101">
    <path d="M 73.832727 307.584 
L 80.45833 307.584 
L 80.45833 307.584 
L 73.832727 307.584 
z
" clip-path="url(#p1cc185a525)" style="fill: #2ca02c; opacity: 0.7"/>
   </g>
   <g id="patch_102">
    <path d="M 80.45833 307.584 
L 87.083933 307.584 
L 87.083933 307.584 
L 80.45833 307.584 
z
" clip-path="url(#p1cc185a525)" style="fill: #2ca02c; opacity: 0.7"/>
   </g>
   <g id="patch_103">
    <path d="M 87.083933 307.584 
L 93.709536 307.584 
L 93.709536 305.824 
L 87.083933 305.824 
z
" clip-path="url(#p1cc185a525)" style="fill: #2ca02c; opacity: 0.7"/>
   </g>
   <g id="patch_104">
    <path d="M 93.709536 307.584 
L 100.335139 307.584 
L 100.335139 304.064 
L 93.709536 304.064 
z
" clip-path="url(#p1cc185a525)" style="fill: #2ca02c; opacity: 0.7"/>
   </g>
   <g id="patch_105">
    <path d="M 100.335139 307.584 
L 106.960742 307.584 
L 106.960742 300.544 
L 100.335139 300.544 
z
" clip-path="url(#p1cc185a525)" style="fill: #2ca02c; opacity: 0.7"/>
   </g>
   <g id="patch_106">
    <path d="M 106.960742 307.584 
L 113.586345 307.584 
L 113.586345 286.464 
L 106.960742 286.464 
z
" clip-path="url(#p1cc185a525)" style="fill: #2ca02c; opacity: 0.7"/>
   </g>
   <g id="patch_107">
    <path d="M 113.586345 307.584 
L 120.211948 307.584 
L 120.211948 295.264 
L 113.586345 295.264 
z
" clip-path="url(#p1cc185a525)" style="fill: #2ca02c; opacity: 0.7"/>
   </g>
   <g id="patch_108">
    <path d="M 120.211948 307.584 
L 126.837551 307.584 
L 126.837551 281.184 
L 120.211948 281.184 
z
" clip-path="url(#p1cc185a525)" style="fill: #2ca02c; opacity: 0.7"/>
   </g>
   <g id="patch_109">
    <path d="M 126.837551 307.584 
L 133.463154 307.584 
L 133.463154 276.784 
L 126.837551 276.784 
z
" clip-path="url(#p1cc185a525)" style="fill: #2ca02c; opacity: 0.7"/>
   </g>
   <g id="patch_110">
    <path d="M 133.463154 307.584 
L 140.088757 307.584 
L 140.088757 273.264 
L 133.463154 273.264 
z
" clip-path="url(#p1cc185a525)" style="fill: #2ca02c; opacity: 0.7"/>
   </g>
   <g id="patch_111">
    <path d="M 140.088757 307.584 
L 146.71436 307.584 
L 146.71436 261.824 
L 140.088757 261.824 
z
" clip-path="url(#p1cc185a525)" style="fill: #2ca02c; opacity: 0.7"/>
   </g>
   <g id="patch_112">
    <path d="M 146.71436 307.584 
L 153.339963 307.584 
L 153.339963 243.344 
L 146.71436 243.344 
z
" clip-path="url(#p1cc185a525)" style="fill: #2ca02c; opacity: 0.7"/>
   </g>
   <g id="patch_113">
    <path d="M 153.339963 307.584 
L 159.965566 307.584 
L 159.965566 261.824 
L 153.339963 261.824 
z
" clip-path="url(#p1cc185a525)" style="fill: #2ca02c; opacity: 0.7"/>
   </g>
   <g id="patch_114">
    <path d="M 159.965566 307.584 
L 166.591169 307.584 
L 166.591169 251.264 
L 159.965566 251.264 
z
" clip-path="url(#p1cc185a525)" style="fill: #2ca02c; opacity: 0.7"/>
   </g>
   <g id="patch_115">
    <path d="M 166.591169 307.584 
L 173.216772 307.584 
L 173.216772 248.624 
L 166.591169 248.624 
z
" clip-path="url(#p1cc185a525)" style="fill: #2ca02c; opacity: 0.7"/>
   </g>
   <g id="patch_116">
    <path d="M 173.216772 307.584 
L 179.842375 307.584 
L 179.842375 256.544 
L 173.216772 256.544 
z
" clip-path="url(#p1cc185a525)" style="fill: #2ca02c; opacity: 0.7"/>
   </g>
   <g id="patch_117">
    <path d="M 179.842375 307.584 
L 186.467978 307.584 
L 186.467978 258.304 
L 179.842375 258.304 
z
" clip-path="url(#p1cc185a525)" style="fill: #2ca02c; opacity: 0.7"/>
   </g>
   <g id="patch_118">
    <path d="M 186.467978 307.584 
L 193.093581 307.584 
L 193.093581 262.704 
L 186.467978 262.704 
z
" clip-path="url(#p1cc185a525)" style="fill: #2ca02c; opacity: 0.7"/>
   </g>
   <g id="patch_119">
    <path d="M 193.093581 307.584 
L 199.719184 307.584 
L 199.719184 271.504 
L 193.093581 271.504 
z
" clip-path="url(#p1cc185a525)" style="fill: #2ca02c; opacity: 0.7"/>
   </g>
   <g id="patch_120">
    <path d="M 199.719184 307.584 
L 206.344787 307.584 
L 206.344787 272.384 
L 199.719184 272.384 
z
" clip-path="url(#p1cc185a525)" style="fill: #2ca02c; opacity: 0.7"/>
   </g>
   <g id="patch_121">
    <path d="M 206.344787 307.584 
L 212.97039 307.584 
L 212.97039 277.664 
L 206.344787 277.664 
z
" clip-path="url(#p1cc185a525)" style="fill: #2ca02c; opacity: 0.7"/>
   </g>
   <g id="patch_122">
    <path d="M 212.97039 307.584 
L 219.595993 307.584 
L 219.595993 273.264 
L 212.97039 273.264 
z
" clip-path="url(#p1cc185a525)" style="fill: #2ca02c; opacity: 0.7"/>
   </g>
   <g id="patch_123">
    <path d="M 219.595993 307.584 
L 226.221596 307.584 
L 226.221596 276.784 
L 219.595993 276.784 
z
" clip-path="url(#p1cc185a525)" style="fill: #2ca02c; opacity: 0.7"/>
   </g>
   <g id="patch_124">
    <path d="M 226.221596 307.584 
L 232.847199 307.584 
L 232.847199 281.184 
L 226.221596 281.184 
z
" clip-path="url(#p1cc185a525)" style="fill: #2ca02c; opacity: 0.7"/>
   </g>
   <g id="patch_125">
    <path d="M 232.847199 307.584 
L 239.472801 307.584 
L 239.472801 282.064 
L 232.847199 282.064 
z
" clip-path="url(#p1cc185a525)" style="fill: #2ca02c; opacity: 0.7"/>
   </g>
   <g id="patch_126">
    <path d="M 239.472801 307.584 
L 246.098404 307.584 
L 246.098404 293.504 
L 239.472801 293.504 
z
" clip-path="url(#p1cc185a525)" style="fill: #2ca02c; opacity: 0.7"/>
   </g>
   <g id="patch_127">
    <path d="M 246.098404 307.584 
L 252.724007 307.584 
L 252.724007 292.624 
L 246.098404 292.624 
z
" clip-path="url(#p1cc185a525)" style="fill: #2ca02c; opacity: 0.7"/>
   </g>
   <g id="patch_128">
    <path d="M 252.724007 307.584 
L 259.34961 307.584 
L 259.34961 288.224 
L 252.724007 288.224 
z
" clip-path="url(#p1cc185a525)" style="fill: #2ca02c; opacity: 0.7"/>
   </g>
   <g id="patch_129">
    <path d="M 259.34961 307.584 
L 265.975213 307.584 
L 265.975213 298.784 
L 259.34961 298.784 
z
" clip-path="url(#p1cc185a525)" style="fill: #2ca02c; opacity: 0.7"/>
   </g>
   <g id="patch_130">
    <path d="M 265.975213 307.584 
L 272.600816 307.584 
L 272.600816 296.144 
L 265.975213 296.144 
z
" clip-path="url(#p1cc185a525)" style="fill: #2ca02c; opacity: 0.7"/>
   </g>
   <g id="patch_131">
    <path d="M 272.600816 307.584 
L 279.226419 307.584 
L 279.226419 301.424 
L 272.600816 301.424 
z
" clip-path="url(#p1cc185a525)" style="fill: #2ca02c; opacity: 0.7"/>
   </g>
   <g id="patch_132">
    <path d="M 279.226419 307.584 
L 285.852022 307.584 
L 285.852022 302.304 
L 279.226419 302.304 
z
" clip-path="url(#p1cc185a525)" style="fill: #2ca02c; opacity: 0.7"/>
   </g>
   <g id="patch_133">
    <path d="M 285.852022 307.584 
L 292.477625 307.584 
L 292.477625 299.664 
L 285.852022 299.664 
z
" clip-path="url(#p1cc185a525)" style="fill: #2ca02c; opacity: 0.7"/>
   </g>
   <g id="patch_134">
    <path d="M 292.477625 307.584 
L 299.103228 307.584 
L 299.103228 298.784 
L 292.477625 298.784 
z
" clip-path="url(#p1cc185a525)" style="fill: #2ca02c; opacity: 0.7"/>
   </g>
   <g id="patch_135">
    <path d="M 299.103228 307.584 
L 305.728831 307.584 
L 305.728831 303.184 
L 299.103228 303.184 
z
" clip-path="url(#p1cc185a525)" style="fill: #2ca02c; opacity: 0.7"/>
   </g>
   <g id="patch_136">
    <path d="M 305.728831 307.584 
L 312.354434 307.584 
L 312.354434 303.184 
L 305.728831 303.184 
z
" clip-path="url(#p1cc185a525)" style="fill: #2ca02c; opacity: 0.7"/>
   </g>
   <g id="patch_137">
    <path d="M 312.354434 307.584 
L 318.980037 307.584 
L 318.980037 306.704 
L 312.354434 306.704 
z
" clip-path="url(#p1cc185a525)" style="fill: #2ca02c; opacity: 0.7"/>
   </g>
   <g id="patch_138">
    <path d="M 318.980037 307.584 
L 325.60564 307.584 
L 325.60564 306.704 
L 318.980037 306.704 
z
" clip-path="url(#p1cc185a525)" style="fill: #2ca02c; opacity: 0.7"/>
   </g>
   <g id="patch_139">
    <path d="M 325.60564 307.584 
L 332.231243 307.584 
L 332.231243 306.704 
L 325.60564 306.704 
z
" clip-path="url(#p1cc185a525)" style="fill: #2ca02c; opacity: 0.7"/>
   </g>
   <g id="patch_140">
    <path d="M 332.231243 307.584 
L 338.856846 307.584 
L 338.856846 307.584 
L 332.231243 307.584 
z
" clip-path="url(#p1cc185a525)" style="fill: #2ca02c; opacity: 0.7"/>
   </g>
   <g id="patch_141">
    <path d="M 338.856846 307.584 
L 345.482449 307.584 
L 345.482449 307.584 
L 338.856846 307.584 
z
" clip-path="url(#p1cc185a525)" style="fill: #2ca02c; opacity: 0.7"/>
   </g>
   <g id="patch_142">
    <path d="M 345.482449 307.584 
L 352.108052 307.584 
L 352.108052 307.584 
L 345.482449 307.584 
z
" clip-path="url(#p1cc185a525)" style="fill: #2ca02c; opacity: 0.7"/>
   </g>
   <g id="patch_143">
    <path d="M 352.108052 307.584 
L 358.733655 307.584 
L 358.733655 307.584 
L 352.108052 307.584 
z
" clip-path="url(#p1cc185a525)" style="fill: #2ca02c; opacity: 0.7"/>
   </g>
   <g id="patch_144">
    <path d="M 358.733655 307.584 
L 365.359258 307.584 
L 365.359258 307.584 
L 358.733655 307.584 
z
" clip-path="url(#p1cc185a525)" style="fill: #2ca02c; opacity: 0.7"/>
   </g>
   <g id="patch_145">
    <path d="M 365.359258 307.584 
L 371.984861 307.584 
L 371.984861 307.584 
L 365.359258 307.584 
z
" clip-path="url(#p1cc185a525)" style="fill: #2ca02c; opacity: 0.7"/>
   </g>
   <g id="patch_146">
    <path d="M 371.984861 307.584 
L 378.610464 307.584 
L 378.610464 307.584 
L 371.984861 307.584 
z
" clip-path="url(#p1cc185a525)" style="fill: #2ca02c; opacity: 0.7"/>
   </g>
   <g id="patch_147">
    <path d="M 378.610464 307.584 
L 385.236067 307.584 
L 385.236067 307.584 
L 378.610464 307.584 
z
" clip-path="url(#p1cc185a525)" style="fill: #2ca02c; opacity: 0.7"/>
   </g>
   <g id="patch_148">
    <path d="M 385.236067 307.584 
L 391.86167 307.584 
L 391.86167 307.584 
L 385.236067 307.584 
z
" clip-path="url(#p1cc185a525)" style="fill: #2ca02c; opacity: 0.7"/>
   </g>
   <g id="patch_149">
    <path d="M 391.86167 307.584 
L 398.487273 307.584 
L 398.487273 307.584 
L 391.86167 307.584 
z
" clip-path="url(#p1cc185a525)" style="fill: #2ca02c; opacity: 0.7"/>
   </g>
   <g id="matplotlib.axis_1">
    <g id="xtick_1">
     <g id="line2d_1">
      <defs>
       <path id="ma924404256" d="M 0 0 
L 0 3.5 
" style="stroke: #000000; stroke-width: 0.8"/>
      </defs>
      <g>
       <use xlink:href="#ma924404256" x="77.145529" y="307.584" style="stroke: #000000; stroke-width: 0.8"/>
      </g>
     </g>
     <g id="text_1">
      <!-- 0 -->
      <g transform="translate(73.964279 322.182437) scale(0.1 -0.1)">
       <defs>
        <path id="DejaVuSans-30" d="M 2034 4250 
Q 1547 4250 1301 3770 
Q 1056 3291 1056 2328 
Q 1056 1369 1301 889 
Q 1547 409 2034 409 
Q 2525 409 2770 889 
Q 3016 1369 3016 2328 
Q 3016 3291 2770 3770 
Q 2525 4250 2034 4250 
z
M 2034 4750 
Q 2819 4750 3233 4129 
Q 3647 3509 3647 2328 
Q 3647 1150 3233 529 
Q 2819 -91 2034 -91 
Q 1250 -91 836 529 
Q 422 1150 422 2328 
Q 422 3509 836 4129 
Q 1250 4750 2034 4750 
z
" transform="scale(0.015625)"/>
       </defs>
       <use xlink:href="#DejaVuSans-30"/>
      </g>
     </g>
    </g>
    <g id="xtick_2">
     <g id="line2d_2">
      <g>
       <use xlink:href="#ma924404256" x="143.401558" y="307.584" style="stroke: #000000; stroke-width: 0.8"/>
      </g>
     </g>
     <g id="text_2">
      <!-- 1 -->
      <g transform="translate(140.220308 322.182437) scale(0.1 -0.1)">
       <defs>
        <path id="DejaVuSans-31" d="M 794 531 
L 1825 531 
L 1825 4091 
L 703 3866 
L 703 4441 
L 1819 4666 
L 2450 4666 
L 2450 531 
L 3481 531 
L 3481 0 
L 794 0 
L 794 531 
z
" transform="scale(0.015625)"/>
       </defs>
       <use xlink:href="#DejaVuSans-31"/>
      </g>
     </g>
    </g>
    <g id="xtick_3">
     <g id="line2d_3">
      <g>
       <use xlink:href="#ma924404256" x="209.657588" y="307.584" style="stroke: #000000; stroke-width: 0.8"/>
      </g>
     </g>
     <g id="text_3">
      <!-- 2 -->
      <g transform="translate(206.476338 322.182437) scale(0.1 -0.1)">
       <defs>
        <path id="DejaVuSans-32" d="M 1228 531 
L 3431 531 
L 3431 0 
L 469 0 
L 469 531 
Q 828 903 1448 1529 
Q 2069 2156 2228 2338 
Q 2531 2678 2651 2914 
Q 2772 3150 2772 3378 
Q 2772 3750 2511 3984 
Q 2250 4219 1831 4219 
Q 1534 4219 1204 4116 
Q 875 4013 500 3803 
L 500 4441 
Q 881 4594 1212 4672 
Q 1544 4750 1819 4750 
Q 2544 4750 2975 4387 
Q 3406 4025 3406 3419 
Q 3406 3131 3298 2873 
Q 3191 2616 2906 2266 
Q 2828 2175 2409 1742 
Q 1991 1309 1228 531 
z
" transform="scale(0.015625)"/>
       </defs>
       <use xlink:href="#DejaVuSans-32"/>
      </g>
     </g>
    </g>
    <g id="xtick_4">
     <g id="line2d_4">
      <g>
       <use xlink:href="#ma924404256" x="275.913618" y="307.584" style="stroke: #000000; stroke-width: 0.8"/>
      </g>
     </g>
     <g id="text_4">
      <!-- 3 -->
      <g transform="translate(272.732368 322.182437) scale(0.1 -0.1)">
       <defs>
        <path id="DejaVuSans-33" d="M 2597 2516 
Q 3050 2419 3304 2112 
Q 3559 1806 3559 1356 
Q 3559 666 3084 287 
Q 2609 -91 1734 -91 
Q 1441 -91 1130 -33 
Q 819 25 488 141 
L 488 750 
Q 750 597 1062 519 
Q 1375 441 1716 441 
Q 2309 441 2620 675 
Q 2931 909 2931 1356 
Q 2931 1769 2642 2001 
Q 2353 2234 1838 2234 
L 1294 2234 
L 1294 2753 
L 1863 2753 
Q 2328 2753 2575 2939 
Q 2822 3125 2822 3475 
Q 2822 3834 2567 4026 
Q 2313 4219 1838 4219 
Q 1578 4219 1281 4162 
Q 984 4106 628 3988 
L 628 4550 
Q 988 4650 1302 4700 
Q 1616 4750 1894 4750 
Q 2613 4750 3031 4423 
Q 3450 4097 3450 3541 
Q 3450 3153 3228 2886 
Q 3006 2619 2597 2516 
z
" transform="scale(0.015625)"/>
       </defs>
       <use xlink:href="#DejaVuSans-33"/>
      </g>
     </g>
    </g>
    <g id="xtick_5">
     <g id="line2d_5">
      <g>
       <use xlink:href="#ma924404256" x="342.169647" y="307.584" style="stroke: #000000; stroke-width: 0.8"/>
      </g>
     </g>
     <g id="text_5">
      <!-- 4 -->
      <g transform="translate(338.988397 322.182437) scale(0.1 -0.1)">
       <defs>
        <path id="DejaVuSans-34" d="M 2419 4116 
L 825 1625 
L 2419 1625 
L 2419 4116 
z
M 2253 4666 
L 3047 4666 
L 3047 1625 
L 3713 1625 
L 3713 1100 
L 3047 1100 
L 3047 0 
L 2419 0 
L 2419 1100 
L 313 1100 
L 313 1709 
L 2253 4666 
z
" transform="scale(0.015625)"/>
       </defs>
       <use xlink:href="#DejaVuSans-34"/>
      </g>
     </g>
    </g>
    <g id="xtick_6">
     <g id="line2d_6">
      <g>
       <use xlink:href="#ma924404256" x="408.425677" y="307.584" style="stroke: #000000; stroke-width: 0.8"/>
      </g>
     </g>
     <g id="text_6">
      <!-- 5 -->
      <g transform="translate(405.244427 322.182437) scale(0.1 -0.1)">
       <defs>
        <path id="DejaVuSans-35" d="M 691 4666 
L 3169 4666 
L 3169 4134 
L 1269 4134 
L 1269 2991 
Q 1406 3038 1543 3061 
Q 1681 3084 1819 3084 
Q 2600 3084 3056 2656 
Q 3513 2228 3513 1497 
Q 3513 744 3044 326 
Q 2575 -91 1722 -91 
Q 1428 -91 1123 -41 
Q 819 9 494 109 
L 494 744 
Q 775 591 1075 516 
Q 1375 441 1709 441 
Q 2250 441 2565 725 
Q 2881 1009 2881 1497 
Q 2881 1984 2565 2268 
Q 2250 2553 1709 2553 
Q 1456 2553 1204 2497 
Q 953 2441 691 2322 
L 691 4666 
z
" transform="scale(0.015625)"/>
       </defs>
       <use xlink:href="#DejaVuSans-35"/>
      </g>
     </g>
    </g>
    <g id="text_7">
     <!-- Velocity of Particle -->
     <g transform="translate(190.073281 335.860562) scale(0.1 -0.1)">
      <defs>
       <path id="DejaVuSans-56" d="M 1831 0 
L 50 4666 
L 709 4666 
L 2188 738 
L 3669 4666 
L 4325 4666 
L 2547 0 
L 1831 0 
z
" transform="scale(0.015625)"/>
       <path id="DejaVuSans-65" d="M 3597 1894 
L 3597 1613 
L 953 1613 
Q 991 1019 1311 708 
Q 1631 397 2203 397 
Q 2534 397 2845 478 
Q 3156 559 3463 722 
L 3463 178 
Q 3153 47 2828 -22 
Q 2503 -91 2169 -91 
Q 1331 -91 842 396 
Q 353 884 353 1716 
Q 353 2575 817 3079 
Q 1281 3584 2069 3584 
Q 2775 3584 3186 3129 
Q 3597 2675 3597 1894 
z
M 3022 2063 
Q 3016 2534 2758 2815 
Q 2500 3097 2075 3097 
Q 1594 3097 1305 2825 
Q 1016 2553 972 2059 
L 3022 2063 
z
" transform="scale(0.015625)"/>
       <path id="DejaVuSans-6c" d="M 603 4863 
L 1178 4863 
L 1178 0 
L 603 0 
L 603 4863 
z
" transform="scale(0.015625)"/>
       <path id="DejaVuSans-6f" d="M 1959 3097 
Q 1497 3097 1228 2736 
Q 959 2375 959 1747 
Q 959 1119 1226 758 
Q 1494 397 1959 397 
Q 2419 397 2687 759 
Q 2956 1122 2956 1747 
Q 2956 2369 2687 2733 
Q 2419 3097 1959 3097 
z
M 1959 3584 
Q 2709 3584 3137 3096 
Q 3566 2609 3566 1747 
Q 3566 888 3137 398 
Q 2709 -91 1959 -91 
Q 1206 -91 779 398 
Q 353 888 353 1747 
Q 353 2609 779 3096 
Q 1206 3584 1959 3584 
z
" transform="scale(0.015625)"/>
       <path id="DejaVuSans-63" d="M 3122 3366 
L 3122 2828 
Q 2878 2963 2633 3030 
Q 2388 3097 2138 3097 
Q 1578 3097 1268 2742 
Q 959 2388 959 1747 
Q 959 1106 1268 751 
Q 1578 397 2138 397 
Q 2388 397 2633 464 
Q 2878 531 3122 666 
L 3122 134 
Q 2881 22 2623 -34 
Q 2366 -91 2075 -91 
Q 1284 -91 818 406 
Q 353 903 353 1747 
Q 353 2603 823 3093 
Q 1294 3584 2113 3584 
Q 2378 3584 2631 3529 
Q 2884 3475 3122 3366 
z
" transform="scale(0.015625)"/>
       <path id="DejaVuSans-69" d="M 603 3500 
L 1178 3500 
L 1178 0 
L 603 0 
L 603 3500 
z
M 603 4863 
L 1178 4863 
L 1178 4134 
L 603 4134 
L 603 4863 
z
" transform="scale(0.015625)"/>
       <path id="DejaVuSans-74" d="M 1172 4494 
L 1172 3500 
L 2356 3500 
L 2356 3053 
L 1172 3053 
L 1172 1153 
Q 1172 725 1289 603 
Q 1406 481 1766 481 
L 2356 481 
L 2356 0 
L 1766 0 
Q 1100 0 847 248 
Q 594 497 594 1153 
L 594 3053 
L 172 3053 
L 172 3500 
L 594 3500 
L 594 4494 
L 1172 4494 
z
" transform="scale(0.015625)"/>
       <path id="DejaVuSans-79" d="M 2059 -325 
Q 1816 -950 1584 -1140 
Q 1353 -1331 966 -1331 
L 506 -1331 
L 506 -850 
L 844 -850 
Q 1081 -850 1212 -737 
Q 1344 -625 1503 -206 
L 1606 56 
L 191 3500 
L 800 3500 
L 1894 763 
L 2988 3500 
L 3597 3500 
L 2059 -325 
z
" transform="scale(0.015625)"/>
       <path id="DejaVuSans-20" transform="scale(0.015625)"/>
       <path id="DejaVuSans-66" d="M 2375 4863 
L 2375 4384 
L 1825 4384 
Q 1516 4384 1395 4259 
Q 1275 4134 1275 3809 
L 1275 3500 
L 2222 3500 
L 2222 3053 
L 1275 3053 
L 1275 0 
L 697 0 
L 697 3053 
L 147 3053 
L 147 3500 
L 697 3500 
L 697 3744 
Q 697 4328 969 4595 
Q 1241 4863 1831 4863 
L 2375 4863 
z
" transform="scale(0.015625)"/>
       <path id="DejaVuSans-50" d="M 1259 4147 
L 1259 2394 
L 2053 2394 
Q 2494 2394 2734 2622 
Q 2975 2850 2975 3272 
Q 2975 3691 2734 3919 
Q 2494 4147 2053 4147 
L 1259 4147 
z
M 628 4666 
L 2053 4666 
Q 2838 4666 3239 4311 
Q 3641 3956 3641 3272 
Q 3641 2581 3239 2228 
Q 2838 1875 2053 1875 
L 1259 1875 
L 1259 0 
L 628 0 
L 628 4666 
z
" transform="scale(0.015625)"/>
       <path id="DejaVuSans-61" d="M 2194 1759 
Q 1497 1759 1228 1600 
Q 959 1441 959 1056 
Q 959 750 1161 570 
Q 1363 391 1709 391 
Q 2188 391 2477 730 
Q 2766 1069 2766 1631 
L 2766 1759 
L 2194 1759 
z
M 3341 1997 
L 3341 0 
L 2766 0 
L 2766 531 
Q 2569 213 2275 61 
Q 1981 -91 1556 -91 
Q 1019 -91 701 211 
Q 384 513 384 1019 
Q 384 1609 779 1909 
Q 1175 2209 1959 2209 
L 2766 2209 
L 2766 2266 
Q 2766 2663 2505 2880 
Q 2244 3097 1772 3097 
Q 1472 3097 1187 3025 
Q 903 2953 641 2809 
L 641 3341 
Q 956 3463 1253 3523 
Q 1550 3584 1831 3584 
Q 2591 3584 2966 3190 
Q 3341 2797 3341 1997 
z
" transform="scale(0.015625)"/>
       <path id="DejaVuSans-72" d="M 2631 2963 
Q 2534 3019 2420 3045 
Q 2306 3072 2169 3072 
Q 1681 3072 1420 2755 
Q 1159 2438 1159 1844 
L 1159 0 
L 581 0 
L 581 3500 
L 1159 3500 
L 1159 2956 
Q 1341 3275 1631 3429 
Q 1922 3584 2338 3584 
Q 2397 3584 2469 3576 
Q 2541 3569 2628 3553 
L 2631 2963 
z
" transform="scale(0.015625)"/>
      </defs>
      <use xlink:href="#DejaVuSans-56"/>
      <use xlink:href="#DejaVuSans-65" transform="translate(60.658203 0)"/>
      <use xlink:href="#DejaVuSans-6c" transform="translate(122.181641 0)"/>
      <use xlink:href="#DejaVuSans-6f" transform="translate(149.964844 0)"/>
      <use xlink:href="#DejaVuSans-63" transform="translate(211.146484 0)"/>
      <use xlink:href="#DejaVuSans-69" transform="translate(266.126953 0)"/>
      <use xlink:href="#DejaVuSans-74" transform="translate(293.910156 0)"/>
      <use xlink:href="#DejaVuSans-79" transform="translate(333.119141 0)"/>
      <use xlink:href="#DejaVuSans-20" transform="translate(392.298828 0)"/>
      <use xlink:href="#DejaVuSans-6f" transform="translate(424.085938 0)"/>
      <use xlink:href="#DejaVuSans-66" transform="translate(485.267578 0)"/>
      <use xlink:href="#DejaVuSans-20" transform="translate(520.472656 0)"/>
      <use xlink:href="#DejaVuSans-50" transform="translate(552.259766 0)"/>
      <use xlink:href="#DejaVuSans-61" transform="translate(608.0625 0)"/>
      <use xlink:href="#DejaVuSans-72" transform="translate(669.341797 0)"/>
      <use xlink:href="#DejaVuSans-74" transform="translate(710.455078 0)"/>
      <use xlink:href="#DejaVuSans-69" transform="translate(749.664062 0)"/>
      <use xlink:href="#DejaVuSans-63" transform="translate(777.447266 0)"/>
      <use xlink:href="#DejaVuSans-6c" transform="translate(832.427734 0)"/>
      <use xlink:href="#DejaVuSans-65" transform="translate(860.210938 0)"/>
     </g>
    </g>
   </g>
   <g id="matplotlib.axis_2">
    <g id="ytick_1">
     <g id="line2d_7">
      <defs>
       <path id="mc085fec8af" d="M 0 0 
L -3.5 0 
" style="stroke: #000000; stroke-width: 0.8"/>
      </defs>
      <g>
       <use xlink:href="#mc085fec8af" x="57.6" y="307.584" style="stroke: #000000; stroke-width: 0.8"/>
      </g>
     </g>
     <g id="text_8">
      <!-- 0 -->
      <g transform="translate(44.2375 311.383219) scale(0.1 -0.1)">
       <use xlink:href="#DejaVuSans-30"/>
      </g>
     </g>
    </g>
    <g id="ytick_2">
     <g id="line2d_8">
      <g>
       <use xlink:href="#mc085fec8af" x="57.6" y="263.584" style="stroke: #000000; stroke-width: 0.8"/>
      </g>
     </g>
     <g id="text_9">
      <!-- 50 -->
      <g transform="translate(37.875 267.383219) scale(0.1 -0.1)">
       <use xlink:href="#DejaVuSans-35"/>
       <use xlink:href="#DejaVuSans-30" transform="translate(63.623047 0)"/>
      </g>
     </g>
    </g>
    <g id="ytick_3">
     <g id="line2d_9">
      <g>
       <use xlink:href="#mc085fec8af" x="57.6" y="219.584" style="stroke: #000000; stroke-width: 0.8"/>
      </g>
     </g>
     <g id="text_10">
      <!-- 100 -->
      <g transform="translate(31.5125 223.383219) scale(0.1 -0.1)">
       <use xlink:href="#DejaVuSans-31"/>
       <use xlink:href="#DejaVuSans-30" transform="translate(63.623047 0)"/>
       <use xlink:href="#DejaVuSans-30" transform="translate(127.246094 0)"/>
      </g>
     </g>
    </g>
    <g id="ytick_4">
     <g id="line2d_10">
      <g>
       <use xlink:href="#mc085fec8af" x="57.6" y="175.584" style="stroke: #000000; stroke-width: 0.8"/>
      </g>
     </g>
     <g id="text_11">
      <!-- 150 -->
      <g transform="translate(31.5125 179.383219) scale(0.1 -0.1)">
       <use xlink:href="#DejaVuSans-31"/>
       <use xlink:href="#DejaVuSans-35" transform="translate(63.623047 0)"/>
       <use xlink:href="#DejaVuSans-30" transform="translate(127.246094 0)"/>
      </g>
     </g>
    </g>
    <g id="ytick_5">
     <g id="line2d_11">
      <g>
       <use xlink:href="#mc085fec8af" x="57.6" y="131.584" style="stroke: #000000; stroke-width: 0.8"/>
      </g>
     </g>
     <g id="text_12">
      <!-- 200 -->
      <g transform="translate(31.5125 135.383219) scale(0.1 -0.1)">
       <use xlink:href="#DejaVuSans-32"/>
       <use xlink:href="#DejaVuSans-30" transform="translate(63.623047 0)"/>
       <use xlink:href="#DejaVuSans-30" transform="translate(127.246094 0)"/>
      </g>
     </g>
    </g>
    <g id="ytick_6">
     <g id="line2d_12">
      <g>
       <use xlink:href="#mc085fec8af" x="57.6" y="87.584" style="stroke: #000000; stroke-width: 0.8"/>
      </g>
     </g>
     <g id="text_13">
      <!-- 250 -->
      <g transform="translate(31.5125 91.383219) scale(0.1 -0.1)">
       <use xlink:href="#DejaVuSans-32"/>
       <use xlink:href="#DejaVuSans-35" transform="translate(63.623047 0)"/>
       <use xlink:href="#DejaVuSans-30" transform="translate(127.246094 0)"/>
      </g>
     </g>
    </g>
    <g id="ytick_7">
     <g id="line2d_13">
      <g>
       <use xlink:href="#mc085fec8af" x="57.6" y="43.584" style="stroke: #000000; stroke-width: 0.8"/>
      </g>
     </g>
     <g id="text_14">
      <!-- 300 -->
      <g transform="translate(31.5125 47.383219) scale(0.1 -0.1)">
       <use xlink:href="#DejaVuSans-33"/>
       <use xlink:href="#DejaVuSans-30" transform="translate(63.623047 0)"/>
       <use xlink:href="#DejaVuSans-30" transform="translate(127.246094 0)"/>
      </g>
     </g>
    </g>
    <g id="text_15">
     <!-- Particle Number -->
     <g transform="translate(25.432812 214.676437) rotate(-90) scale(0.1 -0.1)">
      <defs>
       <path id="DejaVuSans-4e" d="M 628 4666 
L 1478 4666 
L 3547 763 
L 3547 4666 
L 4159 4666 
L 4159 0 
L 3309 0 
L 1241 3903 
L 1241 0 
L 628 0 
L 628 4666 
z
" transform="scale(0.015625)"/>
       <path id="DejaVuSans-75" d="M 544 1381 
L 544 3500 
L 1119 3500 
L 1119 1403 
Q 1119 906 1312 657 
Q 1506 409 1894 409 
Q 2359 409 2629 706 
Q 2900 1003 2900 1516 
L 2900 3500 
L 3475 3500 
L 3475 0 
L 2900 0 
L 2900 538 
Q 2691 219 2414 64 
Q 2138 -91 1772 -91 
Q 1169 -91 856 284 
Q 544 659 544 1381 
z
M 1991 3584 
L 1991 3584 
z
" transform="scale(0.015625)"/>
       <path id="DejaVuSans-6d" d="M 3328 2828 
Q 3544 3216 3844 3400 
Q 4144 3584 4550 3584 
Q 5097 3584 5394 3201 
Q 5691 2819 5691 2113 
L 5691 0 
L 5113 0 
L 5113 2094 
Q 5113 2597 4934 2840 
Q 4756 3084 4391 3084 
Q 3944 3084 3684 2787 
Q 3425 2491 3425 1978 
L 3425 0 
L 2847 0 
L 2847 2094 
Q 2847 2600 2669 2842 
Q 2491 3084 2119 3084 
Q 1678 3084 1418 2786 
Q 1159 2488 1159 1978 
L 1159 0 
L 581 0 
L 581 3500 
L 1159 3500 
L 1159 2956 
Q 1356 3278 1631 3431 
Q 1906 3584 2284 3584 
Q 2666 3584 2933 3390 
Q 3200 3197 3328 2828 
z
" transform="scale(0.015625)"/>
       <path id="DejaVuSans-62" d="M 3116 1747 
Q 3116 2381 2855 2742 
Q 2594 3103 2138 3103 
Q 1681 3103 1420 2742 
Q 1159 2381 1159 1747 
Q 1159 1113 1420 752 
Q 1681 391 2138 391 
Q 2594 391 2855 752 
Q 3116 1113 3116 1747 
z
M 1159 2969 
Q 1341 3281 1617 3432 
Q 1894 3584 2278 3584 
Q 2916 3584 3314 3078 
Q 3713 2572 3713 1747 
Q 3713 922 3314 415 
Q 2916 -91 2278 -91 
Q 1894 -91 1617 61 
Q 1341 213 1159 525 
L 1159 0 
L 581 0 
L 581 4863 
L 1159 4863 
L 1159 2969 
z
" transform="scale(0.015625)"/>
      </defs>
      <use xlink:href="#DejaVuSans-50"/>
      <use xlink:href="#DejaVuSans-61" transform="translate(55.802734 0)"/>
      <use xlink:href="#DejaVuSans-72" transform="translate(117.082031 0)"/>
      <use xlink:href="#DejaVuSans-74" transform="translate(158.195312 0)"/>
      <use xlink:href="#DejaVuSans-69" transform="translate(197.404297 0)"/>
      <use xlink:href="#DejaVuSans-63" transform="translate(225.1875 0)"/>
      <use xlink:href="#DejaVuSans-6c" transform="translate(280.167969 0)"/>
      <use xlink:href="#DejaVuSans-65" transform="translate(307.951172 0)"/>
      <use xlink:href="#DejaVuSans-20" transform="translate(369.474609 0)"/>
      <use xlink:href="#DejaVuSans-4e" transform="translate(401.261719 0)"/>
      <use xlink:href="#DejaVuSans-75" transform="translate(476.066406 0)"/>
      <use xlink:href="#DejaVuSans-6d" transform="translate(539.445312 0)"/>
      <use xlink:href="#DejaVuSans-62" transform="translate(636.857422 0)"/>
      <use xlink:href="#DejaVuSans-65" transform="translate(700.333984 0)"/>
      <use xlink:href="#DejaVuSans-72" transform="translate(761.857422 0)"/>
     </g>
    </g>
   </g>
   <g id="patch_150">
    <path d="M 57.6 307.584 
L 57.6 41.472 
" style="fill: none; stroke: #000000; stroke-width: 0.8; stroke-linejoin: miter; stroke-linecap: square"/>
   </g>
   <g id="patch_151">
    <path d="M 414.72 307.584 
L 414.72 41.472 
" style="fill: none; stroke: #000000; stroke-width: 0.8; stroke-linejoin: miter; stroke-linecap: square"/>
   </g>
   <g id="patch_152">
    <path d="M 57.6 307.584 
L 414.72 307.584 
" style="fill: none; stroke: #000000; stroke-width: 0.8; stroke-linejoin: miter; stroke-linecap: square"/>
   </g>
   <g id="patch_153">
    <path d="M 57.6 41.472 
L 414.72 41.472 
" style="fill: none; stroke: #000000; stroke-width: 0.8; stroke-linejoin: miter; stroke-linecap: square"/>
   </g>
   <g id="legend_1">
    <g id="patch_154">
     <path d="M 338.952813 93.506375 
L 407.72 93.506375 
Q 409.72 93.506375 409.72 91.506375 
L 409.72 48.472 
Q 409.72 46.472 407.72 46.472 
L 338.952813 46.472 
Q 336.952813 46.472 336.952813 48.472 
L 336.952813 91.506375 
Q 336.952813 93.506375 338.952813 93.506375 
z
" style="fill: #ffffff; opacity: 0.8; stroke: #cccccc; stroke-linejoin: miter"/>
    </g>
    <g id="patch_155">
     <path d="M 340.952813 58.070438 
L 360.952813 58.070438 
L 360.952813 51.070438 
L 340.952813 51.070438 
z
" style="fill: #1f77b4; opacity: 0.7"/>
    </g>
    <g id="text_16">
     <!-- a = 0.2 -->
     <g transform="translate(368.952813 58.070438) scale(0.1 -0.1)">
      <defs>
       <path id="DejaVuSans-3d" d="M 678 2906 
L 4684 2906 
L 4684 2381 
L 678 2381 
L 678 2906 
z
M 678 1631 
L 4684 1631 
L 4684 1100 
L 678 1100 
L 678 1631 
z
" transform="scale(0.015625)"/>
       <path id="DejaVuSans-2e" d="M 684 794 
L 1344 794 
L 1344 0 
L 684 0 
L 684 794 
z
" transform="scale(0.015625)"/>
      </defs>
      <use xlink:href="#DejaVuSans-61"/>
      <use xlink:href="#DejaVuSans-20" transform="translate(61.279297 0)"/>
      <use xlink:href="#DejaVuSans-3d" transform="translate(93.066406 0)"/>
      <use xlink:href="#DejaVuSans-20" transform="translate(176.855469 0)"/>
      <use xlink:href="#DejaVuSans-30" transform="translate(208.642578 0)"/>
      <use xlink:href="#DejaVuSans-2e" transform="translate(272.265625 0)"/>
      <use xlink:href="#DejaVuSans-32" transform="translate(304.052734 0)"/>
     </g>
    </g>
    <g id="patch_156">
     <path d="M 340.952813 72.748563 
L 360.952813 72.748563 
L 360.952813 65.748563 
L 340.952813 65.748563 
z
" style="fill: #ff7f0e; opacity: 0.7"/>
    </g>
    <g id="text_17">
     <!-- a = 0.6 -->
     <g transform="translate(368.952813 72.748563) scale(0.1 -0.1)">
      <defs>
       <path id="DejaVuSans-36" d="M 2113 2584 
Q 1688 2584 1439 2293 
Q 1191 2003 1191 1497 
Q 1191 994 1439 701 
Q 1688 409 2113 409 
Q 2538 409 2786 701 
Q 3034 994 3034 1497 
Q 3034 2003 2786 2293 
Q 2538 2584 2113 2584 
z
M 3366 4563 
L 3366 3988 
Q 3128 4100 2886 4159 
Q 2644 4219 2406 4219 
Q 1781 4219 1451 3797 
Q 1122 3375 1075 2522 
Q 1259 2794 1537 2939 
Q 1816 3084 2150 3084 
Q 2853 3084 3261 2657 
Q 3669 2231 3669 1497 
Q 3669 778 3244 343 
Q 2819 -91 2113 -91 
Q 1303 -91 875 529 
Q 447 1150 447 2328 
Q 447 3434 972 4092 
Q 1497 4750 2381 4750 
Q 2619 4750 2861 4703 
Q 3103 4656 3366 4563 
z
" transform="scale(0.015625)"/>
      </defs>
      <use xlink:href="#DejaVuSans-61"/>
      <use xlink:href="#DejaVuSans-20" transform="translate(61.279297 0)"/>
      <use xlink:href="#DejaVuSans-3d" transform="translate(93.066406 0)"/>
      <use xlink:href="#DejaVuSans-20" transform="translate(176.855469 0)"/>
      <use xlink:href="#DejaVuSans-30" transform="translate(208.642578 0)"/>
      <use xlink:href="#DejaVuSans-2e" transform="translate(272.265625 0)"/>
      <use xlink:href="#DejaVuSans-36" transform="translate(304.052734 0)"/>
     </g>
    </g>
    <g id="patch_157">
     <path d="M 340.952813 87.426688 
L 360.952813 87.426688 
L 360.952813 80.426688 
L 340.952813 80.426688 
z
" style="fill: #2ca02c; opacity: 0.7"/>
    </g>
    <g id="text_18">
     <!-- a = 1.0 -->
     <g transform="translate(368.952813 87.426688) scale(0.1 -0.1)">
      <use xlink:href="#DejaVuSans-61"/>
      <use xlink:href="#DejaVuSans-20" transform="translate(61.279297 0)"/>
      <use xlink:href="#DejaVuSans-3d" transform="translate(93.066406 0)"/>
      <use xlink:href="#DejaVuSans-20" transform="translate(176.855469 0)"/>
      <use xlink:href="#DejaVuSans-31" transform="translate(208.642578 0)"/>
      <use xlink:href="#DejaVuSans-2e" transform="translate(272.265625 0)"/>
      <use xlink:href="#DejaVuSans-30" transform="translate(304.052734 0)"/>
     </g>
    </g>
   </g>
  </g>
 </g>
 <defs>
  <clipPath id="p1cc185a525">
   <rect x="57.6" y="41.472" width="357.12" height="266.112"/>
  </clipPath>
 </defs>
</svg>
